<?xml version="1.0" encoding="UTF-8"?>
<!DOCTYPE svg PUBLIC "-//W3C//DTD SVG 1.1//EN" "http://www.w3.org/Graphics/SVG/1.1/DTD/svg11.dtd">
<!-- Creator: CorelDRAW 2018 (64 Bit) -->
<svg xmlns="http://www.w3.org/2000/svg" xml:space="preserve" width="297mm" height="210mm" version="1.1" style="shape-rendering:geometricPrecision; text-rendering:geometricPrecision; image-rendering:optimizeQuality; fill-rule:evenodd; clip-rule:evenodd"
viewBox="0 0 29700 21000"
 xmlns:xlink="http://www.w3.org/1999/xlink"
 enable-background="new 0 0 516.6 512.6">
 <defs>
  <style type="text/css">
   <![CDATA[
    .str1 {stroke:black;stroke-width:25;stroke-miterlimit:22.9256}
    .str2 {stroke:black;stroke-width:20;stroke-miterlimit:22.9256}
    .str0 {stroke:gray;stroke-width:10;stroke-miterlimit:22.9256;stroke-dasharray:20.000000 30.000000}
    .fil1 {fill:none}
    .fil0 {fill:black}
   ]]>
  </style>
 </defs>
 <g id="Capa_x0020_1">
  <metadata id="CorelCorpID_0Corel-Layer"/>
  <path class="fil0" d="M13254.89 1508.84c24.66,-16.43 53.43,-16.43 86.3,-8.21 28.77,8.21 53.44,28.76 69.87,57.53 16.43,28.77 20.55,57.54 12.33,86.31 -8.21,28.77 -24.66,53.43 -49.32,69.87 -28.76,16.43 -61.65,16.43 -98.63,0 0,41.1 -16.44,73.98 -53.44,94.52 -28.77,16.43 -57.54,20.55 -86.3,8.22 -28.77,-8.22 -53.44,-28.77 -73.99,-61.66 -16.43,-32.88 -24.67,-61.65 -16.43,-94.52 8.21,-32.88 24.66,-57.53 53.43,-69.87 32.89,-20.55 69.87,-20.55 106.86,0 4.11,-20.55 8.21,-36.98 16.43,-49.32 8.22,-12.32 20.55,-24.65 32.89,-32.87zm-61.66 250.72l4.12 -4.12c16.43,-8.22 24.67,-20.55 28.77,-36.99 4.11,-16.43 0,-32.88 -8.22,-53.43 -8.22,-16.44 -24.67,-28.77 -41.1,-32.89 -16.44,-4.11 -32.89,-4.11 -49.32,4.12 -16.44,8.22 -24.67,20.55 -28.77,36.99 -4.1,16.43 0,32.88 12.33,53.43 8.22,16.44 20.56,28.77 36.99,32.89 16.43,4.11 28.77,8.21 45.2,0zm152.06 -94.54c16.44,-8.22 24.67,-20.55 28.77,-36.99 4.12,-16.43 0,-32.88 -8.22,-45.2 -8.22,-16.43 -20.55,-24.67 -36.98,-28.77 -16.44,-4.1 -28.77,-4.11 -45.21,4.12 -12.33,8.22 -24.66,20.55 -28.76,36.98 -4.12,16.44 0,32.89 8.21,45.21 8.22,16.43 20.55,24.66 36.99,28.76 16.43,8.22 32.88,4.11 45.2,-4.11z"/>
  <path class="fil0" d="M13554.9 1804.76c16.44,32.88 16.44,65.75 -4.12,106.85 -20.55,41.11 -57.53,73.99 -106.85,102.76 -53.44,28.77 -98.64,45.2 -143.84,41.1 -45.2,0 -73.99,-20.55 -94.52,-49.32 -20.55,-32.88 -16.44,-69.87 0,-106.85 20.55,-36.99 57.53,-73.99 106.85,-102.76 53.44,-28.77 98.64,-45.2 143.84,-41.1 49.32,0 78.09,16.43 98.64,49.32zm-45.2 28.77l0 0c-12.34,-20.55 -32.89,-28.77 -61.65,-28.77 -28.77,4.11 -61.66,16.43 -102.76,36.98 -41.1,24.67 -69.87,45.21 -86.3,69.87 -16.44,24.67 -20.55,45.21 -8.22,65.76 12.33,20.55 32.88,28.77 61.65,24.66 28.77,-4.11 61.65,-16.43 102.76,-36.98 41.1,-24.67 65.75,-45.2 86.3,-69.87 16.44,-24.67 16.44,-45.2 8.22,-61.65z"/>
  <path class="fil0" d="M15720.84 14249.6c24.67,-16.43 53.44,-16.43 86.3,-8.21 28.77,8.21 53.44,28.76 69.87,57.53 16.44,28.77 20.56,57.54 12.34,86.31 -8.22,28.77 -24.67,53.43 -49.32,69.87 -28.77,16.43 -61.65,16.43 -98.64,0 0,41.1 -16.43,73.98 -53.43,94.52 -28.77,16.43 -57.54,20.55 -86.31,8.22 -28.77,-8.22 -53.43,-28.77 -73.99,-61.66 -16.43,-32.88 -24.66,-61.65 -16.43,-94.52 8.22,-32.88 24.67,-57.53 49.32,-69.87 32.88,-20.55 69.87,-20.55 106.85,0 4.12,-20.55 8.22,-36.98 16.44,-49.32 12.33,-12.32 20.55,-24.63 37,-32.87zm-65.77 250.72l4.12 -4.12c16.43,-8.22 24.66,-20.55 28.77,-36.99 4.1,-16.43 0,-32.88 -8.22,-53.43 -8.22,-16.44 -24.67,-28.77 -41.1,-32.89 -16.44,-4.11 -32.89,-4.11 -49.32,4.12 -16.44,8.22 -24.67,20.55 -28.77,36.99 -4.1,16.43 0,32.88 8.22,53.43 8.21,16.44 20.55,28.77 36.98,32.89 16.44,4.11 37,8.21 49.32,0zm156.18 -94.53c16.43,-8.21 24.66,-20.55 28.76,-36.98 4.12,-16.44 0,-32.89 -8.21,-45.2 -8.22,-16.44 -20.55,-24.67 -36.99,-28.77 -16.43,-4.1 -28.77,-4.12 -45.2,4.11 -12.34,8.22 -24.67,20.55 -28.77,36.99 -4.12,16.43 0,32.88 8.22,45.2 8.21,16.44 20.55,24.67 36.98,28.77 16.44,8.2 28.77,4.1 45.21,-4.12z"/>
  <path class="fil0" d="M16020.86 14545.52c16.43,32.88 16.43,65.75 -4.12,106.85 -20.55,41.11 -57.54,73.99 -106.86,102.76 -53.43,28.77 -98.63,45.2 -143.84,41.1 -45.2,-4.1 -73.98,-20.55 -94.52,-49.32 -20.55,-32.88 -16.43,-69.87 0,-106.85 20.55,-36.99 57.54,-73.99 106.86,-102.76 53.43,-28.77 98.63,-45.2 143.84,-41.1 45.22,0 78.08,16.45 98.64,49.32zm-45.21 28.78l0 0c-12.33,-20.55 -32.88,-28.77 -61.65,-28.77 -28.77,4.12 -61.65,16.44 -102.75,36.99 -41.11,24.67 -69.87,45.2 -86.31,69.87 -16.43,24.67 -20.55,45.2 -8.22,65.75 12.34,20.55 32.89,28.77 61.66,24.67 28.76,-4.12 61.65,-16.43 102.75,-36.99 41.1,-24.66 65.75,-45.2 86.31,-69.87 12.31,-24.66 16.43,-45.21 8.21,-61.65z"/>
  <path class="fil0" d="M12568.52 3066.5l8.22 4.12 -20.55 49.32c-32.89,-16.44 -61.66,-28.77 -90.43,-32.89 -28.76,-4.11 -61.65,-4.11 -94.52,0 20.55,12.34 32.89,28.77 45.21,45.21 16.43,28.77 20.55,53.43 12.33,82.2 -8.22,28.77 -24.67,53.44 -53.44,69.87 -28.76,16.44 -57.53,20.55 -90.42,12.33 -32.88,-8.21 -53.43,-28.76 -69.87,-57.53 -16.43,-32.89 -20.55,-65.76 -12.33,-98.64 12.33,-32.88 32.88,-57.54 69.87,-82.2 28.77,-16.44 57.54,-24.67 90.42,-32.89 32.88,-4.11 65.75,-4.11 102.75,0 32.89,12.34 65.77,20.55 102.76,41.1zm-254.81 36.99c-8.22,4.12 -16.44,8.22 -24.67,12.33 -20.55,12.34 -32.89,24.67 -36.99,45.21 -4.11,16.43 -4.11,36.98 8.22,53.43 8.22,16.44 20.55,24.67 36.99,28.77 16.43,4.12 32.88,0 49.32,-8.22 16.43,-8.22 24.66,-20.55 28.76,-41.1 4.12,-16.43 0,-32.88 -8.21,-53.44 -4.12,-8.21 -12.34,-16.43 -16.44,-20.55 -12.32,-4.1 -24.65,-8.2 -36.98,-16.43z"/>
  <path class="fil0" d="M12700.04 3284.33c16.44,32.89 16.44,65.75 -4.11,106.86 -20.56,41.1 -57.54,73.98 -106.86,102.75 -53.44,28.77 -98.64,45.2 -143.84,41.1 -45.2,0 -73.99,-20.55 -94.52,-49.32 -20.55,-32.88 -16.44,-69.87 0,-106.85 20.55,-36.99 57.53,-73.99 106.85,-102.76 53.44,-28.76 98.64,-45.2 143.84,-41.1 49.32,0 82.21,16.44 98.64,49.32zm-45.22 28.77l0 0c-12.33,-20.55 -32.88,-28.77 -61.65,-28.77 -28.77,4.12 -61.65,16.44 -102.75,36.99 -41.11,24.66 -69.87,45.2 -86.31,69.87 -16.43,24.66 -20.55,45.2 -8.22,65.75 12.34,20.55 32.89,28.77 61.66,24.67 28.77,-4.12 61.65,-16.44 102.75,-36.99 41.1,-24.67 65.76,-45.2 86.31,-69.87 16.45,-24.67 20.55,-45.2 8.21,-61.65z"/>
  <path class="fil0" d="M16703.11 12823.47l8.21 4.11 -20.55 49.32c-32.88,-16.43 -61.65,-28.77 -90.42,-32.88 -28.77,-4.12 -61.65,-4.12 -94.52,0 20.55,12.33 32.88,28.77 45.2,45.2 16.44,28.77 20.55,53.44 12.34,82.2 -8.22,28.77 -24.67,53.44 -53.44,69.87 -28.77,16.44 -57.54,20.55 -90.42,12.34 -32.89,-8.22 -53.44,-28.77 -69.87,-57.54 -16.44,-32.88 -20.55,-65.75 -12.33,-98.64 12.33,-32.88 32.88,-57.53 69.87,-82.2 28.76,-16.44 57.53,-24.67 90.42,-32.89 32.88,-4.11 65.75,-4.11 102.75,0 28.78,12.34 65.77,24.67 102.76,41.11zm-258.93 41.1c-8.22,4.11 -16.44,8.22 -24.67,12.33 -20.55,12.34 -32.89,24.67 -36.99,45.2 -4.11,16.44 -4.11,36.99 8.22,53.44 8.22,16.43 20.55,24.67 36.99,28.77 16.43,4.1 32.88,0 49.32,-8.22 16.43,-8.22 24.66,-20.55 28.76,-41.1 4.12,-16.44 0,-32.89 -8.21,-53.44 -4.12,-8.21 -12.34,-16.43 -16.44,-20.55 -12.32,-4.1 -20.53,-8.21 -36.98,-16.43z"/>
  <path class="fil0" d="M16834.63 13045.41c16.43,32.88 16.43,65.75 -4.12,106.86 -20.55,41.1 -57.53,73.98 -106.85,102.75 -53.44,28.77 -98.64,45.2 -143.84,41.1 -45.21,0 -73.99,-20.55 -94.53,-49.32 -20.55,-32.88 -16.43,-69.87 0,-106.85 16.44,-36.99 57.54,-73.99 106.86,-102.76 53.43,-28.77 98.64,-45.2 143.84,-41.1 45.2,0 78.09,16.44 98.64,49.32zm-49.32 28.77l0 0c-12.33,-20.55 -32.89,-28.77 -61.65,-28.77 -28.77,4.12 -61.66,16.43 -102.76,36.99 -41.1,24.66 -69.87,45.2 -86.3,69.87 -16.44,24.66 -20.55,45.2 -8.22,65.75 12.33,20.55 32.88,28.77 61.65,24.67 28.77,-4.12 61.66,-16.44 102.76,-36.99 41.1,-24.67 65.75,-45.2 86.3,-69.87 16.44,-24.67 20.54,-45.22 8.22,-61.65z"/>
  <path class="fil0" d="M11730.09 4504.97l12.34 20.56 -189.06 110.97 20.55 36.98 -41.1 24.67 -20.55 -36.99 -110.97 65.76 -28.77 -49.32 110.97 -65.75 -82.2 -143.85 20.55 -12.33 308.24 49.3zm-205.49 82.21l98.64 -57.54 -143.84 -20.55 45.2 78.09z"/>
  <path class="fil0" d="M11845.18 4702.25c16.44,32.89 16.44,65.75 -4.11,106.86 -20.55,41.1 -57.54,73.98 -106.86,102.75 -53.43,28.77 -98.64,45.2 -143.84,41.1 -45.2,0 -73.99,-20.55 -94.52,-49.32 -20.55,-32.88 -16.44,-69.87 0,-106.85 20.55,-36.99 57.53,-73.99 106.85,-102.76 53.44,-28.76 98.64,-45.2 143.84,-41.1 49.32,0 82.19,16.45 98.64,49.32zm-45.22 28.77l0 0c-12.33,-20.55 -32.88,-28.77 -61.65,-28.77 -28.77,4.12 -61.65,16.44 -102.75,36.99 -41.1,24.66 -69.87,45.2 -86.31,69.87 -16.43,24.66 -20.55,45.2 -8.21,65.75 12.33,20.55 32.88,28.77 61.65,24.67 28.77,-4.12 61.65,-16.44 102.75,-36.99 41.1,-24.67 65.76,-45.2 86.31,-69.87 16.43,-24.65 20.55,-45.2 8.21,-61.65z"/>
  <path class="fil0" d="M17574.41 11430.2l12.34 20.55 -189.06 110.97 20.55 36.99 -41.1 24.66 -20.55 -36.98 -110.97 65.75 -28.77 -49.32 110.97 -65.75 -82.2 -143.84 20.55 -12.34 308.24 49.31zm-209.61 82.2l98.64 -57.53 -143.84 -20.56 45.2 78.09z"/>
  <path class="fil0 str0" d="M17685.37 11627.47c16.44,32.89 16.44,65.76 -4.12,106.86 -20.55,41.1 -57.53,73.99 -106.85,102.75 -53.44,28.77 -98.64,45.21 -143.84,41.11 -45.2,-4.1 -73.99,-20.55 -94.52,-49.32 -20.55,-32.89 -16.44,-69.87 0,-106.86 20.55,-36.98 57.53,-73.98 106.85,-102.75 53.44,-28.77 98.64,-45.21 143.84,-41.1 49.32,0 82.21,16.45 98.64,49.31zm-45.2 28.77l0 0c-12.34,-20.55 -32.89,-28.77 -61.65,-28.77 -28.77,4.12 -61.66,16.44 -102.76,36.99 -41.1,24.67 -69.87,45.2 -86.3,69.87 -16.44,24.67 -20.55,45.2 -8.22,65.75 12.33,20.55 32.88,28.77 61.65,24.67 28.77,-4.12 61.65,-16.43 102.76,-36.98 41.1,-24.67 65.75,-45.21 86.3,-69.87 16.44,-24.66 20.55,-45.21 8.22,-61.66z"/>
  <path class="fil0" d="M10538.22 6042.1l73.99 127.41 -45.21 28.76 -123.3 -213.71 4.11 0 36.99 8.22c57.54,8.22 106.85,16.43 143.84,16.43 36.99,0 65.75,4.12 82.2,0 16.44,-4.11 32.89,-8.21 45.21,-16.43 20.55,-12.33 32.88,-24.67 36.98,-41.1 4.12,-16.44 4.12,-36.99 -8.22,-53.44 -8.21,-12.33 -20.55,-24.66 -36.98,-32.88 -16.44,-8.22 -32.89,-12.34 -53.44,-16.44l61.66 -36.98c36.98,12.33 61.65,36.98 78.08,61.65 16.44,28.77 20.55,61.65 12.34,90.42 -8.22,28.77 -28.77,53.44 -57.54,73.99 -12.33,8.22 -28.77,12.33 -49.32,16.43 -20.55,4.1 -41.1,4.12 -69.87,4.12 -28.77,0 -65.75,-4.12 -119.19,-12.33l-12.33 -4.12z"/>
  <path class="fil0" d="M10994.42 6140.74c16.44,32.88 16.44,65.75 -4.11,106.85 -20.55,41.1 -57.54,73.99 -106.86,102.76 -53.43,28.77 -98.64,45.2 -143.84,41.1 -45.2,0 -73.98,-20.55 -94.52,-49.32 -20.55,-32.88 -16.43,-69.87 0,-106.86 20.55,-36.98 57.54,-73.98 106.86,-102.75 53.43,-28.77 98.63,-45.2 143.84,-41.1 45.2,0 78.08,16.43 98.63,49.32zm-49.31 28.77l0 0c-12.34,-20.56 -32.89,-28.77 -61.66,-28.77 -28.77,4.11 -61.65,16.43 -102.75,36.98 -41.1,24.67 -69.87,45.21 -86.31,69.87 -16.43,24.67 -20.55,45.21 -8.21,65.76 12.33,20.55 32.88,28.76 61.65,24.66 28.77,-4.11 61.65,-16.43 102.75,-36.98 41.11,-24.67 65.76,-45.2 86.31,-69.87 16.43,-24.67 20.55,-45.22 8.22,-61.65z"/>
  <path class="fil0" d="M18088.16 10069.81l73.98 127.41 -45.2 28.77 -123.31 -213.71 4.12 0 36.99 8.22c57.53,8.21 106.85,16.43 143.84,16.43 36.98,0 65.75,4.12 82.2,0 16.44,-4.12 32.89,-8.22 45.2,-16.43 20.55,-12.34 32.89,-24.67 36.99,-41.11 4.12,-16.43 4.12,-36.98 -8.22,-53.43 -8.22,-12.34 -20.55,-24.67 -36.98,-32.89 -16.44,-8.21 -32.89,-12.33 -53.44,-16.43l61.65 -36.99c36.99,12.34 61.66,36.99 78.09,61.66 16.44,28.76 20.55,61.65 12.33,90.42 -8.21,28.77 -28.76,53.43 -57.53,73.98 -12.34,8.22 -28.77,12.34 -49.32,16.44 -20.55,4.1 -41.1,4.11 -69.87,4.11 -28.77,0 -65.75,-4.11 -119.19,-12.33l-12.33 -4.12z"/>
  <path class="fil0" d="M18540.25 10168.45c16.43,32.89 16.43,65.76 -4.12,106.86 -20.55,41.1 -57.54,73.98 -106.86,102.75 -53.43,28.77 -98.63,45.21 -143.84,41.1 -45.2,-4.1 -73.98,-20.55 -94.52,-49.31 -20.55,-32.89 -16.43,-69.87 0,-106.86 20.55,-36.99 57.54,-73.99 106.86,-102.75 53.43,-28.77 98.63,-45.21 143.84,-41.11 49.32,0 82.19,16.45 98.64,49.32zm-45.22 28.77l0 0c-12.34,-20.55 -32.89,-28.77 -61.66,-28.77 -28.76,4.12 -61.65,16.44 -102.75,36.99 -41.1,24.67 -69.87,45.2 -86.3,69.87 -16.44,24.67 -20.56,45.2 -8.22,65.75 12.33,20.55 32.88,28.77 61.65,24.67 28.77,-4.12 61.65,-16.44 102.76,-36.99 41.1,-24.66 65.75,-45.2 86.3,-69.87 16.45,-24.65 20.55,-45.2 8.22,-61.65z"/>
  <path class="fil0" d="M15613.97 1956.83c-24.67,-16.43 -45.2,-36.98 -49.32,-69.87 -4.12,-32.88 -4.12,-61.65 16.43,-90.42 16.44,-28.77 41.11,-45.2 69.87,-57.54 28.77,-8.21 57.54,-4.11 86.31,8.22 28.77,16.44 45.2,45.2 49.32,86.31 36.98,-20.55 73.98,-20.55 106.85,0 28.77,16.43 45.21,41.1 53.44,69.87 8.22,32.88 0,61.65 -16.44,94.52 -16.43,32.88 -41.1,49.32 -73.98,61.65 -32.89,8.22 -61.65,8.22 -86.31,-8.22 -32.88,-20.55 -53.43,-49.32 -53.43,-94.52 -20.55,8.22 -36.99,12.34 -53.44,12.34 -20.52,4.1 -36.97,-4.12 -49.3,-12.34zm90.42 -152.07c-16.43,-8.22 -28.77,-12.34 -45.2,-4.12 -16.44,4.12 -28.77,16.44 -36.99,28.77 -8.22,16.43 -12.33,32.88 -8.22,45.2 4.12,16.44 12.34,28.77 28.77,36.99 12.34,8.22 28.77,8.22 45.21,4.11 16.43,-4.1 28.76,-16.43 36.98,-28.76 8.22,-16.44 12.33,-28.77 8.22,-45.21 -4.1,-20.55 -16.44,-28.76 -28.77,-36.98zm156.17 82.2l-4.11 -4.11c-16.44,-8.22 -32.89,-12.34 -49.32,-4.12 -16.44,8.22 -28.77,16.43 -41.1,32.88 -8.22,16.44 -12.34,32.89 -8.22,49.32 4.12,16.44 12.33,28.77 28.77,36.99 16.43,8.22 32.88,12.33 49.32,4.11 16.43,-4.11 28.77,-16.43 41.1,-36.98 8.22,-16.44 12.33,-32.89 12.33,-49.32 -4.1,-8.22 -12.32,-20.55 -28.77,-28.77z"/>
  <path class="fil0" d="M15720.84 1549.95c16.43,-32.89 49.32,-49.32 94.52,-49.32 45.2,0 90.42,12.33 143.84,41.1 53.44,28.77 86.31,65.75 106.86,102.75 20.55,36.99 20.55,73.99 4.11,106.86 -20.55,32.88 -49.31,49.32 -94.52,53.43 -45.2,0 -90.42,-12.33 -143.84,-41.1 -53.43,-28.77 -86.3,-65.75 -106.85,-102.75 -24.67,-41.1 -24.67,-78.09 -4.12,-110.97zm45.2 28.76l0 0c-12.33,20.55 -8.21,41.11 8.22,65.76 16.43,24.66 45.2,49.32 82.2,69.87 41.11,24.66 73.99,36.98 102.76,36.98 28.77,4.12 49.32,-4.11 61.65,-24.66 12.33,-20.56 8.22,-41.11 -8.22,-65.76 -16.43,-24.67 -45.2,-49.32 -82.2,-69.87 -41.1,-24.67 -73.99,-36.98 -102.75,-36.98 -32.89,0.01 -49.32,4.11 -61.66,24.66z"/>
  <path class="fil0" d="M13065.83 14615.39c-24.67,-16.44 -45.21,-36.99 -49.32,-69.87 -4.12,-32.89 -4.12,-61.65 16.43,-90.42 16.44,-28.77 41.1,-45.21 69.87,-57.54 28.77,-8.22 57.54,-4.12 86.31,8.22 28.76,16.43 45.2,45.2 49.32,86.3 36.98,-20.55 73.98,-20.55 106.85,0 28.77,16.44 45.2,41.1 53.44,69.87 8.21,32.89 0,61.66 -16.44,94.52 -16.43,32.89 -41.1,49.32 -73.98,61.66 -32.89,8.21 -61.66,8.21 -86.31,-8.22 -32.88,-20.55 -53.43,-49.32 -53.43,-94.52 -20.56,8.22 -36.99,12.33 -53.44,12.33 -20.54,4.12 -32.87,-4.1 -49.3,-12.33zm90.42 -152.06c-16.44,-8.22 -28.77,-12.33 -45.21,-4.12 -16.43,4.12 -28.76,16.44 -36.98,28.77 -8.22,16.44 -12.33,32.89 -8.22,45.2 4.12,16.44 12.34,28.77 28.77,36.99 12.33,8.22 28.77,8.22 45.2,4.12 16.44,-4.1 28.77,-16.44 36.99,-28.77 8.22,-16.44 12.33,-28.77 8.22,-45.2 -4.12,-20.56 -12.34,-28.77 -28.77,-36.99zm160.27 82.19l-4.11 -4.12c-16.44,-8.22 -32.89,-12.33 -49.32,-4.11 -16.44,8.21 -28.77,16.43 -41.1,32.88 -8.22,16.43 -12.34,32.88 -8.22,49.32 4.11,16.43 12.33,28.77 28.77,36.98 16.43,8.22 32.88,12.34 49.32,4.12 16.43,-4.12 28.76,-16.43 41.1,-36.98 8.21,-16.44 12.33,-32.89 12.33,-49.32 -8.22,-8.22 -16.43,-20.54 -28.77,-28.77z"/>
  <path class="fil0" d="M13172.68 14208.52c16.44,-32.89 49.32,-49.32 94.52,-49.32 45.21,0 90.42,12.33 143.84,41.1 53.44,28.77 86.31,65.75 106.86,102.75 20.55,36.99 20.55,73.99 4.12,106.86 -20.55,32.88 -49.32,49.32 -94.53,53.44 -45.2,0 -90.42,-12.34 -143.84,-41.11 -53.43,-28.76 -86.3,-65.75 -106.85,-102.75 -20.55,-41.1 -20.55,-78.1 -4.12,-110.97zm45.2 28.77l0 0c-12.33,20.55 -8.21,41.1 8.22,65.75 16.44,24.67 45.2,49.32 82.21,69.87 41.1,24.67 73.98,36.98 102.75,36.98 28.77,4.12 49.32,-4.11 61.65,-24.66 12.34,-20.55 8.22,-41.1 -8.21,-65.76 -16.44,-24.66 -45.21,-49.32 -82.21,-69.87 -41.1,-24.66 -73.98,-36.98 -102.75,-36.98 -28.77,0 -49.32,4.11 -61.66,24.67z"/>
  <path class="fil0" d="M16448.29 3255.56l0 -8.21 53.44 -8.22c0,36.98 8.22,65.75 16.43,94.52 8.22,28.77 24.67,53.44 45.21,78.09 0,-24.67 8.21,-45.21 16.43,-61.66 16.43,-28.76 36.99,-45.2 65.75,-49.31 28.77,-8.22 57.54,-4.12 86.31,12.33 28.77,16.43 45.2,41.1 53.43,69.87 8.22,32.88 4.12,61.65 -12.33,90.42 -16.43,32.88 -45.2,49.32 -78.09,57.54 -32.88,8.21 -69.87,0 -106.85,-20.55 -28.77,-16.44 -53.44,-36.99 -73.99,-61.66 -20.55,-24.66 -36.98,-53.43 -49.32,-86.3 -4.08,-28.77 -12.32,-65.76 -16.42,-106.86zm164.39 201.4c8.22,4.11 16.44,12.33 24.67,16.43 20.55,12.33 36.99,16.43 57.54,12.33 20.55,-4.11 32.88,-16.43 41.1,-32.88 8.22,-16.44 12.33,-32.89 8.22,-49.32 -4.12,-16.43 -16.44,-28.77 -32.89,-36.99 -16.43,-8.21 -32.88,-12.33 -49.32,-8.21 -16.43,4.11 -28.76,16.43 -41.1,32.88 -4.11,8.22 -8.22,16.44 -8.22,28.77 0,8.22 0,20.54 0,36.99z"/>
  <path class="fil0" d="M16575.7 3029.52c16.43,-32.89 49.32,-49.32 94.52,-49.32 45.2,0 90.42,12.33 143.84,41.1 53.44,28.77 86.31,65.75 106.86,102.76 20.55,36.98 20.55,73.98 4.11,106.85 -20.55,32.89 -49.32,49.32 -94.52,53.44 -45.2,0 -90.42,-12.34 -143.84,-41.11 -53.43,-28.76 -86.3,-65.75 -106.85,-102.75 -24.67,-41.1 -24.67,-78.09 -4.12,-110.97zm45.2 28.77l0 0c-12.33,20.55 -8.22,41.1 8.22,65.75 16.43,24.67 45.2,49.32 82.2,69.87 41.1,24.67 73.99,36.99 102.76,36.99 28.77,4.11 49.32,-4.12 61.65,-24.67 12.33,-20.55 8.22,-41.1 -8.22,-65.76 -16.43,-24.66 -45.2,-49.31 -82.2,-69.87 -41.1,-24.66 -73.99,-36.98 -102.76,-36.98 -32.88,0.01 -49.31,4.12 -61.65,24.67z"/>
  <path class="fil0" d="M12358.91 13016.63l0 -8.22 53.43 -8.22c0,36.99 8.22,65.76 16.44,94.52 8.22,28.77 24.67,53.44 45.2,78.09 0,-24.67 8.22,-45.2 16.44,-61.65 16.43,-28.77 36.98,-45.2 65.75,-49.32 28.77,-8.22 57.54,-4.12 86.3,12.33 28.77,16.44 45.21,41.1 53.44,69.87 8.23,28.77 4.12,61.66 -12.33,90.42 -16.44,32.89 -45.21,49.32 -78.09,57.54 -32.89,8.22 -69.87,0 -106.86,-20.55 -28.76,-16.44 -53.43,-36.99 -73.98,-61.65 -20.55,-24.67 -36.99,-53.44 -49.32,-86.31 -4.09,-32.87 -12.3,-65.75 -16.42,-106.85zm160.29 201.39c8.22,4.12 16.43,12.33 24.67,16.43 20.55,12.34 36.98,16.44 57.53,12.34 20.55,-4.12 32.89,-16.44 41.11,-32.89 8.21,-16.43 12.33,-32.88 8.21,-49.32 -4.11,-16.43 -16.43,-28.76 -32.88,-36.98 -16.44,-8.22 -32.89,-12.34 -49.32,-8.22 -16.44,4.12 -28.77,16.44 -41.1,32.89 -4.12,8.21 -8.22,16.43 -8.22,28.76 0,8.22 0,20.55 0,36.99z"/>
  <path class="fil0" d="M12482.21 12790.58c16.44,-32.88 49.32,-49.32 94.53,-49.32 45.2,0 90.42,12.34 143.84,41.1 53.43,28.77 86.3,65.76 106.85,102.76 20.55,36.98 20.55,73.99 4.12,106.85 -20.55,32.89 -49.32,49.32 -94.52,53.44 -45.21,0 -90.42,-12.33 -143.84,-41.1 -53.44,-28.77 -86.31,-65.76 -106.86,-102.76 -20.55,-41.1 -20.55,-78.08 -4.12,-110.97zm49.32 24.67l0 0c-12.33,20.55 -8.21,41.1 8.22,65.75 16.44,24.67 45.2,49.32 82.2,69.87 41.11,24.67 73.99,36.99 102.76,36.99 28.77,4.11 49.32,-4.12 61.65,-24.67 12.34,-20.55 8.22,-41.1 -8.22,-65.75 -16.43,-24.67 -45.2,-49.32 -82.2,-69.87 -41.1,-24.67 -73.99,-36.99 -102.75,-36.99 -32.89,0 -53.44,8.23 -61.66,24.67z"/>
  <path class="fil0" d="M17315.49 4648.83l12.33 -20.55 189.06 110.97 20.55 -36.98 41.1 24.66 -20.55 36.99 110.97 65.75 -28.77 49.32 -110.97 -65.75 -82.2 143.84 -20.55 -12.33 -110.97 -295.92zm172.6 135.62l-98.63 -57.53 53.43 135.62 45.2 -78.09z"/>
  <path class="fil0" d="M17430.56 4447.44c16.43,-32.89 49.32,-49.32 94.52,-49.32 45.2,0 90.42,12.33 143.84,41.1 53.44,28.77 86.31,65.75 106.86,102.76 20.55,36.98 20.55,73.98 4.11,106.85 -20.55,32.89 -49.32,49.32 -94.52,53.44 -45.2,0 -90.42,-12.34 -143.84,-41.11 -53.44,-28.76 -86.3,-65.75 -106.86,-102.75 -24.66,-41.1 -24.66,-78.09 -4.11,-110.97zm45.22 28.77l0 0c-12.34,20.55 -8.22,41.1 8.21,65.75 16.44,24.67 45.21,49.32 82.21,69.87 41.1,24.67 73.98,36.99 102.75,36.99 28.77,4.11 49.32,-4.12 61.65,-24.67 12.34,-20.55 8.22,-41.1 -8.21,-65.76 -16.44,-24.66 -45.21,-49.31 -82.21,-69.87 -41.1,-24.66 -73.98,-36.98 -102.75,-36.98 -32.89,0.01 -53.44,8.23 -61.65,24.67z"/>
  <path class="fil0" d="M11516.38 11574.05l12.34 -20.55 189.06 110.98 20.55 -36.99 41.1 24.67 -20.55 36.98 110.97 65.76 -28.77 49.32 -110.97 -65.76 -82.2 143.84 -20.55 -12.33 -110.98 -295.92zm172.61 135.63l-98.64 -57.54 53.44 135.63 45.2 -78.09z"/>
  <path class="fil0" d="M11627.36 11376.78c16.43,-32.89 49.31,-49.32 94.52,-49.32 45.2,0 90.42,12.33 143.84,41.1 53.43,28.77 86.3,65.75 106.85,102.76 20.55,36.98 20.55,73.98 4.12,106.85 -20.55,32.89 -49.32,49.32 -94.52,53.44 -45.2,0 -90.42,-12.34 -143.84,-41.11 -53.44,-28.76 -86.31,-65.75 -106.86,-102.75 -20.56,-45.22 -20.56,-78.1 -4.11,-110.97zm49.31 24.65l0 0c-12.33,20.55 -8.21,41.1 8.22,65.75 16.44,24.67 45.2,49.32 82.21,69.87 41.1,24.67 73.98,36.99 102.75,36.99 28.77,4.12 49.32,-4.12 61.65,-24.67 12.34,-20.55 8.22,-41.1 -8.21,-65.75 -16.44,-24.67 -45.21,-49.32 -82.21,-69.87 -41.1,-24.67 -73.98,-36.99 -102.75,-36.99 -32.89,0.02 -53.44,8.24 -61.66,24.67z"/>
  <path class="fil0" d="M18421.06 6333.9l73.98 -127.41 45.21 28.77 -123.31 213.71 -4.12 0 -12.33 -32.88c-20.55,-53.44 -41.1,-98.64 -57.54,-135.63 -16.43,-32.88 -28.76,-57.53 -41.1,-73.98 -12.33,-12.34 -24.67,-24.67 -36.98,-32.89 -20.55,-12.33 -36.99,-16.43 -57.54,-12.33 -20.55,4.1 -32.88,16.43 -41.1,32.88 -8.22,12.34 -12.34,28.77 -12.34,45.2 0,16.44 4.12,36.99 12.34,53.44l-61.65 -36.99c-8.22,-36.98 0,-73.98 16.43,-98.63 16.43,-28.77 41.1,-49.32 73.99,-57.54 32.88,-8.22 61.65,-4.12 90.42,16.43 12.33,8.22 28.77,20.56 41.1,32.89 12.33,12.33 24.67,32.88 36.98,57.54 12.34,24.66 28.77,61.65 45.21,110.97l12.35 16.45z"/>
  <path class="fil0" d="M18281.32 5885.91c16.43,-32.89 49.32,-49.32 94.52,-49.32 45.2,0 90.42,12.33 143.84,41.1 53.43,28.77 86.3,65.76 106.85,102.76 20.56,36.98 20.56,73.98 4.12,106.85 -20.55,32.89 -49.32,49.32 -94.52,53.44 -45.2,0 -90.42,-12.34 -143.84,-41.1 -53.44,-28.77 -86.31,-65.76 -106.86,-102.76 -20.55,-41.1 -20.55,-78.09 -4.11,-110.97zm49.32 28.77l0 0c-12.34,20.55 -8.22,41.1 8.21,65.75 16.44,24.67 45.21,49.32 82.21,69.87 41.1,24.67 73.98,36.99 102.75,36.99 28.77,4.11 49.32,-4.12 61.65,-24.67 12.34,-20.55 8.22,-41.1 -8.21,-65.75 -16.44,-24.67 -45.21,-49.32 -82.21,-69.87 -41.1,-24.67 -73.98,-36.99 -102.75,-36.99 -32.89,0.02 -53.44,8.23 -61.65,24.67z"/>
  <path class="fil0" d="M10916.34 10320.53l73.98 -127.41 45.21 28.77 -123.31 213.71 -4.12 0 -12.33 -32.89c-20.55,-53.43 -41.1,-98.63 -57.54,-135.62 -16.43,-32.88 -28.76,-57.54 -41.1,-73.99 -12.33,-12.33 -24.66,-24.66 -36.98,-32.88 -20.55,-12.33 -36.99,-16.43 -57.54,-12.33 -20.55,4.1 -32.88,16.43 -41.1,32.88 -8.22,12.33 -12.33,28.77 -12.33,45.2 0,16.44 4.11,36.99 12.33,53.44l-61.65 -36.99c-8.22,-36.98 0,-73.98 16.43,-98.63 16.44,-28.77 41.1,-49.32 73.99,-57.54 32.88,-8.22 61.65,-4.12 90.42,16.43 12.33,8.22 28.77,20.55 41.1,32.89 12.33,12.33 24.67,32.88 36.99,57.53 12.33,24.67 28.76,61.66 45.2,110.98l12.35 16.45z"/>
  <path class="fil0" d="M10776.6 9872.54c16.43,-32.89 49.32,-49.32 94.52,-49.32 45.2,0 90.42,12.33 143.84,41.1 53.44,28.77 86.3,65.75 106.86,102.76 20.55,36.98 20.55,73.98 4.11,106.85 -20.55,32.89 -49.32,49.32 -94.52,53.44 -45.2,0 -90.42,-12.34 -143.84,-41.11 -53.44,-28.76 -86.31,-65.75 -106.86,-102.75 -24.66,-41.1 -24.66,-78.09 -4.11,-110.97zm45.2 28.77l0 0c-12.33,20.55 -8.22,41.1 8.22,65.75 16.43,24.67 45.2,49.32 82.2,69.87 41.1,24.67 73.99,36.99 102.76,36.99 28.76,4.11 49.31,-4.12 61.65,-24.67 12.33,-20.55 8.22,-41.1 -8.22,-65.76 -16.43,-24.66 -45.2,-49.31 -82.2,-69.87 -41.1,-24.66 -73.99,-36.98 -102.76,-36.98 -32.88,0.01 -53.43,4.12 -61.65,24.67z"/>
  <path class="fil0" d="M6013.2 18811.63c24.66,-16.44 53.43,-16.44 86.3,-8.22 28.77,8.22 53.44,28.77 69.87,57.54 16.44,28.76 20.55,57.53 12.33,86.3 -8.21,28.77 -24.66,53.44 -49.31,69.87 -28.77,16.44 -61.66,16.44 -98.64,0 0,41.1 -16.44,73.99 -53.44,94.52 -28.77,16.44 -57.53,20.55 -86.3,8.22 -28.77,-8.22 -53.44,-28.77 -73.99,-61.65 -16.43,-32.89 -24.67,-61.66 -16.43,-94.52 8.21,-32.89 24.66,-57.54 53.43,-69.87 32.89,-20.56 69.87,-20.56 106.86,0 4.11,-20.56 8.21,-36.99 16.43,-49.32 4.12,-12.32 16.44,-24.66 32.89,-32.87zm-65.77 250.71l4.11 -4.12c16.44,-8.21 24.67,-20.55 28.77,-36.98 4.12,-16.44 0,-32.89 -8.22,-53.44 -8.21,-16.43 -24.66,-28.77 -41.1,-32.88 -16.43,-4.12 -32.88,-4.12 -49.32,4.11 -16.43,8.22 -24.66,20.55 -28.76,36.99 -4.11,16.43 0,32.88 12.33,53.43 8.22,16.44 20.55,28.77 36.98,32.89 16.44,4.12 32.89,8.22 45.21,0zm152.07 -94.54c16.44,-8.22 24.67,-20.55 28.77,-36.98 4.12,-16.44 0,-32.89 -8.22,-45.21 -8.22,-16.43 -20.55,-24.66 -36.98,-28.76 -16.44,-4.11 -28.77,-4.12 -45.21,4.11 -12.33,8.22 -24.66,20.55 -28.76,36.99 -4.12,16.43 0,32.88 8.21,45.2 8.22,16.43 20.55,24.67 36.99,28.77 16.43,4.1 32.87,4.1 45.2,-4.12z"/>
  <path class="fil0" d="M6313.21 19107.54c16.44,32.89 16.44,65.76 -4.11,106.86 -20.56,41.1 -57.54,73.98 -106.86,102.75 -53.44,28.77 -98.64,45.2 -143.84,41.1 -45.2,0 -73.99,-20.55 -94.52,-49.32 -20.55,-32.88 -16.44,-69.87 0,-106.85 20.55,-36.99 57.53,-73.99 106.85,-102.76 53.44,-28.76 98.64,-45.2 143.84,-41.1 45.22,0 78.09,16.44 98.64,49.32zm-49.32 28.77l0 0c-12.33,-20.55 -32.88,-28.77 -61.65,-28.77 -28.77,4.12 -61.65,16.44 -102.75,36.99 -41.11,24.66 -69.87,45.2 -86.31,69.87 -16.43,24.66 -20.55,45.2 -8.22,65.75 12.34,20.55 32.89,28.77 61.66,24.67 28.76,-4.12 61.65,-16.44 102.75,-36.99 41.1,-24.66 65.75,-45.2 86.31,-69.87 16.45,-24.66 20.55,-45.22 8.21,-61.65z"/>
  <path class="fil0" d="M23065.27 18811.63c24.67,-16.44 53.43,-16.44 86.3,-8.22 28.77,8.22 53.44,28.77 69.87,57.54 16.44,28.76 20.55,57.53 12.34,86.3 -8.22,28.77 -24.67,53.44 -49.32,69.87 -28.77,16.44 -61.66,16.44 -98.64,0 0,41.1 -16.44,73.99 -53.44,94.52 -28.76,16.44 -57.53,20.55 -86.3,8.22 -28.77,-8.22 -53.44,-28.77 -73.99,-61.65 -16.43,-32.89 -24.66,-61.66 -16.43,-94.52 8.22,-32.89 24.67,-57.54 49.32,-69.87 32.88,-20.56 69.87,-20.56 106.85,0 4.12,-20.56 8.22,-36.99 16.44,-49.32 12.35,-12.32 24.66,-24.66 37,-32.87zm-65.76 250.71l4.12 -4.12c16.44,-8.21 24.67,-20.55 28.77,-36.98 4.1,-16.44 0,-32.89 -8.22,-53.44 -8.22,-16.43 -24.67,-28.77 -41.1,-32.88 -16.43,-4.12 -32.88,-4.12 -49.32,4.11 -16.43,8.22 -24.67,20.55 -28.77,36.99 -4.1,16.43 0,32.88 8.22,53.43 8.22,16.44 20.55,28.77 36.99,32.89 16.43,4.12 36.98,8.22 49.31,0zm156.18 -94.54c16.43,-8.22 24.67,-20.55 28.77,-36.98 4.11,-16.44 0,-32.89 -8.22,-45.21 -8.22,-16.43 -20.55,-24.66 -36.99,-28.76 -16.43,-4.11 -28.76,-4.12 -45.2,4.11 -12.33,8.22 -24.67,20.55 -28.77,36.99 -4.11,16.43 0,32.88 8.22,45.2 8.22,16.43 20.55,24.67 36.99,28.77 16.43,4.1 28.76,4.1 45.2,-4.12z"/>
  <path class="fil0" d="M23365.3 19107.54c16.43,32.89 16.43,65.76 -4.12,106.86 -20.55,41.1 -57.53,73.98 -106.85,102.75 -53.44,28.77 -98.64,45.2 -143.84,41.1 -45.21,-4.1 -73.99,-20.55 -94.53,-49.32 -20.55,-32.88 -16.43,-69.87 0,-106.85 20.56,-36.99 57.54,-73.99 106.86,-102.76 53.44,-28.76 98.64,-45.2 143.84,-41.1 49.32,0 78.09,16.44 98.64,49.32zm-45.22 28.77l0 0c-12.33,-20.55 -32.88,-28.77 -61.65,-28.77 -28.77,4.12 -61.65,16.44 -102.76,36.99 -41.1,24.66 -69.87,45.2 -86.3,69.87 -16.44,24.66 -20.55,45.2 -8.22,65.75 12.34,20.55 32.89,28.77 61.65,24.67 28.77,-4.12 61.66,-16.44 102.76,-36.99 41.1,-24.66 65.75,-45.2 86.3,-69.87 12.34,-24.66 16.44,-45.22 8.22,-61.65z"/>
  <path class="fil0" d="M7887.32 18885.6l8.22 4.11 -20.55 49.32c-32.89,-16.43 -61.65,-28.76 -90.42,-32.88 -28.77,-4.12 -61.66,-4.12 -94.52,0 20.55,12.33 32.88,28.77 45.2,45.2 16.43,28.77 20.55,53.44 12.33,82.21 -8.22,28.76 -24.67,53.43 -53.43,69.87 -28.77,16.43 -57.54,20.55 -90.42,12.33 -32.89,-8.22 -53.44,-28.77 -69.87,-57.54 -16.44,-32.88 -20.56,-65.75 -12.34,-98.64 12.34,-32.88 32.89,-57.53 69.87,-82.2 28.77,-16.43 57.54,-24.67 90.42,-32.88 32.89,-4.12 65.76,-4.12 102.76,0 32.88,16.45 65.77,24.66 102.75,41.1zm-254.81 41.1c-8.22,4.12 -16.44,8.22 -24.67,12.33 -20.55,12.34 -32.88,24.67 -36.98,45.21 -4.12,16.43 -4.12,36.98 8.21,53.43 8.22,16.44 20.55,24.67 36.99,28.77 16.43,4.12 32.88,0 49.32,-8.22 16.43,-8.21 24.67,-20.55 28.77,-41.1 4.11,-16.43 0,-32.88 -8.22,-53.43 -4.12,-8.22 -12.33,-16.44 -16.44,-20.56 -12.33,-4.1 -24.66,-8.21 -36.98,-16.43z"/>
  <path class="fil0" d="M8018.83 19107.54c16.43,32.89 16.43,65.76 -4.12,106.86 -20.55,41.1 -57.53,73.98 -106.85,102.75 -53.44,28.77 -98.64,45.2 -143.84,41.1 -45.21,0 -73.99,-20.55 -94.53,-49.32 -20.55,-32.88 -16.43,-69.87 0,-106.85 20.56,-36.99 57.54,-73.99 106.86,-102.76 53.44,-28.76 98.64,-45.2 143.84,-41.1 49.32,0 82.2,16.44 98.64,49.32zm-45.2 28.77l0 0c-12.34,-20.55 -32.89,-28.77 -61.66,-28.77 -28.76,4.12 -61.65,16.44 -102.75,36.99 -41.1,24.66 -69.87,45.2 -86.31,69.87 -16.43,24.66 -20.55,45.2 -8.21,65.75 12.33,20.55 32.88,28.77 61.65,24.67 28.77,-4.12 61.65,-16.44 102.75,-36.99 41.11,-24.66 65.76,-45.2 86.31,-69.87 16.43,-24.66 20.55,-45.22 8.22,-61.65z"/>
  <path class="fil0" d="M21524.04 18885.6l8.22 4.11 -20.55 49.32c-32.89,-16.43 -61.65,-28.76 -90.42,-32.88 -28.77,-4.12 -61.65,-4.12 -94.52,0 20.55,12.33 32.88,28.77 45.2,45.2 16.43,28.77 20.55,53.44 12.33,82.21 -8.21,28.76 -24.66,53.43 -53.43,69.87 -28.77,16.43 -57.54,20.55 -90.42,12.33 -32.89,-8.22 -53.44,-28.77 -69.87,-57.54 -16.44,-32.88 -20.55,-65.75 -12.34,-98.64 12.34,-32.88 32.89,-57.53 69.87,-82.2 28.77,-16.43 57.54,-24.67 90.42,-32.88 32.89,-8.22 65.76,-4.12 102.76,0 28.78,16.45 65.77,24.66 102.75,41.1zm-254.81 41.1c-8.22,4.12 -16.43,8.22 -24.67,12.33 -20.55,12.34 -32.88,24.67 -36.98,45.21 -4.12,16.43 -4.12,36.98 8.21,53.43 8.22,16.44 20.56,24.67 36.99,28.77 16.43,4.12 32.88,0 49.32,-8.22 16.43,-8.21 24.67,-20.55 28.77,-41.1 4.11,-16.43 0,-32.88 -8.22,-53.43 -4.12,-8.22 -12.33,-16.44 -16.43,-20.56 -4.11,-4.11 -24.66,-8.21 -36.99,-16.43z"/>
  <path class="fil0" d="M21655.57 19107.54c16.43,32.89 16.43,65.76 -4.12,106.86 -20.55,41.1 -57.54,73.98 -106.86,102.75 -53.43,28.77 -98.63,45.2 -143.84,41.1 -45.2,-4.1 -73.98,-20.55 -94.52,-49.32 -20.55,-32.88 -16.43,-69.87 0,-106.85 20.55,-36.99 57.54,-73.99 106.86,-102.76 53.43,-28.76 98.63,-45.2 143.84,-41.1 49.32,0 82.2,16.44 98.64,49.32zm-45.21 28.77l0 0c-12.33,-20.55 -32.88,-28.77 -61.65,-28.77 -28.77,4.12 -61.65,16.44 -102.75,36.99 -41.11,24.66 -69.87,45.2 -86.31,69.87 -16.43,24.66 -20.55,45.2 -8.22,65.75 12.34,20.55 32.89,28.77 61.66,24.67 28.76,-4.12 61.65,-16.44 102.75,-36.99 41.1,-24.66 65.75,-45.2 86.31,-69.87 16.43,-24.66 16.43,-45.22 8.21,-61.65z"/>
  <path class="fil0" d="M9613.49 18910.27l12.33 20.55 -189.06 110.97 20.56 36.98 -41.11 24.67 -20.55 -36.98 -110.97 65.75 -28.77 -49.32 110.97 -65.75 -82.2 -143.84 20.55 -12.34 308.25 49.31zm-205.49 82.2l98.63 -57.54 -143.84 -20.55 45.21 78.09z"/>
  <path class="fil0" d="M9728.56 19107.54c16.44,32.89 16.44,65.76 -4.11,106.86 -20.55,41.1 -57.54,73.98 -106.86,102.75 -53.43,28.77 -98.64,45.2 -143.84,41.1 -45.2,0 -73.99,-20.55 -94.52,-49.32 -20.55,-32.88 -16.44,-69.87 0,-106.85 20.55,-36.99 57.53,-73.99 106.85,-102.76 53.44,-28.76 98.64,-45.2 143.84,-41.1 49.32,0 78.09,16.44 98.64,49.32zm-45.2 28.77l0 0c-12.33,-20.55 -32.88,-28.77 -61.65,-28.77 -28.77,4.12 -61.66,16.44 -102.76,36.99 -41.1,24.66 -69.87,45.2 -86.3,69.87 -16.44,24.66 -20.55,45.2 -8.22,65.75 12.33,20.55 32.89,28.77 61.65,24.67 28.77,-4.12 61.66,-16.44 102.76,-36.99 41.1,-24.66 65.75,-45.2 86.3,-69.87 12.32,-24.66 16.44,-45.22 8.22,-61.65z"/>
  <path class="fil0" d="M19834.88 18910.27l12.33 20.55 -189.06 110.97 20.55 36.98 -41.1 24.67 -20.55 -36.98 -110.97 65.75 -28.77 -49.32 110.97 -65.75 -82.2 -143.84 20.55 -12.34 308.25 49.31zm-209.61 82.2l98.63 -57.54 -143.84 -20.55 45.21 78.09z"/>
  <path class="fil0" d="M19945.83 19107.54c16.44,32.89 16.44,65.76 -4.11,106.86 -20.56,41.1 -57.54,73.98 -106.86,102.75 -53.44,28.77 -98.64,45.2 -143.84,41.1 -45.2,-4.1 -73.99,-20.55 -94.52,-49.32 -20.55,-32.88 -16.44,-69.87 0,-106.85 20.55,-36.99 57.53,-73.99 106.85,-102.76 53.44,-28.76 98.64,-45.2 143.84,-41.1 49.32,0 82.21,16.44 98.64,49.32zm-45.2 28.77l0 0c-12.33,-20.55 -32.89,-28.77 -61.65,-28.77 -28.77,4.12 -61.66,16.44 -102.76,36.99 -41.1,24.66 -69.87,45.2 -86.3,69.87 -16.44,24.66 -20.55,45.2 -8.22,65.75 12.33,20.55 32.88,28.77 61.65,24.67 28.77,-4.12 61.66,-16.44 102.76,-36.99 41.1,-24.66 65.75,-45.2 86.3,-69.87 16.44,-24.66 20.55,-45.22 8.22,-61.65z"/>
  <path class="fil0" d="M10982.09 19004.79l73.99 127.4 -45.21 28.77 -123.3 -213.71 4.12 0 36.98 8.22c57.54,8.22 106.86,16.43 143.84,16.43 36.99,0 65.76,4.12 82.21,0 16.43,-4.11 32.88,-8.21 45.2,-16.43 20.55,-12.34 32.88,-24.67 36.98,-41.1 4.12,-16.44 4.12,-36.99 -8.21,-53.44 -8.22,-12.33 -20.55,-24.67 -36.99,-32.88 -16.43,-8.22 -32.88,-12.34 -53.43,-16.44l61.65 -36.98c36.98,12.33 61.65,36.98 78.09,61.65 16.43,28.77 20.55,61.65 12.33,90.42 -8.22,28.77 -28.77,53.44 -57.54,73.99 -12.33,8.21 -28.77,12.33 -49.32,16.43 -20.55,4.1 -41.1,4.12 -69.87,4.12 -28.76,0 -65.75,-4.12 -119.19,-12.34l-12.33 -4.11z"/>
  <path class="fil0" d="M11438.3 19107.54c16.43,32.89 16.43,65.76 -4.12,106.86 -20.55,41.1 -57.54,73.98 -106.86,102.75 -53.43,28.77 -98.63,45.2 -143.84,41.1 -45.2,0 -73.98,-20.55 -94.52,-49.32 -20.55,-32.88 -16.43,-69.87 0,-106.85 20.55,-36.99 57.54,-73.99 106.86,-102.76 53.43,-28.76 98.64,-45.2 143.84,-41.1 45.2,0 78.09,16.44 98.64,49.32zm-45.22 28.77l0 0c-12.34,-20.55 -32.89,-28.77 -61.65,-28.77 -28.77,4.12 -61.66,16.44 -102.76,36.99 -41.1,24.66 -69.87,45.2 -86.3,69.87 -16.44,24.66 -20.55,45.2 -8.22,65.75 12.33,20.55 32.88,28.77 61.65,24.67 28.77,-4.12 61.65,-16.44 102.76,-36.99 41.1,-24.66 65.75,-45.2 86.3,-69.87 12.33,-24.66 16.45,-45.22 8.22,-61.65z"/>
  <path class="fil0" d="M17784.01 19004.79l73.99 127.4 -45.21 28.77 -123.3 -213.71 4.11 0 36.99 8.22c57.54,8.22 106.85,16.43 143.84,16.43 36.99,0 65.75,4.12 82.2,0 16.44,-4.11 32.89,-8.21 45.21,-16.43 20.55,-12.34 32.88,-24.67 36.98,-41.1 4.12,-16.44 4.12,-36.99 -8.22,-53.44 -8.21,-12.33 -20.55,-24.67 -36.98,-32.88 -16.44,-8.22 -32.89,-12.34 -53.44,-16.44l61.66 -36.98c36.98,12.33 61.65,36.98 78.08,61.65 16.44,28.77 20.55,61.65 12.34,90.42 -8.22,28.77 -28.77,53.44 -57.54,73.99 -12.33,8.21 -28.77,12.33 -49.32,16.43 -20.55,4.1 -41.1,4.12 -69.87,4.12 -28.77,0 -65.75,-4.12 -119.19,-12.34l-12.33 -4.11z"/>
  <path class="fil0" d="M18240.21 19107.54c16.44,32.89 16.44,65.76 -4.11,106.86 -20.55,41.1 -57.54,73.98 -106.86,102.75 -53.43,28.77 -98.64,45.2 -143.84,41.1 -45.2,-4.1 -73.98,-20.55 -94.52,-49.32 -20.55,-32.88 -16.43,-69.87 0,-106.85 20.55,-36.99 57.54,-73.99 106.86,-102.76 53.43,-28.76 98.63,-45.2 143.84,-41.1 45.21,0 78.08,16.44 98.63,49.32zm-45.2 28.77l0 0c-12.33,-20.55 -32.88,-28.77 -61.65,-28.77 -28.77,4.12 -61.65,16.44 -102.76,36.99 -41.1,24.66 -69.87,45.2 -86.3,69.87 -16.43,24.66 -20.55,45.2 -8.22,65.75 12.34,20.55 32.89,28.77 61.66,24.67 28.76,-4.12 61.65,-16.44 102.75,-36.99 41.1,-24.66 65.75,-45.2 86.3,-69.87 12.32,-24.66 16.44,-45.22 8.22,-61.65z"/>
  <path class="fil0" d="M10665.63 4176.19l-45.21 24.67c-28.77,16.43 -49.32,24.67 -69.87,24.67 -20.55,0 -36.98,-4.12 -57.53,-12.34 -28.77,-16.43 -45.21,-36.98 -49.32,-65.75 -4.12,-28.77 0,-57.54 16.43,-86.31 16.44,-28.76 41.1,-49.32 69.87,-65.75l53.44 32.88c-36.99,12.34 -65.76,28.77 -82.21,57.54 -8.21,16.44 -12.33,32.89 -12.33,45.2 0,16.44 8.22,24.67 20.55,32.89 8.22,4.11 20.55,8.22 36.99,4.11 16.43,-4.1 28.76,-8.21 49.32,-20.55l45.2 -24.66c49.32,-28.77 90.42,-28.77 131.52,-8.22 28.77,16.43 45.2,36.98 49.32,65.75 4.12,28.77 0,57.54 -16.43,86.31 -20.56,32.88 -49.32,57.53 -82.21,73.98l-61.65 -36.98c49.32,-8.22 82.2,-28.77 102.75,-61.65 8.22,-16.44 12.34,-28.77 8.22,-45.21 -4.12,-16.43 -12.33,-24.66 -24.67,-32.88 -16.43,-12.37 -45.2,-8.25 -82.18,12.3z"/>
  <path class="fil0" d="M10640.97 3748.75c28.77,-53.43 73.99,-86.3 127.41,-102.75 53.44,-16.44 106.86,-8.22 156.17,20.55 49.32,28.77 82.21,69.87 94.53,123.31 12.33,53.43 4.11,106.85 -28.77,160.29 -28.77,49.32 -69.87,86.3 -123.31,98.63 -53.43,16.44 -102.75,8.22 -152.07,-20.55 -49.32,-28.76 -82.2,-69.87 -94.52,-123.3 -16.44,-49.32 -8.2,-102.74 20.56,-156.18zm49.32 24.67c-20.55,36.99 -28.77,78.09 -20.55,115.07 8.22,41.11 32.89,69.87 69.87,90.42 36.99,20.56 73.99,24.67 115.07,16.44 36.99,-12.33 69.87,-36.99 90.43,-73.99 20.55,-36.98 28.76,-78.08 16.43,-115.07 -8.22,-41.1 -32.88,-69.87 -69.87,-90.42 -36.99,-20.55 -73.99,-24.67 -110.97,-16.44 -36.99,12.34 -69.86,36.99 -90.41,73.99z"/>
  <path class="fil0" d="M11130.05 3617.23l8.22 -12.33 110.97 65.75 12.33 -20.55 24.67 12.33 -12.34 20.55 65.76 36.99 -16.44 28.77 -65.75 -36.99 -49.32 82.21 -12.33 -8.22 -65.77 -168.51zm102.75 82.2l-57.53 -32.88 32.88 78.09 24.65 -45.21z"/>
  <polygon class="fil0" points="11286.22,3300.77 11187.58,3243.23 11130.05,3341.87 11088.95,3317.2 11146.48,3218.56 11047.84,3161.03 11072.51,3119.92 11171.15,3177.46 11228.69,3078.82 11269.79,3103.49 11212.25,3202.13 11310.89,3259.66 "/>
  <path class="fil0" d="M11631.46 2651.4l53.43 32.88c0,45.21 -16.43,94.53 -41.1,139.74 -20.55,36.99 -49.32,65.76 -78.09,82.21 -28.77,16.45 -61.65,24.67 -98.64,24.67 -36.98,0 -69.87,-8.22 -98.63,-28.77 -49.32,-28.77 -82.21,-69.87 -94.53,-123.31 -12.31,-53.43 -4.11,-106.85 24.67,-160.29 20.55,-36.98 53.44,-69.87 98.64,-102.75l53.44 28.76c-45.21,24.67 -78.09,57.54 -102.76,98.64 -20.55,36.99 -28.77,78.09 -20.55,119.19 8.22,41.1 32.88,69.87 69.87,90.42 36.99,20.55 73.99,24.67 115.07,16.44 36.99,-12.34 69.87,-36.99 90.42,-78.09 20.54,-36.99 28.76,-86.3 28.76,-139.74z"/>
  <polygon class="fil0" points="11401.31,2445.91 11425.98,2400.7 11767.1,2597.98 11742.43,2643.18 "/>
  <line class="fil1" x1="11269.79" y1="4180.29" x2="11939.7" y2= "3021.3" />
  <line class="fil1 str1" x1="11269.79" y1="4180.29" x2="11882.17" y2= "3119.94" />
  <polygon class="fil0" points="11873.95,3395.3 11832.85,3391.19 11882.17,3124.04 11676.67,3296.66 11647.91,3267.9 11939.7,3021.3 "/>
  <polygon class="fil0" points="4521.29,14044.11 4545.96,13998.91 4887.07,14196.18 4858.31,14245.5 4595.28,14093.43 4665.15,14274.27 4661.03,14282.49 4467.85,14311.26 4730.88,14463.33 4702.12,14512.65 4361,14315.37 4385.67,14270.17 4591.16,14237.29 "/>
  <path class="fil0" d="M4772 14056.44c-24.67,-12.33 -36.98,-32.88 -41.1,-57.53 -4.12,-24.65 4.12,-53.44 20.55,-82.21l53.44 -90.42 32.88 20.55 -24.67 45.21c12.34,-4.12 24.67,-4.12 32.89,-4.12 8.22,0 20.55,4.12 28.77,8.22 12.33,8.21 20.55,16.43 28.76,28.77 8.22,12.33 12.34,28.76 12.34,41.1 0,12.33 -4.12,32.88 -16.44,61.65 -8.21,16.43 -8.21,28.77 4.12,36.99 4.12,4.11 12.33,4.11 16.43,0 8.22,-4.12 16.44,-12.34 28.77,-28.77 20.55,-24.67 36.99,-36.99 45.21,-45.21 8.21,-4.11 16.43,-8.21 28.76,-12.33 16.44,-4.12 32.89,-4.12 49.32,8.22 20.55,12.33 32.89,32.88 32.89,57.53 0,24.67 -8.22,53.44 -24.67,86.31 -16.43,32.88 -41.1,53.43 -61.65,65.75 -24.67,12.34 -45.21,12.34 -65.76,0 -28.76,-16.43 -41.1,-49.32 -24.66,-90.42 -16.44,8.22 -32.89,12.34 -41.11,4.12 -8.21,-4.12 -12.33,-12.34 -12.33,-20.55 0,-8.22 0,-20.55 4.12,-32.89 -41.1,16.47 -73.99,16.47 -106.86,0.03zm8.22 -106.85c-8.22,12.33 -8.22,24.67 -4.12,36.98 4.1,12.32 12.34,24.67 20.55,28.77 12.34,8.22 24.67,8.22 36.99,4.12 12.32,-4.1 20.55,-12.34 28.77,-24.67 8.21,-12.33 8.21,-24.67 8.21,-36.98 -4.11,-12.34 -8.21,-20.56 -20.55,-28.77 -12.33,-8.22 -24.66,-8.22 -36.98,-4.12 -12.32,4.12 -24.65,12.33 -32.87,24.67zm189.06 123.29c-8.22,16.43 -12.34,28.77 -12.34,41.1 0,12.33 8.22,20.55 16.44,28.77 24.67,12.33 45.2,0 69.87,-41.1 12.33,-20.55 16.43,-36.99 16.43,-49.32 0,-12.34 -4.11,-24.67 -16.43,-28.77 -12.33,-4.12 -24.67,-4.12 -36.99,4.12 -8.21,8.21 -20.55,24.65 -36.98,45.2z"/>
  <line class="fil1" x1="4936.39" y1="15018.17" x2="5606.31" y2= "13855.05" />
  <line class="fil1 str1" x1="4936.39" y1="15018.17" x2="5548.77" y2= "13957.81" />
  <polygon class="fil0" points="5540.56,14233.17 5499.45,14224.95 5548.77,13961.92 5343.28,14134.53 5314.51,14101.65 5606.31,13855.05 "/>
  <path class="fil0" d="M17664.84 2852.79l-53.44 32.89c-41.1,-24.67 -73.99,-61.66 -98.64,-106.86 -20.55,-36.98 -32.88,-73.98 -32.88,-110.97 0,-36.99 8.21,-69.87 28.77,-98.64 16.43,-32.88 41.1,-53.43 73.98,-73.98 49.32,-28.77 102.76,-32.89 156.18,-20.56 53.43,16.44 94.52,49.32 127.4,102.76 20.55,36.98 32.89,82.2 41.1,135.62l-53.43 28.77c0,-53.43 -12.33,-98.64 -32.89,-135.62 -20.55,-36.99 -53.43,-65.76 -94.52,-73.99 -41.1,-12.33 -78.08,-8.22 -115.07,16.44 -36.99,20.55 -61.65,53.43 -69.87,90.42 -8.22,41.1 -4.12,78.08 20.55,119.19 20.55,37 57.54,69.87 102.76,94.53z"/>
  <path class="fil0 str0" d="M17833.33 3017.18l-94.52 53.44c-8.22,4.12 -8.22,8.22 -8.22,12.33 4.12,4.12 12.33,12.34 24.67,16.44l-28.77 16.43c-12.34,-8.21 -20.55,-12.33 -28.77,-16.43 -4.12,-4.12 -12.33,-12.34 -16.43,-16.44 -12.34,-20.55 -8.22,-32.88 4.11,-45.2 -24.67,-12.33 -45.2,-24.67 -57.53,-49.32 -8.22,-16.43 -12.34,-32.88 -8.22,-49.32 4.11,-16.43 12.33,-28.77 28.77,-36.98 12.33,-8.22 28.76,-12.34 45.2,-8.22 16.43,4.12 32.88,12.33 49.32,28.77l53.43 45.2 12.34 -8.22c28.77,-16.43 32.88,-36.98 16.43,-61.65 -12.33,-24.67 -41.1,-41.1 -78.09,-49.32l49.32 -28.77c28.77,4.12 53.44,24.67 73.99,57.54 12.33,24.67 20.55,45.2 16.43,69.87 0,8.22 -4.11,16.43 -8.21,20.55 -4.12,8.22 -8.22,12.33 -16.44,20.55 4.07,8.2 -8.26,16.42 -28.81,28.75zm-115.07 8.22l65.75 -36.98 -28.77 -24.67c-16.43,-12.33 -28.77,-20.55 -36.98,-20.55 -8.22,-4.12 -20.56,0 -28.77,4.11 -8.22,4.12 -16.44,12.34 -16.44,20.56 -4.11,8.21 0,20.55 4.12,28.76 8.2,12.34 20.53,24.67 41.09,28.77z"/>
  <polygon class="fil0 str0" points="17931.97,3366.53 18030.6,3309 17973.07,3210.36 18014.17,3185.69 18071.71,3284.33 18170.34,3226.79 18195.01,3267.9 18096.37,3325.43 18153.91,3424.07 18112.81,3448.74 18055.27,3350.1 17956.63,3407.64 "/>
  <polygon class="fil0" points="18569.01,3814.51 18593.68,3859.71 18252.56,4056.99 18223.8,4007.67 18486.83,3855.59 18293.67,3826.83 18289.55,3818.61 18359.42,3637.77 18096.39,3789.84 18067.62,3740.52 18408.74,3543.24 18433.41,3588.45 18359.42,3781.61 "/>
  <path class="fil0" d="M18433.39 4028.23c24.67,-12.33 49.32,-16.43 69.87,-8.21 24.67,8.21 45.2,28.76 61.65,57.53l53.44 90.42 -32.89 20.55 -24.66 -45.2c-4.12,12.34 -8.22,24.67 -12.34,32.89 -4.11,8.21 -12.33,12.33 -20.55,20.55 -12.33,8.21 -24.67,8.21 -41.1,8.21 -16.43,0 -28.77,-4.11 -41.1,-12.33 -12.34,-8.22 -28.77,-20.55 -45.2,-41.1 -12.34,-16.44 -24.67,-20.55 -32.89,-16.44 -4.12,4.12 -8.22,8.22 -8.22,16.44 0,8.22 4.12,20.55 8.22,41.1 8.22,32.89 16.44,49.32 16.44,61.65 0,8.22 0,20.55 -4.12,28.77 -4.12,16.44 -16.44,28.77 -32.89,41.1 -20.55,12.34 -45.2,12.34 -65.75,0 -24.67,-12.33 -45.2,-32.88 -61.65,-65.75 -16.44,-32.88 -28.77,-61.65 -24.67,-86.3 0,-24.67 12.33,-45.21 32.89,-57.54 28.76,-16.44 61.65,-8.22 90.42,20.55 0,-20.55 4.11,-32.88 16.43,-36.99 8.22,-4.11 16.44,-4.11 24.67,0 8.22,4.12 20.55,8.22 28.77,16.44 0.01,-37.02 12.35,-69.9 45.23,-86.34zm-115.09 164.4c-8.22,-16.44 -20.55,-24.67 -28.77,-32.89 -12.33,-4.12 -24.66,-4.12 -32.88,0 -24.67,12.33 -20.55,41.1 0,82.2 12.33,20.56 24.67,32.89 36.98,41.11 12.34,8.21 24.67,8.21 32.89,0 12.33,-4.12 16.43,-16.44 12.33,-36.99 -4.1,-20.55 -8.21,-32.88 -20.55,-53.43zm201.39 -102.76c-8.21,-12.33 -16.43,-20.55 -28.76,-24.67 -12.34,-4.11 -24.67,-4.11 -36.99,4.12 -12.33,8.22 -20.55,16.43 -20.55,28.77 -4.12,12.33 0,24.67 8.22,36.98 8.21,12.34 16.43,20.55 28.77,24.67 12.33,4.12 24.66,4.12 36.98,-4.12 12.33,-8.21 20.55,-16.43 20.55,-28.76 0,-12.32 0,-24.66 -8.22,-36.99z"/>
  <line class="fil1" x1="17973.07" y1="4180.29" x2="17303.15" y2= "3021.3" />
  <line class="fil1 str1" x1="17973.07" y1="4180.29" x2="17360.69" y2= "3119.94" />
  <polygon class="fil0 str0" points="17594.97,3267.9 17566.2,3296.66 17360.69,3124.04 17410.01,3391.19 17368.92,3395.3 17303.15,3021.3 "/>
  <path class="fil0" d="M24376.33 13990.69l0 -49.32c0,-32.88 4.12,-57.54 12.34,-73.99 8.21,-16.43 20.55,-32.88 36.98,-41.1 28.77,-16.43 53.44,-20.55 82.21,-8.21 28.76,8.21 49.31,28.76 65.75,57.53 16.43,28.77 24.67,57.54 20.55,90.42l-53.44 32.89c8.22,-36.99 4.12,-69.87 -8.21,-98.64 -8.22,-16.44 -20.55,-28.77 -32.89,-32.89 -12.33,-4.11 -24.66,-4.11 -36.98,0 -8.22,4.12 -16.44,16.44 -20.55,28.77 -4.12,12.34 -8.22,28.77 -8.22,53.44l0 49.32c0,57.53 -20.55,94.52 -57.54,115.07 -28.77,16.43 -53.43,20.55 -82.2,12.33 -28.77,-8.21 -49.32,-28.76 -65.75,-57.53 -20.56,-32.89 -28.77,-69.87 -20.56,-110.97l61.66 -36.99c-16.44,45.2 -16.44,86.3 4.11,119.19 8.22,16.43 20.55,24.67 32.89,28.77 12.33,4.11 28.77,4.11 41.1,-4.12 16.42,-8.22 28.75,-32.87 28.75,-73.97z"/>
  <path class="fil0" d="M24758.55 14183.85c28.77,53.44 36.99,106.86 24.67,160.29 -12.33,53.44 -45.2,94.52 -94.52,123.31 -49.32,28.76 -102.76,36.98 -156.18,20.55 -53.43,-16.44 -94.52,-49.32 -127.4,-106.86 -28.77,-49.32 -36.99,-102.75 -24.67,-156.17 12.33,-53.44 45.2,-94.52 94.52,-123.31 49.32,-28.77 102.76,-36.98 156.18,-20.55 53.43,16.44 98.63,49.32 127.4,102.74zm-45.2 28.77c-20.55,-36.99 -53.44,-65.76 -90.42,-73.99 -36.99,-12.33 -78.09,-4.11 -115.07,16.44 -36.99,20.55 -61.66,49.32 -69.87,90.42 -8.22,41.1 -4.12,78.08 16.43,115.07 20.55,36.99 53.44,61.65 90.42,73.99 41.1,12.33 78.09,4.11 115.07,-16.44 36.99,-20.55 57.54,-49.32 69.87,-90.42 8.22,-41.09 4.12,-78.09 -16.43,-115.07z"/>
  <path class="fil0" d="M24627.04 14672.94l8.22 12.33 -110.97 65.76 12.33 20.55 -24.66 12.33 -12.34 -20.55 -65.75 36.99 -16.44 -28.77 65.76 -36.99 -49.32 -82.2 12.33 -8.22 180.84 28.77zm-119.18 49.32l57.53 -32.89 -82.2 -12.33 24.67 45.22z"/>
  <line class="fil1" x1="24364" y1="15067.49" x2="23689.98" y2= "13904.37" />
  <line class="fil1 str1" x1="24364" y1="15067.49" x2="23751.62" y2= "14007.12" />
  <polygon class="fil0" points="23985.9,14150.97 23957.13,14179.75 23751.62,14007.12 23796.84,14274.27 23759.85,14282.49 23689.98,13904.37 "/>
  <path class="fil0" d="M8655.88 20258.32l0 61.65c-41.11,20.55 -90.42,32.88 -143.84,32.88 -45.21,0 -82.21,-8.21 -110.98,-24.66 -28.76,-16.45 -53.43,-41.11 -73.98,-73.99 -20.55,-32.89 -24.67,-65.75 -24.67,-98.64 0,-57.54 20.55,-106.85 61.65,-143.84 41.1,-36.99 90.42,-57.54 152.08,-57.54 41.1,0 86.3,12.34 135.62,32.89l0 61.65c-45.2,-24.67 -90.42,-41.1 -135.62,-41.1 -45.21,0 -82.21,12.33 -110.98,41.1 -28.76,28.77 -45.2,65.75 -45.2,106.86 0,41.1 16.44,78.08 45.2,106.85 28.77,28.77 65.76,41.1 110.98,41.1 49.32,-4.11 94.52,-16.45 139.74,-45.21z"/>
  <path class="fil0" d="M8881.92 20192.56l0 110.97c0,8.22 4.12,12.34 8.22,12.34 8.22,0 16.43,-4.12 28.77,-12.34l0 32.89c-12.34,8.22 -20.55,12.33 -28.77,16.43 -8.22,4.12 -12.34,4.12 -20.55,4.12 -20.55,0 -32.89,-8.22 -36.99,-24.67 -20.55,16.44 -45.2,24.67 -69.87,24.67 -16.43,0 -32.88,-4.12 -45.2,-16.44 -12.33,-12.33 -16.44,-28.76 -16.44,-45.2 0,-16.43 4.12,-32.88 16.44,-45.2 12.33,-12.33 28.77,-24.67 49.32,-28.77l65.75 -20.55 0 -12.33c0,-32.89 -16.43,-45.21 -45.2,-45.21 -28.77,0 -53.44,16.44 -82.2,45.21l0 -57.54c20.55,-24.67 49.31,-36.99 86.3,-36.99 28.77,0 49.32,8.22 65.75,20.56 4.12,4.11 12.34,12.33 16.44,20.55 4.11,8.21 8.22,16.43 8.22,24.66 -4.11,-4.14 0.01,12.29 0.01,32.84zm-53.43 102.76l0 -78.09 -32.89 12.33c-16.43,8.22 -28.77,12.34 -36.98,20.55 -8.22,8.22 -12.34,16.44 -12.34,24.67 0,12.33 4.12,20.55 8.22,24.67 4.1,4.11 16.43,8.22 24.67,8.22 20.55,8.18 37,-0.04 49.32,-12.35z"/>
  <path class="fil0" d="M20644.52 20258.32l0 61.65c-41.11,20.55 -90.42,32.88 -143.84,32.88 -45.21,0 -82.21,-8.21 -110.98,-24.66 -28.76,-16.45 -53.43,-41.11 -73.98,-73.99 -20.55,-32.89 -24.67,-65.75 -24.67,-98.64 0,-57.54 20.55,-106.85 61.65,-143.84 41.1,-36.99 90.42,-57.54 152.08,-57.54 41.1,0 86.3,12.34 135.62,32.89l0 61.65c-45.2,-24.67 -90.42,-41.1 -135.62,-41.1 -45.21,0 -82.21,12.33 -110.98,41.1 -28.76,28.77 -45.2,65.75 -45.2,106.86 0,41.1 16.44,78.08 45.2,106.85 28.77,28.77 65.76,41.1 110.98,41.1 45.21,-4.11 94.53,-16.45 139.74,-45.21z"/>
  <polygon class="fil0" points="20706.17,19954.18 20755.49,19954.18 20755.49,20344.62 20706.17,20344.64 "/>
  <line class="fil1" x1="9280.59" y1="19691.15" x2="7759.92" y2= "19691.15" />
  <line class="fil1 str1" x1="9280.59" y1="19691.15" x2="7874.99" y2= "19691.15" />
  <polygon class="fil0" points="8117.47,19559.63 8129.8,19596.62 7879.1,19691.15 8129.8,19781.57 8117.47,19818.56 7759.92,19691.15 "/>
  <line class="fil1" x1="19801.99" y1="19691.15" x2="21371.98" y2= "19691.15" />
  <line class="fil1 str1" x1="19801.99" y1="19691.15" x2="21256.9" y2= "19691.15" />
  <polygon class="fil0" points="21010.3,19818.56 20997.98,19781.57 21252.8,19691.15 20997.98,19596.62 21010.3,19559.63 21371.98,19691.15 "/>
  <line class="fil1" x1="19197.83" y1="12696.06" x2="18437.49" y2= "14011.24" />
  <line class="fil1 str1" x1="19197.83" y1="12696.06" x2="18499.14" y2= "13912.6" />
  <polygon class="fil0" points="18507.36,13637.24 18544.35,13645.46 18499.14,13908.49 18704.64,13735.88 18733.41,13768.75 18437.49,14011.24 "/>
  <line class="fil1" x1="18174.46" y1="12104.23" x2="17414.12" y2= "13419.41" />
  <line class="fil1 str1" x1="18174.46" y1="12104.23" x2="17471.66" y2= "13320.77" />
  <polygon class="fil0" points="17479.88,13045.41 17520.98,13049.51 17471.66,13316.66 17677.15,13144.05 17705.92,13172.82 17414.12,13419.41 "/>
  <path class="fil0" d="M17726.47 14011.24l53.44 32.89c0,45.2 -16.44,94.52 -41.1,139.74 -20.55,36.98 -49.32,65.75 -78.09,82.2 -28.77,16.43 -61.65,24.67 -98.64,24.67 -36.98,0 -69.87,-8.22 -98.64,-28.77 -49.32,-28.77 -82.2,-69.87 -94.52,-123.31 -12.33,-53.43 -4.12,-106.85 24.67,-160.29 20.55,-36.98 53.43,-69.87 98.64,-102.75l53.43 28.77c-45.2,24.66 -78.09,57.53 -102.75,98.63 -20.55,36.99 -28.77,78.09 -20.55,119.19 8.21,41.1 32.88,69.87 69.87,90.42 36.98,20.55 73.98,24.67 115.07,16.44 36.98,-12.34 69.87,-36.99 90.42,-78.09 20.54,-37 28.75,-86.32 28.75,-139.74z"/>
  <path class="fil0" d="M17590.85 13633.12c28.77,-53.43 73.99,-86.3 127.41,-102.75 53.42,-16.45 106.85,-8.22 156.17,20.55 49.32,28.77 82.2,69.87 94.52,123.3 12.32,53.44 4.12,106.86 -28.77,160.3 -28.76,49.31 -69.87,86.3 -123.3,98.63 -53.44,16.44 -102.76,8.22 -152.08,-20.55 -49.31,-28.77 -82.2,-69.87 -94.52,-123.3 -12.32,-53.44 -12.32,-102.74 20.57,-156.18zm45.2 24.65c-20.55,36.99 -28.77,78.09 -20.55,115.08 8.22,36.98 32.89,69.87 69.87,90.42 36.99,20.55 73.99,24.67 115.07,16.43 41.09,-8.23 69.87,-36.98 90.42,-73.98 20.56,-36.99 28.77,-78.09 16.44,-115.08 -8.22,-41.1 -32.89,-69.87 -69.87,-90.42 -36.99,-20.55 -73.99,-24.66 -110.97,-16.43 -36.97,12.35 -69.86,37 -90.41,73.98z"/>
  <path class="fil0" d="M18133.36 13604.35l0 0c8.22,-12.33 12.33,-24.66 8.22,-32.88 0,-8.22 -8.22,-16.43 -16.44,-20.55 -8.22,-4.12 -16.43,-4.12 -28.77,-4.12 -12.33,0 -16.43,8.22 -20.55,20.55 -4.11,12.34 -8.21,24.67 -8.21,41.11l-28.77 -16.44c0,-16.43 4.11,-28.77 12.33,-41.1 12.33,-16.44 24.67,-28.77 41.1,-32.89 16.44,-4.11 32.89,-4.11 49.32,8.22 8.22,4.12 16.44,12.34 20.55,20.55 4.12,8.22 8.22,16.44 8.22,28.77 8.22,-4.12 16.43,-8.22 20.55,-12.33 8.22,0 12.33,0 20.55,0 8.22,0 16.44,4.11 20.55,8.21 16.44,8.22 28.77,24.67 32.89,41.11 4.11,16.43 0,36.98 -8.22,53.43 -8.22,16.44 -20.55,28.77 -36.99,36.99l-32.88 -16.44c16.43,-8.21 32.88,-20.55 41.1,-36.98 4.12,-8.22 8.22,-20.55 4.12,-28.77 -4.12,-8.22 -8.22,-16.44 -16.44,-20.55 -8.21,-4.12 -16.43,-4.12 -24.66,-4.12 -4.12,0 -8.22,4.12 -12.34,4.12 -4.11,4.11 -8.21,8.22 -16.43,20.55l0 4.12 -28.8 -20.56z"/>
  <polygon class="fil0" points="18232,13185.13 18133.36,13127.6 18075.82,13226.24 18034.72,13201.57 18092.26,13102.93 17993.62,13045.39 18018.29,13004.29 18116.92,13061.83 18174.46,12963.19 18215.56,12987.86 18158.03,13086.5 18256.66,13144.03 "/>
  <polygon class="fil0" points="18285.43,12437.13 18314.2,12387.81 18655.32,12585.09 18626.55,12634.41 18478.59,12548.1 18367.62,12737.16 18515.58,12823.47 18486.81,12872.79 18145.69,12675.51 18174.46,12626.19 18322.42,12712.49 18433.39,12523.44 "/>
  <path class="fil0" d="M18786.84 12174.1l53.44 32.89c0,45.2 -16.44,94.52 -41.11,139.74 -20.55,36.98 -49.31,65.75 -78.08,82.2 -28.77,16.43 -61.66,24.67 -98.64,24.67 -36.99,0 -69.87,-8.22 -98.64,-28.77 -49.32,-28.77 -82.2,-69.87 -94.52,-123.31 -12.33,-53.43 -4.12,-106.85 24.67,-160.29 20.55,-36.98 53.43,-69.87 98.63,-102.75l53.44 28.77c-45.2,24.66 -78.09,57.53 -102.75,98.63 -20.56,36.99 -28.77,78.09 -20.56,119.19 8.22,41.1 32.89,69.87 69.87,90.42 36.99,20.55 73.99,24.67 115.08,16.44 41.08,-8.23 69.87,-36.99 90.42,-78.09 20.53,-41.1 32.85,-86.32 28.75,-139.74z"/>
  <path class="fil0" d="M18651.22 11791.88c28.77,-53.43 73.98,-86.3 127.4,-102.75 53.44,-16.44 106.86,-8.22 156.18,20.55 49.32,28.77 82.2,69.87 94.52,123.3 12.33,53.44 4.12,106.86 -28.77,160.29 -28.77,49.32 -69.87,86.31 -123.3,98.64 -53.44,16.44 -102.76,8.22 -152.08,-20.55 -49.32,-28.77 -82.2,-69.87 -94.52,-123.3 -16.43,-49.32 -8.22,-102.76 20.57,-156.18zm49.32 24.65c-20.55,36.99 -28.77,78.09 -20.55,115.08 8.21,41.1 32.88,69.87 69.87,90.42 36.98,20.55 73.98,24.66 115.07,16.43 41.08,-8.23 69.87,-36.98 90.42,-73.98 20.55,-36.99 28.77,-78.09 16.43,-115.08 -8.21,-41.1 -32.88,-69.87 -69.87,-90.42 -36.98,-20.55 -73.98,-24.67 -110.97,-16.43 -41.08,12.33 -69.87,37 -90.4,73.98z"/>
  <path class="fil0" d="M19197.83 11763.11l0 0c8.22,-12.33 12.33,-24.66 8.22,-32.88 0,-8.22 -8.22,-16.44 -16.44,-20.55 -8.22,-4.12 -16.43,-4.12 -28.77,-4.12 -8.21,4.12 -16.43,8.22 -20.55,20.55 -4.11,12.34 -8.22,24.67 -8.22,41.1l-28.76 -16.43c0,-16.43 4.11,-28.77 12.33,-41.1 12.33,-16.44 24.67,-28.77 41.1,-32.89 16.44,-4.11 32.89,-4.11 49.32,8.22 8.22,4.12 16.44,12.33 20.55,20.55 4.12,8.22 8.22,16.44 8.22,28.77 8.22,-4.12 16.43,-8.22 20.55,-12.33 8.22,0 12.33,0 20.55,0 8.22,0 16.44,4.11 20.55,8.21 16.44,8.22 28.77,24.67 32.89,41.11 4.11,16.43 0,36.98 -8.22,53.43 -8.22,16.44 -20.55,28.77 -36.99,36.99l-32.88 -16.44c16.43,-8.22 32.88,-20.55 41.1,-36.98 4.12,-8.22 8.22,-20.55 4.12,-28.77 -4.1,-8.22 -8.22,-16.44 -16.44,-20.55 -8.21,-4.12 -16.43,-4.12 -24.66,-4.12 -4.12,0 -8.22,4.12 -12.34,4.12 -4.11,4.11 -8.22,8.21 -16.43,20.55l0 4.11 -28.8 -20.55z"/>
  <line class="fil1" x1="11339.66" y1="14270.15" x2="10579.32" y2= "12950.87" />
  <line class="fil1 str1" x1="11282.12" y1="14167.42" x2="10579.32" y2= "12950.87" />
  <polygon class="fil0" points="11273.89,13892.05 11232.8,13900.27 11282.12,14163.3 11076.61,13990.69 11047.84,14023.56 11339.66,14270.15 "/>
  <line class="fil1" x1="12367.14" y1="13674.22" x2="11606.8" y2= "12359.04" />
  <line class="fil1 str1" x1="12309.59" y1="13575.59" x2="11606.8" y2= "12359.04" />
  <polygon class="fil0" points="12301.37,13300.22 12260.27,13304.32 12309.59,13571.47 12104.1,13398.86 12075.33,13431.73 12367.14,13674.22 "/>
  <polygon class="fil0" points="11413.63,12720.71 11438.3,12765.91 11097.18,12963.19 11072.51,12922.09 11204.03,12543.97 10941,12696.04 10916.34,12650.84 11257.45,12453.57 11282.12,12494.67 11150.6,12876.89 "/>
  <path class="fil0" d="M11351.99 13090.61l-94.52 53.44c-8.22,4.11 -8.22,8.22 -8.22,16.43 4.12,4.12 12.34,12.34 24.67,16.44l-28.77 16.43c-12.33,-8.22 -20.55,-12.33 -28.77,-16.43 -4.11,-4.12 -12.33,-12.34 -16.43,-16.44 -12.33,-20.55 -8.22,-32.88 4.12,-45.2 -24.67,-12.33 -45.21,-24.67 -57.54,-49.32 -8.22,-16.43 -12.33,-32.88 -8.22,-49.32 4.12,-16.43 12.34,-28.77 28.77,-36.98 12.33,-8.22 28.77,-12.34 45.2,-8.22 16.44,4.12 32.89,12.33 49.32,28.77l53.44 45.2 12.33 -8.22c28.77,-16.43 32.89,-36.98 16.44,-65.75 -12.34,-24.67 -41.11,-41.1 -78.09,-49.32l49.32 -28.77c28.77,4.12 53.43,24.67 73.98,57.54 12.34,24.67 20.55,45.2 16.44,69.87 0,8.22 -4.12,16.43 -8.22,20.55 -4.12,8.22 -8.22,12.33 -16.43,20.55 4.05,12.32 -8.28,16.42 -28.82,28.75zm-115.09 8.22l65.76 -36.99 -28.77 -24.66c-16.44,-12.34 -28.77,-20.55 -36.99,-20.55 -8.21,-4.12 -20.55,0 -28.76,4.11 -8.22,4.12 -16.44,12.34 -16.44,20.55 -4.12,8.22 0,20.55 4.12,28.77 12.32,16.44 24.65,24.67 41.08,28.77z"/>
  <polygon class="fil0" points="11450.63,13439.96 11549.27,13382.43 11491.73,13283.79 11532.83,13259.12 11590.37,13357.76 11689.01,13300.22 11713.68,13341.32 11615.04,13398.86 11672.57,13497.5 11631.47,13522.17 11573.94,13423.53 11475.3,13481.06 "/>
  <polygon class="fil0" points="12042.46,13809.85 12079.44,13871.5 11832.85,13818.07 11758.86,14105.76 11721.88,14040.01 11787.63,13768.75 11619.12,13867.38 11590.35,13818.07 11931.47,13620.79 11960.24,13670.11 11804.07,13760.53 "/>
  <path class="fil0" d="M21672 12474.12c0,-28.77 12.33,-57.54 32.88,-78.09 20.56,-20.55 49.32,-32.89 86.31,-32.89 32.88,0 61.65,12.34 82.2,32.89 20.55,20.55 32.89,49.32 32.89,78.09 0,36.98 -16.44,65.75 -49.32,86.3 36.98,20.55 53.43,53.44 53.43,94.52 0,32.89 -12.33,57.54 -36.98,82.21 -24.67,20.55 -53.44,32.88 -90.42,32.88 -36.99,0 -65.76,-12.33 -90.42,-32.88 -24.67,-20.55 -36.99,-49.32 -36.99,-82.21 0,-41.1 20.55,-69.87 57.54,-90.42 -16.44,-12.33 -28.77,-28.77 -36.99,-41.1 -0.01,-16.42 -4.13,-32.85 -4.13,-49.3zm184.96 180.84l0 -4.12c0,-16.43 -8.22,-32.88 -20.55,-45.2 -12.34,-12.33 -28.77,-16.44 -49.32,-16.44 -20.55,0 -36.99,4.12 -49.32,16.44 -12.33,12.33 -20.55,24.67 -20.55,45.2 0,20.54 8.22,32.89 20.55,45.2 12.33,12.32 28.77,16.44 49.32,16.44 20.55,0 36.98,-4.12 49.32,-16.44 16.43,-8.2 20.55,-24.65 20.55,-41.08zm-4.12 -176.73c0,-16.43 -4.11,-32.88 -16.43,-41.1 -12.34,-12.33 -24.67,-16.43 -45.21,-16.43 -16.43,0 -32.88,4.11 -45.2,16.43 -12.32,12.32 -16.43,24.67 -16.43,41.1 0,16.44 4.11,28.77 16.43,41.1 12.34,12.34 28.77,16.44 45.2,16.44 16.44,0 32.89,-4.12 45.21,-16.44 12.32,-12.33 16.43,-28.76 16.43,-41.1z"/>
  <path class="fil0" d="M22078.89 12363.16c36.98,0 65.75,20.55 90.42,57.54 24.66,36.98 36.98,86.3 36.98,143.84 0,57.53 -12.33,106.85 -36.98,143.84 -24.67,36.98 -53.44,57.53 -90.42,57.53 -36.99,0 -69.87,-16.43 -90.42,-53.43 -20.56,-37 -32.89,-86.31 -32.89,-143.84 0,-57.54 12.33,-106.86 36.99,-143.84 16.45,-41.09 49.33,-61.64 86.32,-61.64zm0 53.42l0 0c-24.67,0 -41.11,12.33 -53.44,41.1 -12.33,24.67 -20.55,61.65 -20.55,106.86 0,45.2 8.22,82.2 20.55,110.97 12.33,28.77 28.77,41.1 49.32,41.1 20.55,0 36.99,-12.33 53.44,-41.1 16.45,-28.77 20.55,-61.65 20.55,-106.86 0,-45.2 -4.12,-82.2 -16.44,-106.85 -16.45,-28.77 -32.88,-45.22 -53.43,-45.22z"/>
  <path class="fil0" d="M6962.59 12474.12c0,-28.77 12.34,-57.54 32.89,-78.09 20.55,-20.55 49.32,-32.89 86.3,-32.89 32.89,0 61.65,12.34 82.21,32.89 20.55,20.55 32.88,49.32 32.88,78.09 0,36.98 -16.43,65.75 -49.32,86.3 36.99,20.55 53.44,53.44 53.44,94.52 0,32.89 -12.34,57.54 -36.99,82.21 -24.67,20.55 -53.43,32.88 -90.42,32.88 -36.99,0 -65.75,-12.33 -90.42,-32.88 -24.67,-20.55 -36.99,-49.32 -36.99,-82.21 0,-41.1 20.55,-69.87 57.54,-90.42 -16.43,-12.33 -28.77,-28.77 -36.99,-41.1 -4.13,-16.42 -4.13,-32.85 -4.13,-49.3zm184.95 180.84l0 -4.12c0,-16.43 -8.22,-32.88 -20.56,-45.2 -12.33,-12.33 -28.76,-16.44 -49.31,-16.44 -20.56,0 -36.99,4.12 -49.32,16.44 -12.34,12.33 -20.55,24.67 -20.55,45.2 0,20.54 8.21,32.89 20.55,45.2 12.33,12.32 28.76,16.44 49.32,16.44 20.55,0 36.98,-4.12 49.31,-16.44 12.34,-8.2 20.56,-24.65 20.56,-41.08zm-8.22 -176.73c0,-16.43 -4.12,-32.88 -16.44,-41.1 -12.33,-12.33 -24.66,-16.43 -45.2,-16.43 -16.43,0 -32.88,4.11 -45.2,16.43 -12.32,12.32 -16.44,24.67 -16.44,41.1 0,16.44 4.12,28.77 16.44,41.1 12.33,12.34 28.77,16.44 45.2,16.44 16.44,0 32.89,-4.12 45.2,-16.44 12.32,-12.33 16.44,-28.76 16.44,-41.1z"/>
  <path class="fil0" d="M7365.36 12363.16c36.99,0 65.76,20.55 90.42,57.54 24.67,36.98 36.99,86.3 36.99,143.84 0,57.53 -12.33,106.85 -36.99,143.84 -24.66,36.98 -53.43,57.53 -90.42,57.53 -36.98,0 -69.87,-16.43 -90.42,-53.43 -20.55,-37 -32.88,-86.31 -32.88,-143.84 0,-57.54 12.33,-106.86 36.98,-143.84 20.55,-41.09 49.32,-61.64 86.32,-61.64zm4.1 53.42l0 0c-24.66,0 -41.1,12.33 -53.43,41.1 -12.34,24.67 -20.55,61.65 -20.55,106.86 0,45.2 8.21,82.2 20.55,110.97 12.33,28.77 28.77,41.1 49.32,41.1 20.55,0 36.98,-12.33 53.43,-41.1 16.45,-28.77 20.55,-61.65 20.55,-106.86 0,-45.2 -4.11,-82.2 -16.43,-106.85 -20.55,-28.77 -32.89,-45.22 -53.44,-45.22z"/>
  <path class="fil0" d="M22674.83 13887.94l4.12 -4.12 32.88 41.1c-28.77,20.55 -53.43,41.1 -73.98,61.65 -20.55,24.67 -36.99,49.32 -45.21,82.21 20.55,-12.34 41.11,-16.44 61.66,-16.44 32.88,0 57.53,12.34 78.08,32.89 20.55,20.55 32.89,49.32 32.89,82.2 0,32.89 -12.34,61.65 -32.89,82.2 -20.55,20.56 -49.32,32.89 -82.2,32.89 -36.99,0 -65.75,-12.33 -90.42,-36.99 -24.67,-24.66 -32.89,-61.65 -32.89,-102.75 0,-32.89 4.12,-61.65 16.44,-94.52 12.33,-32.89 28.77,-61.66 49.32,-86.31 24.65,-28.8 49.32,-53.46 82.2,-74.01zm-90.42 238.37c0,8.22 -4.12,20.55 -4.12,28.77 0,20.55 8.22,41.1 20.56,53.44 12.33,12.33 28.76,20.55 49.31,20.55 16.44,0 32.89,-4.12 45.21,-16.44 12.33,-12.33 16.43,-28.76 16.43,-45.2 0,-20.55 -8.22,-32.88 -20.55,-45.2 -12.33,-12.34 -28.77,-16.44 -49.32,-16.44 -12.33,0 -20.55,0 -28.77,4.12 -4.1,4.07 -16.42,8.19 -28.75,16.4z"/>
  <path class="fil0" d="M22933.75 13883.83c36.98,0 65.75,20.56 90.42,57.54 24.66,36.99 36.98,86.31 36.98,143.84 0,57.54 -12.33,106.86 -36.98,143.84 -24.67,36.99 -53.44,57.54 -90.42,57.54 -36.99,0 -69.87,-16.44 -90.43,-53.44 -20.55,-37 -32.88,-86.3 -32.88,-143.84 0,-57.53 12.33,-106.85 36.99,-143.84 16.45,-45.2 49.33,-61.64 86.32,-61.64zm0 53.42l0 0c-24.67,0 -41.11,12.34 -53.44,41.11 -12.33,24.66 -20.55,61.65 -20.55,106.85 0,45.2 8.22,82.21 20.55,110.97 12.33,28.77 28.77,41.11 49.32,41.11 20.55,0 36.98,-12.34 53.43,-41.11 16.45,-28.76 20.56,-61.65 20.56,-106.85 0,-45.2 -4.12,-82.21 -16.44,-106.86 -16.43,-32.88 -32.88,-45.22 -53.43,-45.22z"/>
  <path class="fil0" d="M6263.89 13887.94l4.12 -4.12 32.88 41.1c-28.76,20.55 -53.43,41.1 -73.98,61.65 -20.55,24.67 -36.99,49.32 -45.21,82.21 20.56,-12.34 41.11,-16.44 61.66,-16.44 32.88,0 57.53,12.34 78.08,32.89 20.56,20.55 32.89,49.32 32.89,82.2 0,32.89 -12.33,61.65 -32.89,82.2 -20.55,20.56 -49.31,32.89 -82.2,32.89 -36.98,0 -65.75,-12.33 -90.42,-36.99 -24.67,-24.66 -32.88,-61.65 -32.88,-102.75 0,-32.89 4.11,-61.65 16.43,-94.52 12.33,-32.89 28.77,-61.66 49.32,-86.31 20.57,-28.8 49.33,-53.46 82.2,-74.01zm-90.4 238.37c0,8.22 -4.12,20.55 -4.12,28.77 0,20.55 8.22,41.1 20.55,53.44 12.34,12.33 28.77,20.55 49.32,20.55 16.44,0 32.89,-4.12 45.2,-16.44 12.34,-12.33 16.44,-28.76 16.44,-45.2 0,-20.55 -8.22,-32.88 -20.55,-45.2 -12.34,-12.34 -28.77,-16.44 -49.32,-16.44 -12.34,0 -20.55,0 -28.77,4.12 -8.22,4.07 -16.43,8.19 -28.75,16.4z"/>
  <path class="fil0" d="M6522.82 13883.83c36.99,0 65.76,20.56 90.42,57.54 24.67,36.99 36.99,86.31 36.99,143.84 0,57.54 -12.34,106.86 -36.99,143.84 -24.66,36.99 -53.43,57.54 -90.42,57.54 -36.98,0 -69.87,-16.44 -90.42,-53.44 -20.55,-37 -32.88,-86.3 -32.88,-143.84 0,-57.53 12.33,-106.85 36.98,-143.84 16.45,-45.2 45.22,-61.64 86.32,-61.64zm0 53.42l0 0c-24.67,0 -41.1,12.34 -53.43,41.11 -12.34,24.66 -20.55,61.65 -20.55,106.85 0,45.2 8.21,82.21 20.55,110.97 12.33,28.77 28.76,41.11 49.32,41.11 20.55,0 36.98,-12.34 53.43,-41.11 16.45,-28.76 20.55,-61.65 20.55,-106.85 0,-45.2 -4.11,-82.21 -16.43,-106.86 -16.45,-32.88 -32.89,-45.22 -53.44,-45.22z"/>
  <path class="fil0" d="M23537.91 15355.17l24.67 0 0 221.95 45.2 0 0 49.32 -45.2 0 0 131.52 -53.44 0 0 -131.52 -164.39 0 0 -24.67 193.16 -246.6zm-28.77 217.83l0 -115.07 -90.42 115.07 90.42 0z"/>
  <path class="fil0" d="M23768.07 15355.17c36.98,0 65.75,20.56 90.42,57.54 24.67,36.99 36.99,86.31 36.99,143.84 0,57.54 -12.34,106.86 -36.99,143.84 -24.67,36.99 -53.44,57.54 -90.42,57.54 -36.99,0 -69.87,-16.44 -90.42,-53.44 -20.55,-37 -32.89,-86.3 -32.89,-143.84 0,-57.53 12.34,-106.85 36.99,-143.84 16.45,-45.19 49.33,-61.64 86.32,-61.64zm0 53.44l0 0c-24.67,0 -41.1,12.33 -53.44,41.1 -12.33,24.67 -20.55,61.65 -20.55,106.86 0,45.2 8.22,82.2 20.55,110.97 12.34,28.77 28.77,41.1 49.32,41.1 20.55,0 36.99,-12.33 53.44,-41.1 16.45,-28.77 20.55,-61.65 20.55,-106.86 0,-45.2 -4.12,-82.2 -16.44,-106.85 -16.45,-32.89 -32.88,-45.22 -53.43,-45.22z"/>
  <path class="fil0" d="M5388.48 15355.17l24.67 0 0 221.95 41.09 0 0 49.32 -45.21 0 0 131.52 -53.43 0 0 -131.52 -164.39 0 0 -24.67 197.27 -246.6zm-32.88 217.83l0 -115.07 -90.42 115.07 90.42 0z"/>
  <path class="fil0" d="M5618.64 15355.17c36.99,0 65.76,20.56 90.42,57.54 24.67,36.99 36.99,86.31 36.99,143.84 0,57.54 -12.33,106.86 -36.99,143.84 -24.66,36.99 -53.43,57.54 -90.42,57.54 -36.98,0 -69.87,-16.44 -90.42,-53.44 -20.55,-37 -32.88,-86.3 -32.88,-143.84 0,-57.53 12.33,-106.85 36.98,-143.84 16.45,-45.19 45.22,-61.64 86.32,-61.64zm0 53.44l0 0c-24.66,0 -41.1,12.33 -53.43,41.1 -12.34,24.67 -20.55,61.65 -20.55,106.86 0,45.2 8.21,82.2 20.55,110.97 12.33,28.77 28.77,41.1 49.32,41.1 20.55,0 36.98,-12.33 53.43,-41.1 16.45,-28.77 20.55,-61.65 20.55,-106.86 0,-45.2 -4.11,-82.2 -16.43,-106.85 -16.45,-32.89 -32.89,-45.22 -53.44,-45.22z"/>
  <path class="fil0" d="M24351.68 17216.98l147.96 0 0 53.44 -246.6 -0.02 0 -4.11 24.67 -28.77c36.99,-45.21 65.75,-86.31 86.3,-115.08 20.56,-32.88 36.99,-57.53 41.11,-73.98 8.21,-16.44 8.21,-32.89 8.21,-49.32 0,-20.55 -8.21,-41.1 -20.55,-53.44 -12.33,-12.33 -28.77,-20.55 -49.32,-20.55 -16.43,0 -32.88,4.12 -45.2,12.34 -16.43,8.21 -28.77,20.55 -41.1,41.1l0 -69.87c28.77,-24.67 61.65,-36.99 94.52,-36.99 32.89,0 61.65,12.34 86.31,32.89 20.55,24.66 32.88,53.43 32.88,86.3 0,16.44 -4.12,32.89 -8.22,49.32 -4.11,16.44 -16.43,36.99 -28.77,61.65 -12.33,24.67 -36.98,53.44 -69.87,94.53l-12.33 20.56z"/>
  <path class="fil0" d="M24668.15 16875.85c36.98,0 65.75,20.55 90.42,57.54 24.66,36.98 36.98,86.3 36.98,143.84 0,57.53 -12.33,106.85 -36.98,143.84 -24.67,36.98 -53.44,57.53 -90.42,57.53 -36.99,0 -69.87,-16.43 -90.42,-53.43 -20.56,-37 -32.89,-86.31 -32.89,-143.84 0,-57.54 12.33,-106.86 36.99,-143.84 16.45,-45.19 49.32,-61.64 86.32,-61.64zm0 53.43l0 0c-24.67,0 -41.11,12.34 -53.44,41.11 -12.33,24.66 -20.55,61.65 -20.55,106.85 0,45.2 8.22,82.21 20.55,110.97 12.33,28.77 28.77,41.11 49.32,41.11 20.55,0 36.99,-12.34 53.44,-41.11 16.45,-28.76 20.55,-61.65 20.55,-106.85 0,-45.2 -4.12,-82.21 -16.44,-106.86 -16.45,-32.88 -32.9,-45.22 -53.43,-45.22z"/>
  <path class="fil0" d="M4463.75 17216.98l147.96 0 0 53.44 -246.59 -0.02 0 -4.11 24.66 -28.77c36.99,-45.21 65.76,-86.31 86.31,-115.08 20.55,-32.88 36.98,-57.53 41.1,-73.98 8.22,-16.44 8.22,-32.89 8.22,-49.32 0,-20.55 -8.22,-41.1 -20.55,-53.44 -12.34,-12.33 -28.77,-20.55 -49.32,-20.55 -16.44,0 -32.89,4.12 -45.21,12.34 -16.43,8.21 -28.76,20.55 -41.1,41.1l0 -69.87c28.77,-24.67 61.65,-36.99 94.52,-36.99 32.89,0 61.66,12.34 86.31,32.89 20.55,24.66 32.88,53.43 32.88,86.3 0,16.44 -4.11,32.89 -8.21,49.32 -4.12,16.44 -16.44,36.99 -28.77,61.65 -12.34,24.67 -36.99,53.44 -69.87,94.53l-12.34 20.56z"/>
  <line class="fil1 str0" x1="10719.06" y1="8968.36" x2="14993.37" y2= "1570.5" />
  <line class="fil1 str0" x1="15420.81" y1="2310.28" x2="11146.48" y2= "9708.15" />
  <line class="fil1 str0" x1="11573.92" y1="10447.93" x2="15844.13" y2= "3050.07" />
  <line class="fil1 str0" x1="16271.57" y1="3789.86" x2="12001.36" y2= "11187.72" />
  <line class="fil1 str0" x1="12428.78" y1="11927.51" x2="16701.05" y2= "4529.64" />
  <line class="fil1 str0" x1="17126.43" y1="5269.43" x2="12856.22" y2= "12667.29" />
  <line class="fil1 str0" x1="13283.65" y1="13407.08" x2="17553.86" y2= "6009.21" />
  <line class="fil1 str0" x1="17981.29" y1="6749" x2="13711.08" y2= "14146.86" />
  <line class="fil1 str0" x1="14138.51" y1="14886.65" x2="18408.72" y2= "7488.79" />
  <line class="fil1 str0" x1="14138.51" y1="1570.5" x2="18408.72" y2= "8968.36" />
  <line class="fil1 str0" x1="17981.29" y1="9708.15" x2="13711.08" y2= "2310.28" />
  <line class="fil1 str0" x1="13283.65" y1="3050.07" x2="17553.86" y2= "10447.93" />
  <line class="fil1 str0" x1="17126.43" y1="11187.72" x2="12856.22" y2= "3789.86" />
  <line class="fil1 str0" x1="12428.78" y1="4529.64" x2="16698.99" y2= "11927.51" />
  <line class="fil1 str0" x1="12001.36" y1="5269.43" x2="16271.57" y2= "12667.29" />
  <line class="fil1 str0" x1="11573.92" y1="6009.21" x2="15844.13" y2= "13407.08" />
  <line class="fil1 str0" x1="11146.48" y1="6749" x2="15420.81" y2= "14146.86" />
  <line class="fil1 str0" x1="10719.06" y1="7488.79" x2="14993.37" y2= "14886.65" />
  <path class="fil0" d="M4780.22 16875.85c36.98,0 65.75,20.55 90.42,57.54 24.67,36.98 36.99,86.3 36.99,143.84 0,57.53 -12.34,106.85 -36.99,143.84 -24.67,36.98 -53.44,57.53 -90.42,57.53 -36.99,0 -69.87,-16.43 -90.42,-53.43 -20.55,-37 -32.89,-86.31 -32.89,-143.84 0,-57.54 12.34,-106.86 36.99,-143.84 16.45,-45.19 49.33,-61.64 86.32,-61.64zm0 53.43l0 0c-24.67,0 -41.1,12.34 -53.44,41.11 -12.33,24.66 -20.55,61.65 -20.55,106.85 0,45.2 8.22,82.21 20.55,110.97 12.34,28.77 28.77,41.11 49.32,41.11 20.55,0 36.99,-12.34 53.44,-41.11 16.45,-28.76 20.55,-61.65 20.55,-106.85 0,-45.2 -4.12,-82.21 -16.44,-106.86 -16.45,-32.88 -32.88,-45.22 -53.43,-45.22z"/>
  <line class="fil1 str0" x1="17109.99" y1="18544.48" x2="20956.88" y2= "11894.62" />
  <line class="fil1 str0" x1="17964.85" y1="18544.48" x2="21384.3" y2= "12634.41" />
  <line class="fil1 str0" x1="18819.71" y1="18544.48" x2="21811.74" y2= "13374.19" />
  <line class="fil1 str0" x1="19674.58" y1="18544.48" x2="22239.18" y2= "14113.98" />
  <line class="fil1 str0" x1="20529.44" y1="18544.48" x2="22664.54" y2= "14849.65" />
  <line class="fil1 str0" x1="21384.3" y1="18544.48" x2="23089.94" y2= "15593.55" />
  <line class="fil1 str0" x1="22239.18" y1="18544.48" x2="23517.36" y2= "16325.12" />
  <line class="fil1 str0" x1="23089.94" y1="18544.48" x2="23944.79" y2= "17064.91" />
  <line class="fil1 str0" x1="23944.79" y1="18544.48" x2="24372.23" y2= "17804.69" />
  <line class="fil1 str0" x1="16682.55" y1="17804.69" x2="24372.23" y2= "17804.69" />
  <line class="fil1 str0" x1="17109.99" y1="17064.91" x2="23944.79" y2= "17064.91" />
  <line class="fil1 str0" x1="17537.41" y1="16325.12" x2="23517.36" y2= "16325.12" />
  <line class="fil1 str0" x1="17964.85" y1="15585.34" x2="23089.94" y2= "15585.34" />
  <line class="fil1 str0" x1="18392.29" y1="14853.77" x2="22664.54" y2= "14849.65" />
  <line class="fil1 str0" x1="18819.71" y1="14113.98" x2="22239.18" y2= "14113.98" />
  <line class="fil1 str0" x1="19247.15" y1="13374.19" x2="21811.74" y2= "13374.19" />
  <line class="fil1 str0" x1="19674.58" y1="12634.41" x2="21384.3" y2= "12634.41" />
  <line class="fil1 str0" x1="20102.01" y1="11894.62" x2="20956.88" y2= "11894.62" />
  <line class="fil1 str0" x1="20102.01" y1="11894.62" x2="23944.79" y2= "18544.48" />
  <line class="fil1 str0" x1="19674.58" y1="12634.41" x2="23089.94" y2= "18544.48" />
  <line class="fil1 str0" x1="19247.15" y1="13374.19" x2="22239.18" y2= "18544.48" />
  <line class="fil1 str0" x1="18819.71" y1="14113.98" x2="21384.3" y2= "18544.48" />
  <line class="fil1 str0" x1="18392.29" y1="14853.77" x2="20529.44" y2= "18544.48" />
  <line class="fil1 str0" x1="17964.85" y1="15585.34" x2="19674.58" y2= "18544.48" />
  <line class="fil1 str0" x1="17537.41" y1="16325.12" x2="18819.71" y2= "18544.48" />
  <line class="fil1 str0" x1="17109.99" y1="17064.91" x2="17964.85" y2= "18544.48" />
  <line class="fil1 str0" x1="16682.55" y1="17804.69" x2="17109.99" y2= "18544.48" />
  <line class="fil1 str0" x1="4755.55" y1="17804.69" x2="12445.23" y2= "17804.69" />
  <line class="fil1 str0" x1="5182.99" y1="17064.91" x2="12017.79" y2= "17064.91" />
  <line class="fil1 str0" x1="5610.43" y1="16325.12" x2="11590.35" y2= "16325.12" />
  <line class="fil1 str0" x1="6037.85" y1="15585.34" x2="11158.19" y2= "15593.55" />
  <line class="fil1 str0" x1="6465.29" y1="14853.77" x2="10735.5" y2= "14853.77" />
  <line class="fil1 str0" x1="6892.72" y1="14113.98" x2="10308.06" y2= "14113.98" />
  <line class="fil1 str0" x1="7320.14" y1="13374.19" x2="9880.64" y2= "13374.19" />
  <line class="fil1 str0" x1="7747.58" y1="12634.41" x2="9453.2" y2= "12634.41" />
  <line class="fil1 str0" x1="8175.02" y1="11894.62" x2="9029.88" y2= "11894.62" />
  <line class="fil1 str0" x1="8175.02" y1="11894.62" x2="12017.79" y2= "18544.48" />
  <line class="fil1 str0" x1="7747.58" y1="12634.41" x2="11162.93" y2= "18544.48" />
  <line class="fil1 str0" x1="7320.14" y1="13374.19" x2="10308.06" y2= "18544.48" />
  <line class="fil1 str0" x1="6892.72" y1="14113.98" x2="9453.2" y2= "18544.48" />
  <line class="fil1 str0" x1="6465.29" y1="14853.77" x2="8602.44" y2= "18544.48" />
  <line class="fil1 str0" x1="6037.85" y1="15585.34" x2="7747.58" y2= "18544.48" />
  <line class="fil1 str0" x1="5610.43" y1="16325.12" x2="6892.72" y2= "18544.48" />
  <line class="fil1 str0" x1="5182.99" y1="17064.91" x2="6037.85" y2= "18544.48" />
  <line class="fil1 str0" x1="4755.55" y1="17804.69" x2="5182.99" y2= "18544.48" />
  <line class="fil1 str0" x1="12017.79" y1="18544.48" x2="12445.23" y2= "17804.69" />
  <line class="fil1 str0" x1="11162.93" y1="18544.48" x2="12017.79" y2= "17064.91" />
  <line class="fil1 str0" x1="10308.06" y1="18544.48" x2="11590.35" y2= "16325.12" />
  <line class="fil1 str0" x1="9453.2" y1="18544.48" x2="11158.19" y2= "15593.55" />
  <line class="fil1 str0" x1="8602.44" y1="18544.48" x2="10735.5" y2= "14853.77" />
  <line class="fil1 str0" x1="7747.58" y1="18544.48" x2="10308.06" y2= "14113.98" />
  <line class="fil1 str0" x1="6892.72" y1="18544.48" x2="9880.64" y2= "13374.19" />
  <line class="fil1 str0" x1="6037.85" y1="18544.48" x2="9453.2" y2= "12634.41" />
  <line class="fil1 str0" x1="9029.88" y1="11894.62" x2="5182.99" y2= "18544.48" />
  <polygon class="fil1 str2" points="4328.13,18544.48 8602.44,11154.83 12872.65,18544.48 "/>
  <polygon class="fil1 str2" points="16255.12,18544.48 20529.44,11154.83 24799.65,18544.48 "/>
  <polygon class="fil1 str2" points="14565.95,15626.44 18836.16,8228.57 14565.95,830.71 10291.62,8228.57 "/>
 </g>
</svg>
