<?xml version="1.0" encoding="UTF-8"?>
<!DOCTYPE svg PUBLIC "-//W3C//DTD SVG 1.1//EN" "http://www.w3.org/Graphics/SVG/1.1/DTD/svg11.dtd">
<!-- Creator: CorelDRAW 2018 (64 Bit) -->
<svg xmlns="http://www.w3.org/2000/svg" xml:space="preserve" width="297mm" height="210mm" version="1.1" style="shape-rendering:geometricPrecision; text-rendering:geometricPrecision; image-rendering:optimizeQuality; fill-rule:evenodd; clip-rule:evenodd"
viewBox="0 0 29700 21000"
 xmlns:xlink="http://www.w3.org/1999/xlink">
 <defs>
  <style type="text/css">
   <![CDATA[
    .str1 {stroke:black;stroke-width:25;stroke-miterlimit:22.9256}
    .str3 {stroke:black;stroke-width:20;stroke-miterlimit:22.9256}
    .str2 {stroke:gray;stroke-width:10;stroke-miterlimit:22.9256;stroke-dasharray:20.000000 30.000000}
    .str0 {stroke:white;stroke-width:7.62;stroke-miterlimit:22.9256;stroke-dasharray:15.240000 22.860000}
    .fil0 {fill:none}
    .fil1 {fill:black}
    .fil2 {fill:black;fill-rule:nonzero}
   ]]>
  </style>
 </defs>
 <g id="Capa_x0020_1">
  <metadata id="CorelCorpID_0Corel-Layer"/>
  <rect class="fil0 str0" x="4002.43" y="560.72" width="21113.76" height="19737.92"/>
  <path class="fil1" d="M10832.62 4239.68l-38.42 20.97c-24.46,13.97 -41.92,20.96 -59.39,20.96 -17.47,0 -31.44,-3.49 -48.91,-10.48 -24.45,-13.97 -38.42,-31.44 -41.92,-55.89 -3.5,-24.45 0,-48.91 13.97,-73.36 13.97,-24.45 34.94,-41.92 59.39,-55.89l45.42 27.95c-31.44,10.49 -55.89,24.46 -69.87,48.91 -6.99,13.97 -10.49,27.95 -10.49,38.42 0,13.97 6.99,20.97 17.47,27.95 6.99,3.5 17.47,6.99 31.44,3.5 13.97,-3.48 24.45,-6.98 41.92,-17.47l38.42 -20.96c41.92,-24.46 76.86,-24.46 111.8,-6.99 24.45,13.97 38.42,31.44 41.92,55.89 3.5,24.45 0,48.91 -13.97,73.36 -17.47,27.95 -41.92,48.91 -69.87,62.89l-52.41 -31.44c41.92,-6.98 69.87,-24.45 87.34,-52.4 6.99,-13.97 10.49,-24.46 6.99,-38.43 -3.5,-13.96 -10.49,-20.96 -20.97,-27.95 -13.97,-10.51 -38.42,-7.01 -69.86,10.46z"/>
  <path class="fil1" d="M10811.67 3876.36c24.45,-45.42 62.88,-73.36 108.29,-87.34 45.42,-13.97 90.83,-6.99 132.75,17.47 41.92,24.45 69.87,59.39 80.34,104.81 10.49,45.42 3.5,90.82 -24.45,136.24 -24.45,41.92 -59.39,73.36 -104.81,83.84 -45.42,13.97 -87.34,6.99 -129.26,-17.46 -41.92,-24.46 -69.88,-59.39 -80.35,-104.81 -13.97,-41.92 -6.97,-87.33 17.49,-132.75zm41.92 20.97c-17.47,31.43 -24.46,66.37 -17.47,97.81 6.98,34.93 27.95,59.39 59.39,76.86 31.44,17.46 62.89,20.96 97.81,13.96 31.44,-10.48 59.39,-31.43 76.86,-62.88 17.47,-31.44 24.45,-66.38 13.97,-97.82 -6.99,-34.93 -27.95,-59.38 -59.39,-76.85 -31.44,-17.47 -62.89,-20.97 -94.33,-13.97 -31.44,10.48 -59.37,31.44 -76.84,62.89z"/>
  <path class="fil1" d="M11227.38 3764.56l6.98 -10.48 94.33 55.89 10.48 -17.47 20.97 10.49 -10.48 17.47 55.89 31.43 -13.97 24.46 -55.89 -31.44 -41.92 69.87 -10.49 -6.98 -55.9 -143.24zm87.34 69.88l-48.9 -27.95 27.95 66.37 20.95 -38.42z"/>
  <polygon class="fil1" points="11360.13,3495.57 11276.29,3446.66 11227.38,3530.51 11192.44,3509.54 11241.35,3425.7 11157.51,3376.79 11178.47,3341.85 11262.32,3390.76 11311.22,3306.92 11346.16,3327.89 11297.25,3411.73 11381.1,3460.63 "/>
  <path class="fil1" d="M11653.58 2943.61l45.42 27.95c0,38.42 -13.97,80.35 -34.94,118.78 -17.47,31.44 -41.92,55.89 -66.37,69.87 -24.46,13.99 -52.41,20.97 -83.85,20.97 -31.43,0 -59.38,-6.98 -83.84,-24.45 -41.92,-24.45 -69.87,-59.39 -80.34,-104.81 -10.47,-45.42 -3.5,-90.83 20.97,-136.25 17.46,-31.44 45.42,-59.39 83.84,-87.34l45.42 24.45c-38.42,20.97 -66.38,48.91 -87.34,83.85 -17.47,31.43 -24.46,66.37 -17.47,101.31 6.98,34.93 27.95,59.39 59.39,76.85 31.44,17.47 62.89,20.97 97.81,13.97 31.44,-10.48 59.39,-31.43 76.86,-66.37 17.45,-31.44 24.44,-73.36 24.44,-118.78z"/>
  <polygon class="fil1" points="11457.95,2768.94 11478.92,2730.52 11768.87,2898.2 11747.9,2936.63 "/>
  <line class="fil0" x1="11406.58" y1="4381.34" x2="12076.49" y2= "3222.35" />
  <line class="fil0 str1" x1="11406.58" y1="4381.34" x2="12018.96" y2= "3320.99" />
  <polygon class="fil1" points="12010.74,3596.35 11969.64,3592.24 12018.96,3325.09 11813.46,3497.71 11784.7,3468.95 12076.49,3222.35 "/>
  <polygon class="fil1" points="4827.52,14246.37 4848.49,14207.95 5138.44,14375.63 5113.98,14417.56 4890.41,14288.29 4949.8,14442.01 4946.3,14448.99 4782.1,14473.45 5005.68,14602.71 4981.22,14644.63 4691.27,14476.94 4712.24,14438.52 4886.91,14410.57 "/>
  <path class="fil1" d="M5040.63 14256.86c-20.97,-10.49 -31.44,-27.95 -34.94,-48.91 -3.5,-20.95 3.5,-45.42 17.47,-69.87l45.42 -76.86 27.95 17.47 -20.97 38.42c10.49,-3.5 20.97,-3.5 27.95,-3.5 6.99,0 17.47,3.5 24.46,6.99 10.48,6.98 17.46,13.97 24.45,24.45 6.98,10.48 10.48,24.45 10.48,34.94 0,10.48 -3.5,27.95 -13.97,52.4 -6.98,13.97 -6.98,24.45 3.5,31.44 3.5,3.5 10.49,3.5 13.97,0 6.99,-3.5 13.97,-10.49 24.45,-24.45 17.47,-20.97 31.44,-31.44 38.43,-38.43 6.98,-3.5 13.97,-6.98 24.45,-10.48 13.97,-3.5 27.95,-3.5 41.92,6.98 17.47,10.49 27.95,27.96 27.95,48.91 0,20.97 -6.98,45.42 -20.96,73.36 -13.97,27.95 -34.94,45.42 -52.41,55.89 -20.97,10.48 -38.42,10.48 -55.89,0 -24.45,-13.97 -34.94,-41.92 -20.97,-76.86 -13.97,6.99 -27.95,10.48 -34.93,3.5 -6.99,-3.5 -10.49,-10.48 -10.49,-17.47 0,-6.98 0,-17.47 3.5,-27.95 -34.93,14 -62.89,14 -90.82,0.03zm6.98 -90.83c-6.98,10.48 -6.98,20.97 -3.5,31.44 3.49,10.47 10.48,20.96 17.47,24.45 10.48,6.99 20.97,6.99 31.44,3.5 10.47,-3.49 17.47,-10.48 24.45,-20.97 6.98,-10.48 6.98,-20.96 6.98,-31.43 -3.49,-10.49 -6.98,-17.47 -17.46,-24.46 -10.49,-6.98 -20.97,-6.98 -31.44,-3.5 -10.47,3.5 -20.96,10.49 -27.94,20.97zm160.7 104.8c-6.98,13.97 -10.48,24.45 -10.48,34.93 0,10.49 6.98,17.47 13.97,24.46 20.96,10.48 38.42,0 59.38,-34.94 10.49,-17.47 13.97,-31.44 13.97,-41.92 0,-10.49 -3.49,-20.97 -13.97,-24.45 -10.48,-3.5 -20.96,-3.5 -31.43,3.49 -6.99,6.99 -17.47,20.96 -31.44,38.43z"/>
  <line class="fil0" x1="5151.46" y1="15153.48" x2="5821.38" y2= "13990.36" />
  <line class="fil0 str1" x1="5151.46" y1="15153.48" x2="5763.84" y2= "14093.12" />
  <polygon class="fil1" points="5755.63,14368.48 5714.52,14360.26 5763.84,14097.23 5558.35,14269.84 5529.58,14236.96 5821.38,13990.36 "/>
  <path class="fil1" d="M17580.72 3142.5l-45.42 27.95c-34.94,-20.96 -62.89,-52.4 -83.85,-90.82 -17.46,-31.44 -27.95,-62.89 -27.95,-94.33 0,-31.44 6.99,-59.39 24.45,-83.84 13.97,-27.95 34.94,-45.42 62.89,-62.89 41.92,-24.45 87.34,-27.95 132.75,-17.47 45.42,13.97 80.35,41.92 108.3,87.34 17.47,31.44 27.95,69.87 34.93,115.28l-45.42 24.45c0,-45.42 -10.48,-83.84 -27.95,-115.28 -17.47,-31.43 -45.42,-55.89 -80.34,-62.88 -34.94,-10.49 -66.38,-6.99 -97.81,13.97 -31.44,17.46 -52.41,45.42 -59.39,76.85 -6.99,34.94 -3.5,66.38 17.47,101.31 17.46,31.45 48.9,59.39 87.34,80.36z"/>
  <path class="fil1 str2" d="M17723.94 3282.23l-80.35 45.42c-6.98,3.5 -6.98,6.99 -6.98,10.49 3.5,3.5 10.48,10.48 20.96,13.97l-24.45 13.97c-10.48,-6.99 -17.47,-10.49 -24.45,-13.97 -3.5,-3.5 -10.49,-10.49 -13.97,-13.97 -10.48,-17.47 -6.99,-27.96 3.5,-38.43 -20.97,-10.48 -38.42,-20.96 -48.91,-41.92 -6.98,-13.97 -10.48,-27.95 -6.98,-41.92 3.5,-13.97 10.48,-24.45 24.45,-31.44 10.48,-6.98 24.45,-10.48 38.42,-6.98 13.97,3.5 27.95,10.48 41.92,24.45l45.42 38.43 10.49 -6.99c24.45,-13.97 27.95,-31.44 13.97,-52.4 -10.49,-20.97 -34.94,-34.94 -66.38,-41.93l41.92 -24.45c24.46,3.5 45.42,20.97 62.89,48.91 10.49,20.96 17.47,38.42 13.97,59.39 0,6.98 -3.5,13.97 -6.98,17.47 -3.5,6.98 -6.99,10.48 -13.97,17.46 3.46,6.97 -7.03,13.96 -24.49,24.44zm-97.82 6.99l55.89 -31.44 -24.45 -20.97c-13.97,-10.48 -24.45,-17.47 -31.44,-17.47 -6.98,-3.49 -17.46,0 -24.45,3.5 -6.98,3.5 -13.97,10.49 -13.97,17.47 -3.5,6.99 0,17.47 3.5,24.45 6.97,10.49 17.46,20.97 34.92,24.46z"/>
  <polygon class="fil1 str2" points="17807.78,3579.18 17891.62,3530.27 17842.71,3446.43 17877.65,3425.46 17926.56,3509.31 18010.4,3460.4 18031.37,3495.34 17947.52,3544.24 17996.43,3628.09 17961.49,3649.05 17912.59,3565.21 17828.75,3614.12 "/>
  <polygon class="fil1" points="18349.27,3959.96 18370.24,3998.38 18080.29,4166.06 18055.83,4124.14 18279.41,3994.88 18115.22,3970.43 18111.72,3963.44 18171.11,3809.73 17947.54,3938.99 17923.08,3897.07 18213.03,3729.38 18234,3767.81 18171.11,3931.99 "/>
  <path class="fil1" d="M18233.99 4141.62c20.97,-10.48 41.92,-13.97 59.39,-6.98 20.96,6.98 38.42,24.45 52.4,48.9l45.42 76.86 -27.95 17.47 -20.97 -38.42c-3.5,10.48 -6.98,20.96 -10.48,27.95 -3.5,6.98 -10.48,10.48 -17.47,17.47 -10.48,6.98 -20.97,6.98 -34.93,6.98 -13.97,0 -24.46,-3.5 -34.94,-10.48 -10.49,-6.99 -24.45,-17.47 -38.42,-34.94 -10.49,-13.97 -20.97,-17.47 -27.96,-13.97 -3.49,3.5 -6.98,6.99 -6.98,13.97 0,6.99 3.5,17.47 6.98,34.94 6.99,27.95 13.97,41.92 13.97,52.4 0,6.99 0,17.47 -3.5,24.46 -3.49,13.97 -13.96,24.45 -27.95,34.93 -17.47,10.49 -38.42,10.49 -55.89,0 -20.96,-10.48 -38.42,-27.95 -52.4,-55.89 -13.97,-27.95 -24.46,-52.4 -20.97,-73.36 0,-20.96 10.48,-38.42 27.95,-48.9 24.46,-13.97 52.41,-6.99 76.86,17.47 0,-17.47 3.5,-27.96 13.97,-31.44 6.98,-3.5 13.97,-3.5 20.97,0 6.98,3.5 17.46,6.98 24.45,13.97 0.01,-31.47 10.5,-59.42 38.45,-73.39zm-97.83 139.74c-6.98,-13.97 -17.47,-20.97 -24.45,-27.96 -10.48,-3.5 -20.97,-3.5 -27.95,0 -20.97,10.49 -17.47,34.94 0,69.88 10.48,17.47 20.97,27.95 31.44,34.93 10.48,6.99 20.96,6.99 27.95,0 10.48,-3.5 13.97,-13.97 10.48,-31.43 -3.48,-17.47 -6.98,-27.96 -17.47,-45.42zm171.19 -87.35c-6.99,-10.48 -13.97,-17.46 -24.46,-20.96 -10.48,-3.5 -20.96,-3.5 -31.43,3.5 -10.49,6.98 -17.47,13.97 -17.47,24.45 -3.5,10.48 0,20.97 6.98,31.44 6.99,10.48 13.97,17.46 24.46,20.96 10.48,3.5 20.96,3.5 31.43,-3.5 10.49,-6.98 17.47,-13.96 17.47,-24.45 0,-10.47 0,-20.95 -6.98,-31.44z"/>
  <line class="fil0" x1="17852.06" y1="4432.76" x2="17182.14" y2= "3273.77" />
  <line class="fil0 str1" x1="17852.06" y1="4432.76" x2="17239.68" y2= "3372.41" />
  <polygon class="fil1 str2" points="17473.96,3520.37 17445.19,3549.13 17239.68,3376.51 17289,3643.66 17247.91,3647.77 17182.14,3273.77 "/>
  <path class="fil1" d="M24044.98 14350.08l0 -37.73c0,-25.16 3.15,-44.02 9.44,-56.6 6.28,-12.57 15.72,-25.16 28.29,-31.44 22.01,-12.58 40.88,-15.73 62.89,-6.29 22.01,6.29 37.73,22.01 50.3,44.02 12.57,22 18.87,44.01 15.72,69.17l-40.88 25.15c6.29,-28.29 3.15,-53.45 -6.28,-75.45 -6.29,-12.58 -15.72,-22.01 -25.16,-25.16 -9.43,-3.15 -18.87,-3.15 -28.29,0 -6.29,3.15 -12.58,12.57 -15.73,22.01 -3.14,9.43 -6.28,22 -6.28,40.88l0 37.72c0,44.02 -15.72,72.31 -44.02,88.04 -22.01,12.57 -40.88,15.72 -62.88,9.43 -22.01,-6.29 -37.73,-22.01 -50.31,-44.02 -15.72,-25.15 -22,-53.45 -15.72,-84.89l47.17 -28.29c-12.58,34.58 -12.58,66.02 3.15,91.18 6.28,12.57 15.72,18.87 25.15,22 9.44,3.15 22.01,3.15 31.45,-3.14 12.56,-6.29 21.99,-25.15 21.99,-56.59z"/>
  <path class="fil1" d="M24337.38 14497.85c22.01,40.87 28.3,81.74 18.87,122.62 -9.43,40.88 -34.58,72.31 -72.31,94.33 -37.73,22.01 -78.6,28.29 -119.47,15.72 -40.88,-12.57 -72.31,-37.73 -97.47,-81.75 -22.01,-37.72 -28.29,-78.6 -18.87,-119.47 9.44,-40.88 34.58,-72.31 72.31,-94.33 37.73,-22.01 78.61,-28.29 119.48,-15.72 40.88,12.57 75.46,37.73 97.46,78.6zm-34.58 22c-15.72,-28.29 -40.88,-50.3 -69.17,-56.6 -28.29,-9.43 -59.74,-3.15 -88.03,12.58 -28.3,15.72 -47.17,37.73 -53.45,69.17 -6.29,31.44 -3.15,59.74 12.57,88.03 15.72,28.29 40.88,47.16 69.17,56.6 31.45,9.43 59.74,3.15 88.03,-12.57 28.3,-15.73 44.02,-37.73 53.46,-69.18 6.28,-31.43 3.14,-59.73 -12.58,-88.03z"/>
  <path class="fil1" d="M24236.78 14872l6.29 9.44 -84.9 50.3 9.44 15.72 -18.87 9.43 -9.44 -15.72 -50.3 28.3 -12.57 -22.01 50.3 -28.3 -37.73 -62.88 9.43 -6.29 138.35 22.01zm-91.18 37.73l44.01 -25.16 -62.88 -9.43 18.87 34.59z"/>
  <line class="fil0" x1="24050.94" y1="15323.96" x2="23376.92" y2= "14160.84" />
  <line class="fil0 str1" x1="24050.94" y1="15323.96" x2="23438.56" y2= "14263.59" />
  <polygon class="fil1" points="23672.84,14407.44 23644.07,14436.22 23438.56,14263.59 23483.78,14530.74 23446.79,14538.96 23376.92,14160.84 "/>
  <path class="fil1" d="M8670 19976.92l0 52.41c-34.94,17.47 -76.86,27.95 -122.27,27.95 -38.42,0 -69.87,-6.99 -94.32,-20.97 -24.46,-13.98 -45.42,-34.93 -62.89,-62.89 -17.47,-27.95 -20.97,-55.89 -20.97,-83.84 0,-48.9 17.47,-90.82 52.4,-122.26 34.94,-31.44 76.86,-48.91 129.27,-48.91 34.93,0 73.36,10.49 115.28,27.95l0 52.41c-38.42,-20.97 -76.86,-34.94 -115.28,-34.94 -38.42,0 -69.88,10.49 -94.33,34.94 -24.45,24.45 -38.42,55.89 -38.42,90.83 0,34.93 13.97,66.37 38.42,90.82 24.45,24.46 55.89,34.94 94.33,34.94 41.92,-3.5 80.34,-13.98 118.78,-38.44z"/>
  <path class="fil1" d="M8862.13 19921.03l0 94.33c0,6.98 3.5,10.48 6.99,10.48 6.98,0 13.97,-3.5 24.45,-10.48l0 27.95c-10.48,6.98 -17.47,10.48 -24.45,13.97 -6.99,3.5 -10.48,3.5 -17.47,3.5 -17.47,0 -27.95,-6.99 -31.44,-20.97 -17.47,13.97 -38.42,20.97 -59.39,20.97 -13.97,0 -27.95,-3.5 -38.42,-13.97 -10.48,-10.48 -13.97,-24.45 -13.97,-38.42 0,-13.97 3.5,-27.95 13.97,-38.42 10.49,-10.49 24.45,-20.97 41.92,-24.46l55.89 -17.47 0 -10.48c0,-27.95 -13.97,-38.42 -38.42,-38.42 -24.45,0 -45.42,13.97 -69.87,38.42l0 -48.91c17.47,-20.96 41.92,-31.43 73.36,-31.43 24.45,0 41.92,6.98 55.89,17.47 3.5,3.49 10.48,10.48 13.97,17.46 3.5,6.99 6.98,13.97 6.98,20.97 -3.48,-3.52 0.01,10.44 0.01,27.91zm-45.42 87.34l0 -66.37 -27.95 10.48c-13.97,6.99 -24.45,10.49 -31.44,17.47 -6.98,6.99 -10.48,13.97 -10.48,20.97 0,10.48 3.5,17.47 6.99,20.97 3.48,3.49 13.97,6.98 20.96,6.98 17.47,6.96 31.45,-0.03 41.92,-10.5z"/>
  <path class="fil1" d="M20518.44 19875.28l0 52.41c-34.93,17.47 -76.86,27.95 -122.26,27.95 -38.42,0 -69.88,-6.99 -94.33,-20.97 -24.45,-13.98 -45.42,-34.93 -62.89,-62.89 -17.47,-27.95 -20.96,-55.89 -20.96,-83.84 0,-48.9 17.46,-90.82 52.4,-122.26 34.94,-31.44 76.86,-48.91 129.26,-48.91 34.94,0 73.36,10.49 115.28,27.95l0 52.41c-38.42,-20.97 -76.85,-34.94 -115.28,-34.94 -38.42,0 -69.87,10.49 -94.32,34.94 -24.46,24.45 -38.43,55.89 -38.43,90.83 0,34.93 13.97,66.37 38.43,90.82 24.45,24.46 55.89,34.94 94.32,34.94 38.44,-3.5 80.36,-13.98 118.78,-38.44z"/>
  <polygon class="fil1" points="20570.85,19616.77 20612.77,19616.77 20612.77,19948.64 20570.85,19948.65 "/>
  <line class="fil0" x1="9282.51" y1="19432.14" x2="7761.84" y2= "19432.14" />
  <line class="fil0 str1" x1="9282.51" y1="19432.14" x2="7876.91" y2= "19432.14" />
  <polygon class="fil1" points="8119.39,19300.62 8131.72,19337.61 7881.02,19432.14 8131.72,19522.56 8119.39,19559.55 7761.84,19432.14 "/>
  <line class="fil0" x1="19762.3" y1="19432.14" x2="21332.29" y2= "19432.14" />
  <line class="fil0 str1" x1="19762.3" y1="19432.14" x2="21217.21" y2= "19432.14" />
  <polygon class="fil1" points="20970.61,19559.55 20958.29,19522.56 21213.11,19432.14 20958.29,19337.61 20970.61,19300.62 21332.29,19432.14 "/>
  <line class="fil0" x1="19197.83" y1="12696.06" x2="18437.49" y2= "14011.24" />
  <line class="fil0 str1" x1="19197.83" y1="12696.06" x2="18499.14" y2= "13912.6" />
  <polygon class="fil1" points="18507.36,13637.24 18544.35,13645.46 18499.14,13908.49 18704.64,13735.88 18733.41,13768.75 18437.49,14011.24 "/>
  <line class="fil0" x1="18174.46" y1="12104.23" x2="17414.12" y2= "13419.41" />
  <line class="fil0 str1" x1="17812.37" y1="11889.73" x2="17109.57" y2= "13106.27" />
  <polygon class="fil1" points="17117.79,12830.91 17158.89,12835.01 17109.57,13102.16 17315.06,12929.55 17343.83,12958.32 17052.03,13204.91 "/>
  <path class="fil1" d="M17679.83 13821.99l45.42 27.96c0,38.42 -13.97,80.34 -34.94,118.78 -17.47,31.43 -41.92,55.89 -66.37,69.87 -24.46,13.97 -52.41,20.97 -83.85,20.97 -31.44,0 -59.39,-6.99 -83.84,-24.46 -41.92,-24.45 -69.87,-59.39 -80.34,-104.81 -10.49,-45.42 -3.5,-90.82 20.96,-136.24 17.47,-31.44 45.42,-59.39 83.85,-87.35l45.42 24.46c-38.43,20.96 -66.38,48.9 -87.35,83.84 -17.46,31.44 -24.45,66.37 -17.46,101.31 6.98,34.94 27.95,59.39 59.39,76.86 31.43,17.47 62.88,20.97 97.81,13.97 31.44,-10.49 59.39,-31.44 76.86,-66.38 17.45,-31.45 24.44,-73.37 24.44,-118.78z"/>
  <path class="fil1" d="M17564.55 13500.59c24.45,-45.42 62.88,-73.35 108.29,-87.34 45.41,-13.98 90.83,-6.98 132.75,17.47 41.92,24.45 69.87,59.39 80.34,104.81 10.47,45.42 3.5,90.83 -24.45,136.25 -24.45,41.92 -59.39,73.36 -104.81,83.84 -45.42,13.97 -87.34,6.99 -129.26,-17.47 -41.92,-24.45 -69.88,-59.39 -80.35,-104.81 -10.47,-45.42 -10.47,-87.33 17.49,-132.75zm38.42 20.96c-17.47,31.44 -24.46,66.37 -17.47,97.81 6.98,31.44 27.95,59.39 59.39,76.86 31.44,17.47 62.89,20.97 97.81,13.97 34.92,-7 59.39,-31.44 76.86,-62.89 17.47,-31.44 24.45,-66.38 13.97,-97.81 -6.99,-34.94 -27.95,-59.39 -59.39,-76.86 -31.44,-17.47 -62.89,-20.97 -94.33,-13.97 -31.42,10.5 -59.37,31.45 -76.84,62.89z"/>
  <path class="fil1" d="M18025.68 13476.14l0 0c6.98,-10.48 10.48,-20.97 6.98,-27.95 0,-6.99 -6.98,-13.97 -13.96,-17.47 -6.99,-3.5 -13.97,-3.5 -24.46,-3.5 -10.48,0 -13.97,6.99 -17.47,17.47 -3.49,10.48 -6.98,20.97 -6.98,34.94l-24.45 -13.97c0,-13.97 3.5,-24.46 10.48,-34.94 10.48,-13.97 20.97,-24.45 34.94,-27.95 13.97,-3.5 27.95,-3.5 41.92,6.98 6.98,3.5 13.97,10.49 17.47,17.47 3.5,6.99 6.98,13.97 6.98,24.46 6.99,-3.5 13.97,-6.99 17.47,-10.49 6.98,0 10.48,0 17.47,0 6.98,0 13.97,3.5 17.47,6.99 13.97,6.98 24.45,20.96 27.95,34.93 3.5,13.97 0,31.44 -6.99,45.42 -6.98,13.97 -17.46,24.46 -31.43,31.44l-27.96 -13.97c13.97,-6.98 27.96,-17.47 34.94,-31.44 3.5,-6.98 6.99,-17.46 3.5,-24.45 -3.5,-6.98 -6.99,-13.97 -13.97,-17.47 -6.98,-3.5 -13.97,-3.5 -20.97,-3.5 -3.5,0 -6.98,3.5 -10.48,3.5 -3.5,3.5 -6.99,6.99 -13.97,17.47l0 3.5 -24.48 -17.47z"/>
  <polygon class="fil1" points="18109.52,13119.8 18025.68,13070.9 17976.77,13154.74 17941.84,13133.77 17990.74,13049.93 17906.9,13001.02 17927.87,12966.09 18011.71,13014.99 18060.62,12931.15 18095.55,12952.12 18046.65,13035.96 18130.49,13084.87 "/>
  <polygon class="fil1" points="18154.94,12484 18179.4,12442.08 18469.35,12609.76 18444.89,12651.69 18319.13,12578.33 18224.8,12739.03 18350.57,12812.39 18326.11,12854.31 18036.16,12686.62 18060.62,12644.7 18186.38,12718.06 18280.71,12557.36 "/>
  <path class="fil1" d="M18581.14 12260.42l45.42 27.96c0,38.42 -13.97,80.34 -34.94,118.78 -17.46,31.43 -41.92,55.89 -66.37,69.87 -24.45,13.97 -52.4,20.97 -83.84,20.97 -31.44,0 -59.39,-6.99 -83.84,-24.46 -41.93,-24.45 -69.88,-59.39 -80.35,-104.81 -10.48,-45.42 -3.5,-90.82 20.97,-136.24 17.47,-31.44 45.42,-59.39 83.84,-87.35l45.42 24.46c-38.42,20.96 -66.37,48.9 -87.34,83.84 -17.47,31.44 -24.45,66.37 -17.47,101.31 6.99,34.94 27.95,59.39 59.39,76.86 31.44,17.47 62.89,20.97 97.81,13.97 34.93,-7 59.39,-31.44 76.86,-66.38 17.46,-34.93 27.93,-73.37 24.44,-118.78z"/>
  <path class="fil1" d="M18465.86 11935.54c24.45,-45.42 62.89,-73.36 108.3,-87.34 45.42,-13.97 90.82,-6.99 132.75,17.47 41.92,24.45 69.87,59.38 80.34,104.8 10.48,45.43 3.5,90.83 -24.45,136.25 -24.46,41.92 -59.39,73.36 -104.81,83.84 -45.42,13.97 -87.35,6.99 -129.27,-17.46 -41.92,-24.46 -69.87,-59.39 -80.34,-104.81 -13.97,-41.92 -6.99,-87.34 17.48,-132.75zm41.92 20.95c-17.47,31.44 -24.45,66.38 -17.47,97.81 6.99,34.94 27.96,59.39 59.39,76.86 31.44,17.47 62.89,20.97 97.82,13.97 34.92,-7 59.39,-31.44 76.85,-62.89 17.47,-31.43 24.46,-66.37 13.97,-97.81 -6.98,-34.94 -27.95,-59.39 -59.39,-76.86 -31.43,-17.46 -62.89,-20.96 -94.32,-13.97 -34.93,10.49 -59.39,31.45 -76.85,62.89z"/>
  <path class="fil1" d="M18930.48 11911.09l0 0c6.99,-10.49 10.49,-20.97 6.99,-27.96 0,-6.98 -6.99,-13.97 -13.97,-17.46 -6.99,-3.5 -13.97,-3.5 -24.46,-3.5 -6.98,3.5 -13.97,6.98 -17.46,17.46 -3.5,10.49 -6.99,20.97 -6.99,34.94l-24.45 -13.97c0,-13.97 3.5,-24.45 10.48,-34.93 10.48,-13.97 20.97,-24.46 34.94,-27.96 13.97,-3.5 27.95,-3.5 41.92,6.99 6.98,3.5 13.97,10.48 17.47,17.47 3.5,6.98 6.98,13.97 6.98,24.45 6.99,-3.5 13.97,-6.99 17.47,-10.48 6.99,0 10.48,0 17.47,0 6.98,0 13.97,3.49 17.47,6.98 13.97,6.99 24.45,20.97 27.95,34.94 3.5,13.97 0,31.43 -6.99,45.42 -6.98,13.97 -17.46,24.45 -31.43,31.43l-27.96 -13.96c13.97,-6.99 27.96,-17.47 34.94,-31.44 3.5,-6.99 6.99,-17.47 3.5,-24.46 -3.49,-6.98 -6.98,-13.96 -13.97,-17.46 -6.98,-3.5 -13.97,-3.5 -20.97,-3.5 -3.5,0 -6.98,3.5 -10.48,3.5 -3.5,3.5 -6.98,6.98 -13.97,17.46l0 3.5 -24.48 -17.46z"/>
  <line class="fil0" x1="11200.66" y1="14406.36" x2="10440.32" y2= "13087.08" />
  <line class="fil0 str1" x1="11143.12" y1="14303.63" x2="10440.32" y2= "13087.08" />
  <polygon class="fil1" points="11134.89,14028.26 11093.8,14036.48 11143.12,14299.51 10937.61,14126.9 10908.84,14159.77 11200.66,14406.36 "/>
  <line class="fil0" x1="12367.14" y1="13674.22" x2="11606.8" y2= "12359.04" />
  <line class="fil0 str1" x1="12309.59" y1="13575.59" x2="11606.8" y2= "12359.04" />
  <polygon class="fil1" points="12301.37,13300.22 12260.27,13304.32 12309.59,13571.47 12104.1,13398.86 12075.33,13431.73 12367.14,13674.22 "/>
  <polygon class="fil1" points="11366.27,12864.55 11387.24,12902.98 11097.28,13070.66 11076.32,13035.72 11188.11,12714.32 10964.53,12843.59 10943.57,12805.17 11233.52,12637.48 11254.49,12672.42 11142.69,12997.3 "/>
  <path class="fil1" d="M11313.88 13178.97l-80.35 45.42c-6.98,3.5 -6.98,6.98 -6.98,13.97 3.5,3.5 10.48,10.48 20.96,13.97l-24.45 13.97c-10.48,-6.99 -17.47,-10.49 -24.45,-13.97 -3.5,-3.5 -10.49,-10.48 -13.97,-13.97 -10.48,-17.47 -6.99,-27.95 3.5,-38.42 -20.97,-10.49 -38.42,-20.97 -48.91,-41.92 -6.98,-13.97 -10.48,-27.96 -6.98,-41.93 3.5,-13.96 10.48,-24.45 24.45,-31.43 10.48,-6.99 24.45,-10.49 38.42,-6.99 13.97,3.5 27.95,10.49 41.92,24.46l45.42 38.42 10.49 -6.99c24.45,-13.97 27.95,-31.43 13.97,-55.89 -10.49,-20.96 -34.94,-34.93 -66.38,-41.92l41.92 -24.45c24.46,3.5 45.42,20.97 62.89,48.9 10.49,20.97 17.47,38.43 13.97,59.39 0,6.99 -3.5,13.97 -6.98,17.47 -3.5,6.99 -6.99,10.49 -13.97,17.47 3.44,10.47 -7.04,13.96 -24.49,24.44zm-97.83 6.98l55.89 -31.43 -24.45 -20.97c-13.97,-10.48 -24.45,-17.47 -31.44,-17.47 -6.98,-3.5 -17.47,0 -24.45,3.5 -6.99,3.5 -13.97,10.48 -13.97,17.47 -3.5,6.98 0,17.47 3.5,24.45 10.47,13.97 20.95,20.97 34.92,24.45z"/>
  <polygon class="fil1" points="11397.72,13475.92 11481.56,13427.01 11432.66,13343.17 11467.59,13322.2 11516.5,13406.04 11600.34,13357.14 11621.31,13392.07 11537.47,13440.98 11586.37,13524.82 11551.44,13545.79 11502.53,13461.95 11418.69,13510.85 "/>
  <polygon class="fil1" points="11900.78,13790.32 11932.21,13842.72 11722.61,13797.3 11659.72,14041.85 11628.28,13985.96 11684.17,13755.38 11540.94,13839.23 11516.49,13797.3 11806.44,13629.62 11830.89,13671.54 11698.14,13748.4 "/>
  <line class="fil0 str2" x1="10719.06" y1="8968.36" x2="14993.37" y2= "1570.5" />
  <line class="fil0 str2" x1="15420.81" y1="2310.28" x2="11146.48" y2= "9708.15" />
  <line class="fil0 str2" x1="11573.92" y1="10447.93" x2="15844.13" y2= "3050.07" />
  <line class="fil0 str2" x1="16271.57" y1="3789.86" x2="12001.36" y2= "11187.72" />
  <line class="fil0 str2" x1="12428.78" y1="11927.51" x2="16701.05" y2= "4529.64" />
  <line class="fil0 str2" x1="17126.43" y1="5269.43" x2="12856.22" y2= "12667.29" />
  <line class="fil0 str2" x1="13283.65" y1="13407.08" x2="17553.86" y2= "6009.21" />
  <line class="fil0 str2" x1="17981.29" y1="6749" x2="13711.08" y2= "14146.86" />
  <line class="fil0 str2" x1="14138.51" y1="14886.65" x2="18408.72" y2= "7488.79" />
  <line class="fil0 str2" x1="14138.51" y1="1570.5" x2="18408.72" y2= "8968.36" />
  <line class="fil0 str2" x1="17981.29" y1="9708.15" x2="13711.08" y2= "2310.28" />
  <line class="fil0 str2" x1="13283.65" y1="3050.07" x2="17553.86" y2= "10447.93" />
  <line class="fil0 str2" x1="17126.43" y1="11187.72" x2="12856.22" y2= "3789.86" />
  <line class="fil0 str2" x1="12428.78" y1="4529.64" x2="16698.99" y2= "11927.51" />
  <line class="fil0 str2" x1="12001.36" y1="5269.43" x2="16271.57" y2= "12667.29" />
  <line class="fil0 str2" x1="11573.92" y1="6009.21" x2="15844.13" y2= "13407.08" />
  <line class="fil0 str2" x1="11146.48" y1="6749" x2="15420.81" y2= "14146.86" />
  <line class="fil0 str2" x1="10719.06" y1="7488.79" x2="14993.37" y2= "14886.65" />
  <line class="fil0 str2" x1="17109.99" y1="18544.48" x2="20956.88" y2= "11894.62" />
  <line class="fil0 str2" x1="17964.85" y1="18544.48" x2="21384.3" y2= "12634.41" />
  <line class="fil0 str2" x1="18819.71" y1="18544.48" x2="21811.74" y2= "13374.19" />
  <line class="fil0 str2" x1="19674.58" y1="18544.48" x2="22239.18" y2= "14113.98" />
  <line class="fil0 str2" x1="20529.44" y1="18544.48" x2="22664.54" y2= "14849.65" />
  <line class="fil0 str2" x1="21384.3" y1="18544.48" x2="23089.94" y2= "15593.55" />
  <line class="fil0 str2" x1="22239.18" y1="18544.48" x2="23517.36" y2= "16325.12" />
  <line class="fil0 str2" x1="23089.94" y1="18544.48" x2="23944.79" y2= "17064.91" />
  <line class="fil0 str2" x1="23944.79" y1="18544.48" x2="24372.23" y2= "17804.69" />
  <line class="fil0 str2" x1="16682.55" y1="17804.69" x2="24372.23" y2= "17804.69" />
  <line class="fil0 str2" x1="17109.99" y1="17064.91" x2="23944.79" y2= "17064.91" />
  <line class="fil0 str2" x1="17537.41" y1="16325.12" x2="23517.36" y2= "16325.12" />
  <line class="fil0 str2" x1="17964.85" y1="15585.34" x2="23089.94" y2= "15585.34" />
  <line class="fil0 str2" x1="18392.29" y1="14853.77" x2="22664.54" y2= "14849.65" />
  <line class="fil0 str2" x1="18819.71" y1="14113.98" x2="22239.18" y2= "14113.98" />
  <line class="fil0 str2" x1="19247.15" y1="13374.19" x2="21811.74" y2= "13374.19" />
  <line class="fil0 str2" x1="19674.58" y1="12634.41" x2="21384.3" y2= "12634.41" />
  <line class="fil0 str2" x1="20102.01" y1="11894.62" x2="20956.88" y2= "11894.62" />
  <line class="fil0 str2" x1="20102.01" y1="11894.62" x2="23944.79" y2= "18544.48" />
  <line class="fil0 str2" x1="19674.58" y1="12634.41" x2="23089.94" y2= "18544.48" />
  <line class="fil0 str2" x1="19247.15" y1="13374.19" x2="22239.18" y2= "18544.48" />
  <line class="fil0 str2" x1="18819.71" y1="14113.98" x2="21384.3" y2= "18544.48" />
  <line class="fil0 str2" x1="18392.29" y1="14853.77" x2="20529.44" y2= "18544.48" />
  <line class="fil0 str2" x1="17964.85" y1="15585.34" x2="19674.58" y2= "18544.48" />
  <line class="fil0 str2" x1="17537.41" y1="16325.12" x2="18819.71" y2= "18544.48" />
  <line class="fil0 str2" x1="17109.99" y1="17064.91" x2="17964.85" y2= "18544.48" />
  <line class="fil0 str2" x1="16682.55" y1="17804.69" x2="17109.99" y2= "18544.48" />
  <line class="fil0 str2" x1="4755.55" y1="17804.69" x2="12445.23" y2= "17804.69" />
  <line class="fil0 str2" x1="5182.99" y1="17064.91" x2="12017.79" y2= "17064.91" />
  <line class="fil0 str2" x1="5610.43" y1="16325.12" x2="11590.35" y2= "16325.12" />
  <line class="fil0 str2" x1="6037.85" y1="15585.34" x2="11158.19" y2= "15593.55" />
  <line class="fil0 str2" x1="6465.29" y1="14853.77" x2="10735.5" y2= "14853.77" />
  <line class="fil0 str2" x1="6892.72" y1="14113.98" x2="10308.06" y2= "14113.98" />
  <line class="fil0 str2" x1="7320.14" y1="13374.19" x2="9880.64" y2= "13374.19" />
  <line class="fil0 str2" x1="7747.58" y1="12634.41" x2="9453.2" y2= "12634.41" />
  <line class="fil0 str2" x1="8175.02" y1="11894.62" x2="9029.88" y2= "11894.62" />
  <line class="fil0 str2" x1="8175.02" y1="11894.62" x2="12017.79" y2= "18544.48" />
  <line class="fil0 str2" x1="7747.58" y1="12634.41" x2="11162.93" y2= "18544.48" />
  <line class="fil0 str2" x1="7320.14" y1="13374.19" x2="10308.06" y2= "18544.48" />
  <line class="fil0 str2" x1="6892.72" y1="14113.98" x2="9453.2" y2= "18544.48" />
  <line class="fil0 str2" x1="6465.29" y1="14853.77" x2="8602.44" y2= "18544.48" />
  <line class="fil0 str2" x1="6037.85" y1="15585.34" x2="7747.58" y2= "18544.48" />
  <line class="fil0 str2" x1="5610.43" y1="16325.12" x2="6892.72" y2= "18544.48" />
  <line class="fil0 str2" x1="5182.99" y1="17064.91" x2="6037.85" y2= "18544.48" />
  <line class="fil0 str2" x1="4755.55" y1="17804.69" x2="5182.99" y2= "18544.48" />
  <line class="fil0 str2" x1="12017.79" y1="18544.48" x2="12445.23" y2= "17804.69" />
  <line class="fil0 str2" x1="11162.93" y1="18544.48" x2="12017.79" y2= "17064.91" />
  <line class="fil0 str2" x1="10308.06" y1="18544.48" x2="11590.35" y2= "16325.12" />
  <line class="fil0 str2" x1="9453.2" y1="18544.48" x2="11158.19" y2= "15593.55" />
  <line class="fil0 str2" x1="8602.44" y1="18544.48" x2="10735.5" y2= "14853.77" />
  <line class="fil0 str2" x1="7747.58" y1="18544.48" x2="10308.06" y2= "14113.98" />
  <line class="fil0 str2" x1="6892.72" y1="18544.48" x2="9880.64" y2= "13374.19" />
  <line class="fil0 str2" x1="6037.85" y1="18544.48" x2="9453.2" y2= "12634.41" />
  <line class="fil0 str2" x1="9029.88" y1="11894.62" x2="5182.99" y2= "18544.48" />
  <path class="fil2" d="M23916.76 19109.55c4,-6.23 8.64,-14.93 12.77,-25.58 9.86,-22.81 12.86,-49.21 6.75,-73.08 -7.64,-30.52 -29.74,-62.8 -73.43,-88.02 -50.69,-29.28 -98.13,-23.28 -121.6,17.35 -23.45,40.62 -6.17,86.84 31.4,108.53 33.92,19.58 74.03,12.24 94.66,-23.51 11.47,-19.87 12.71,-40.33 5.59,-59.09l0.53 -0.95c21.4,17.29 33.34,36.81 37.68,56.8 4.18,17.46 2.13,35.87 -4.75,52.68 -4.36,9.65 -7.65,16.77 -11.59,22.17l21.99 12.7zm-156.28 -155.34c16.23,-28.11 49.45,-25.63 83.32,-6.06 4.29,2.48 6.82,5.12 8.34,8.05 7.88,13.94 8.65,33.05 -1.76,51.11 -13.4,23.22 -39.45,28.1 -64.2,13.81 -28.11,-16.17 -38.93,-44.04 -25.7,-66.91z"/>
  <path id="1" class="fil2" d="M23831.57 18783.83c-23.28,40.28 -3.18,90.14 63.38,128.59 66.03,37.34 117.53,32.05 139.94,-6.76 25.4,-43.98 2.59,-90.54 -64.92,-129.53 -63.2,-36.45 -114.24,-34.16 -138.4,7.7zm19.87 13.47c16.05,-27.75 55.39,-21.76 104.25,6.4 50.68,29.29 75.2,60.99 59.33,88.44 -14.11,24.46 -52.63,23.4 -104.26,-6.41 -54.03,-31.22 -72.9,-64.91 -59.32,-88.43z"/>
  <path class="fil2" d="M23085.3 19061c21.88,-37.87 15.77,-80.91 -18.75,-100.84 -24.1,-13.94 -50.39,-8.7 -74.44,10.41l-0.88 -0.53c2.47,-31.11 -10.76,-49.81 -27.57,-59.5 -24.75,-14.29 -59.98,-8.94 -82.2,29.51 -20.11,34.87 -14.05,73.73 17.4,91.89 17.11,9.88 39.69,10.3 62.73,-5.69l1.13 0.23c-3.71,30.4 5.34,55.63 30.4,70.09 28.98,16.76 68.2,5.99 92.18,-35.57zm-19.22 -11.89c-14.58,25.35 -41.16,30.41 -60.8,17.82 -18.93,-10.93 -26.92,-32.22 -20.28,-59.32 23.16,-22.46 44.45,-32.57 68.61,-18.64 20.46,11.82 26.41,36.04 12.47,60.14zm-166.27 -96.42c13.93,-24.1 35.92,-24.04 51.79,-14.88 18,10.42 22.64,30.58 18.58,51.04 -19.34,19.41 -38.69,28.17 -58.49,16.7 -17.12,-9.88 -24.76,-30.57 -11.88,-52.86z"/>
  <path id="1" class="fil2" d="M22971.78 18783.67c-23.29,40.27 -3.19,90.13 63.38,128.59 66.02,37.33 117.53,32.05 139.93,-6.76 25.41,-43.98 2.59,-90.55 -64.91,-129.53 -63.21,-36.46 -114.25,-34.16 -138.4,7.7zm19.86 13.47c16.05,-27.76 55.4,-21.76 104.25,6.4 50.69,29.29 75.21,60.98 59.33,88.43 -14.11,24.46 -52.63,23.4 -104.25,-6.4 -54.03,-31.22 -72.91,-64.91 -59.33,-88.43z"/>
  <polygon class="fil2" points="22014.44,19005.92 22036.79,19018.8 22092.82,18921.66 22093.48,18922.01 22219.36,19109.57 22235.41,19081.76 22104.47,18890.97 22086.77,18880.74 "/>
  <path id="1" class="fil2" d="M22137.75 18784.68c-23.28,40.28 -3.18,90.14 63.38,128.59 66.03,37.34 117.53,32.05 139.94,-6.76 25.4,-43.98 2.59,-90.54 -64.92,-129.53 -63.2,-36.46 -114.24,-34.16 -138.4,7.7zm19.87 13.47c16.05,-27.75 55.39,-21.76 104.25,6.4 50.68,29.29 75.2,60.98 59.33,88.44 -14.11,24.46 -52.63,23.4 -104.26,-6.41 -54.03,-31.22 -72.9,-64.91 -59.32,-88.43z"/>
  <path class="fil2" d="M21189.25 18893.04c-2.83,4.88 -6.41,11.76 -9.77,20.4 -11.41,26.81 -13.99,54.63 -7.34,80.44 8.28,30.87 30.98,62.73 70.08,85.31 51.62,29.75 100.66,21.05 125.18,-21.4 23.81,-41.27 4.46,-85.37 -31.87,-106.36 -38.81,-22.41 -78.44,-12.29 -98.72,22.81 -12.71,21.99 -11.82,44.51 -4.77,61.21l-0.52 0.87c-30.05,-23.45 -47.98,-63.55 -30.7,-109.77 3.18,-8.34 6.94,-15.52 10.41,-20.87l-21.98 -12.64zm157.39 152.75c-16.23,28.11 -49.03,29.11 -82.02,10.88 -4.94,-2.82 -8.17,-6.34 -10.17,-9.94 -10.12,-15.64 -11.59,-36.4 -2.24,-52.61 14.28,-24.76 40.75,-31.05 69.15,-14.65 28.39,16.4 38.69,43.1 25.28,66.32z"/>
  <path id="1" class="fil2" d="M21252.28 18783.17c-23.29,40.27 -3.19,90.13 63.38,128.58 66.02,37.34 117.53,32.05 139.93,-6.75 25.41,-43.98 2.59,-90.55 -64.91,-129.53 -63.21,-36.46 -114.25,-34.16 -138.4,7.7zm19.86 13.47c16.05,-27.76 55.4,-21.76 104.25,6.4 50.69,29.28 75.21,60.98 59.33,88.43 -14.11,24.46 -52.63,23.4 -104.25,-6.41 -54.03,-31.21 -72.91,-64.9 -59.33,-88.42z"/>
  <path class="fil2" d="M20381.43 18890.25l-54.85 95.01 87.9 67.85c3.29,-7.88 7.23,-17.46 13.75,-28.74 22.93,-39.69 51.09,-46.22 76.96,-31.7 26.52,15.35 30.51,46.51 15.88,71.91 -10.41,17.99 -25.87,30.64 -35.52,36.1l16.59 18.52c11.58,-5.94 28.28,-20.75 40.8,-42.45 24.87,-43.04 13.64,-90.67 -25.1,-113.07 -25.06,-14.46 -49.57,-11.46 -67.45,-0.99 -14.39,7.93 -26.57,21.28 -35.39,36.57 -4.24,7.35 -6.05,11.93 -8.11,16.88l-46.57 -37.11 43.69 -75.73 -22.58 -13.05z"/>
  <path id="1" class="fil2" d="M20438.41 18783.84c-23.29,40.28 -3.19,90.14 63.38,128.59 66.02,37.34 117.53,32.05 139.93,-6.76 25.41,-43.98 2.59,-90.54 -64.91,-129.53 -63.21,-36.46 -114.25,-34.16 -138.4,7.7zm19.86 13.47c16.05,-27.75 55.4,-21.76 104.25,6.4 50.69,29.29 75.21,60.98 59.33,88.44 -14.11,24.46 -52.63,23.4 -104.25,-6.41 -54.03,-31.22 -72.91,-64.91 -59.33,-88.43z"/>
  <path class="fil2" d="M19697.21 19009.91l-54.09 -31.21 16.05 -27.76 -21.04 -12.17 -16.06 27.75 -123.42 -71.2 -16.75 28.99 75.61 161.74 17.76 10.23 53.21 -92.24 54.1 31.22 14.63 -25.35zm-127.35 47.04l-0.58 -0.35 -39.52 -87.55c-5.94,-10.76 -11.7,-20.58 -19.75,-33.4l0.52 -0.93c10,6.58 20.23,12.93 30.64,18.92l66.26 38.22 -37.57 65.09z"/>
  <path id="1" class="fil2" d="M19561.46 18778.8c-23.29,40.28 -3.19,90.14 63.38,128.59 66.02,37.34 117.53,32.05 139.93,-6.76 25.41,-43.98 2.59,-90.54 -64.91,-129.53 -63.21,-36.46 -114.25,-34.16 -138.4,7.7zm19.86 13.47c16.05,-27.75 55.4,-21.76 104.25,6.4 50.69,29.29 75.21,60.98 59.33,88.44 -14.11,24.46 -52.63,23.4 -104.25,-6.41 -54.03,-31.22 -72.91,-64.91 -59.33,-88.43z"/>
  <path class="fil2" d="M18800.9 19118.5c12.05,-6.06 30.34,-21.59 43.21,-43.87 27.52,-47.63 14,-88.42 -17.75,-106.77 -27.81,-16.05 -57.62,-6.76 -76.61,14.81l-0.59 -0.35c5.24,-29.52 -5.12,-51.8 -25.58,-63.61 -24.1,-13.94 -57.56,-9.65 -80.14,29.46 -12.35,21.4 -16.35,45.97 -14.7,60.73l23.58 4.29c-1.17,-12.11 0.64,-31.4 9.82,-47.27 14.29,-24.76 34.16,-26.75 50.03,-17.59 23.52,13.59 19.29,44.16 8.01,63.69l-8.65 14.99 20.17 11.63 8.64 -14.98c14.99,-25.93 41.39,-44.1 69.33,-28.35 16.69,9.18 32.5,32.58 12.58,67.09 -10.76,18.64 -28.64,31.93 -37.93,36.75l16.58 19.35z"/>
  <path id="1" class="fil2" d="M18738.35 18783.84c-23.29,40.28 -3.19,90.14 63.38,128.59 66.02,37.34 117.53,32.05 139.93,-6.76 25.41,-43.98 2.59,-90.54 -64.91,-129.53 -63.21,-36.46 -114.25,-34.16 -138.4,7.7zm19.86 13.47c16.05,-27.75 55.4,-21.76 104.25,6.4 50.69,29.29 75.21,60.98 59.33,88.44 -14.11,24.46 -52.63,23.4 -104.25,-6.41 -54.03,-31.22 -72.91,-64.91 -59.33,-88.43z"/>
  <path class="fil2" d="M17979.83 18994.32l-22.35 -12.88 -51.45 89.19 -0.64 -0.35 -5.47 -24.34c-16.18,-65.09 -30.46,-108.77 -67.09,-129.94 -28.4,-16.4 -68.15,-15.29 -92.84,27.46 -13.23,22.87 -15.94,47.38 -12.29,67.85l23.87 2.35c-2.35,-13.59 -2.88,-33.81 7.53,-51.85 17.11,-29.64 41.39,-28.64 61.55,-17 29.76,17.58 42.17,55.33 61.16,133.88l8.28 32.87 16.52 9.52 73.22 -126.76z"/>
  <path id="1" class="fil2" d="M17833.48 18781.55c-23.28,40.27 -3.18,90.13 63.38,128.58 66.03,37.34 117.53,32.05 139.94,-6.75 25.4,-43.98 2.59,-90.55 -64.92,-129.53 -63.2,-36.46 -114.24,-34.16 -138.4,7.7zm19.87 13.47c16.05,-27.76 55.39,-21.76 104.25,6.4 50.68,29.28 75.2,60.98 59.33,88.43 -14.11,24.46 -52.63,23.4 -104.26,-6.4 -54.03,-31.22 -72.9,-64.91 -59.32,-88.43z"/>
  <polygon class="fil2" points="17138.84,19080.8 17153.83,19054.81 16955.28,18940.21 16942.04,18963.15 16940.22,19019.88 16963.68,19026.53 16964.98,18981.25 16965.32,18980.61 "/>
  <path id="1" class="fil2" d="M17032.01 18799.59c-23.29,40.27 -3.19,90.13 63.38,128.58 66.02,37.34 117.53,32.05 139.93,-6.75 25.41,-43.98 2.59,-90.55 -64.91,-129.53 -63.21,-36.46 -114.25,-34.16 -138.4,7.7zm19.86 13.47c16.05,-27.76 55.4,-21.76 104.25,6.4 50.69,29.28 75.21,60.98 59.33,88.43 -14.11,24.46 -52.63,23.4 -104.25,-6.4 -54.03,-31.22 -72.91,-64.91 -59.33,-88.43z"/>
  <path class="fil2" d="M21158.68 12035.33c7.41,0.35 17.28,0 28.57,-1.77 24.7,-2.82 49.04,-13.4 66.68,-30.69 22.58,-21.87 39.51,-57.15 39.51,-107.6 0,-58.56 -28.93,-96.66 -75.85,-96.66 -46.92,0 -78.32,38.1 -78.32,81.49 0,39.16 26.46,70.21 67.74,70.21 22.93,0 41.27,-9.17 53.97,-24.7l1.06 0c-4.23,27.17 -15.17,47.28 -30.34,61.03 -13.05,12.35 -29.98,19.76 -47.98,22.23 -10.58,1.06 -18.34,1.76 -25.04,1.06l0 25.4zm56.44 -213.08c32.46,0 46.92,29.98 46.92,69.14 0,4.94 -1.06,8.47 -2.82,11.29 -8.11,13.76 -24.34,23.99 -45.16,23.99 -26.81,0 -44.09,-20.11 -44.09,-48.68 0,-32.46 18.69,-55.74 45.15,-55.74z"/>
  <path id="1" class="fil2" d="M21398.22 11798.61c-46.57,0 -79.73,42.34 -79.73,119.24 0.71,75.85 31.04,117.83 75.85,117.83 50.8,0 79.73,-43.04 79.73,-121 0,-73.03 -27.52,-116.07 -75.85,-116.07zm-1.77 23.99c32.11,0 46.57,37.04 46.57,93.49 0,58.56 -15.17,95.6 -46.92,95.6 -28.22,0 -46.57,-33.87 -46.57,-93.49 0,-62.44 19.76,-95.6 46.92,-95.6z"/>
  <path class="fil2" d="M21657.67 12775.47c43.74,0 77.96,-26.81 77.96,-66.67 0,-27.87 -17.64,-47.98 -46.21,-59.27l0 -1.06c28.22,-13.41 37.75,-34.22 37.75,-53.62 0,-28.58 -22.23,-56.45 -66.68,-56.45 -40.22,0 -70.91,24.7 -70.91,61.03 0,19.76 10.94,39.51 36.34,51.51l0.35 1.06c-28.22,11.99 -45.51,32.45 -45.51,61.38 0,33.52 28.93,62.09 76.91,62.09zm0.7 -22.58c-29.28,0 -46.92,-20.46 -45.86,-43.74 0,-21.87 14.47,-39.51 41.28,-47.27 31.04,8.81 50.45,22.22 50.45,50.09 0,23.64 -18,40.92 -45.87,40.92zm0.36 -192.26c27.87,0 38.8,19.05 38.8,37.39 0,20.82 -15.17,34.93 -34.92,41.63 -26.46,-7.06 -43.75,-19.4 -43.75,-42.33 0,-19.76 14.11,-36.69 39.87,-36.69z"/>
  <path id="1" class="fil2" d="M21841.12 12538.4c-46.57,0 -79.73,42.34 -79.73,119.24 0.71,75.85 31.04,117.83 75.85,117.83 50.8,0 79.73,-43.04 79.73,-121 0,-73.03 -27.52,-116.07 -75.85,-116.07zm-1.77 23.99c32.11,0 46.57,37.04 46.57,93.49 0,58.56 -15.17,95.6 -46.92,95.6 -28.22,0 -46.57,-33.87 -46.57,-93.49 0,-62.44 19.76,-95.6 46.92,-95.6z"/>
  <polygon class="fil2" points="21990.62,13282.06 21990.62,13307.82 22102.8,13307.82 22102.8,13308.52 22003.32,13511.37 22035.42,13511.37 22135.26,13302.52 22135.26,13282.06 "/>
  <path id="1" class="fil2" d="M22243.92 13278.18c-46.57,0 -79.73,42.34 -79.73,119.24 0.71,75.85 31.04,117.83 75.85,117.83 50.8,0 79.73,-43.04 79.73,-121 0,-73.03 -27.52,-116.07 -75.85,-116.07zm-1.77 23.99c32.11,0 46.57,37.04 46.57,93.49 0,58.56 -15.17,95.6 -46.92,95.6 -28.22,0 -46.57,-33.87 -46.57,-93.49 0,-62.44 19.76,-95.6 46.92,-95.6z"/>
  <path class="fil2" d="M22555.58 14018.33c-5.65,0 -13.41,0.35 -22.58,1.76 -28.93,3.53 -54.33,15.17 -73.38,33.87 -22.58,22.57 -38.81,58.2 -38.81,103.36 0,59.62 32.11,97.72 81.14,97.72 47.63,0 76.2,-38.81 76.2,-80.79 0,-44.8 -28.57,-74.08 -69.14,-74.08 -25.4,0 -44.45,11.99 -55.39,26.46l-1.06 0c5.3,-37.75 31.05,-73.38 79.73,-81.49 8.82,-1.41 16.94,-1.77 23.29,-1.41l0 -25.4zm-53.63 212.72c-32.45,0 -49.74,-27.87 -50.44,-65.62 0,-5.64 1.41,-10.23 3.52,-13.75 8.47,-16.58 25.76,-28.23 44.45,-28.23 28.58,0 47.28,19.76 47.28,52.57 0,32.81 -17.99,55.03 -44.81,55.03z"/>
  <path id="1" class="fil2" d="M22682.23 14017.97c-46.57,0 -79.73,42.34 -79.73,119.24 0.71,75.85 31.04,117.83 75.85,117.83 50.8,0 79.73,-43.04 79.73,-121 0,-73.03 -27.52,-116.07 -75.85,-116.07zm-1.77 23.99c32.11,0 46.57,37.04 46.57,93.49 0,58.56 -15.17,95.6 -46.92,95.6 -28.22,0 -46.57,-33.87 -46.57,-93.49 0,-62.44 19.76,-95.6 46.92,-95.6z"/>
  <path class="fil2" d="M22970.89 14760.46l-109.71 0 -14.82 110.07c8.47,-1.06 18.7,-2.47 31.75,-2.47 45.86,0 65.62,21.17 65.97,50.8 0,30.69 -25.04,49.74 -54.33,49.74 -20.81,0 -39.51,-7.05 -49.03,-12.7l-7.76 23.64c10.93,7.05 32.1,14.11 57.15,14.11 49.74,0 85.37,-33.51 85.37,-78.32 0,-28.92 -14.82,-48.68 -32.81,-58.91 -14.11,-8.47 -31.75,-12.35 -49.39,-12.35 -8.46,0 -13.4,0.71 -18.7,1.41l8.82 -58.91 87.49 0 0 -26.11z"/>
  <path id="1" class="fil2" d="M23091.55 14756.58c-46.57,0 -79.73,42.34 -79.73,119.24 0.71,75.85 31.04,117.83 75.85,117.83 50.8,0 79.73,-43.04 79.73,-121 0,-73.03 -27.52,-116.07 -75.85,-116.07zm-1.77 23.99c32.11,0 46.57,37.04 46.57,93.49 0,58.56 -15.17,95.6 -46.92,95.6 -28.22,0 -46.57,-33.87 -46.57,-93.49 0,-62.44 19.76,-95.6 46.92,-95.6z"/>
  <path class="fil2" d="M23428.09 15722.52l0 -62.44 32.1 0 0 -24.34 -32.1 0 0 -142.53 -33.51 0 -102.31 146.41 0 20.46 106.54 0 0 62.44 29.28 0zm-104.42 -86.78l0 -0.71 56.09 -77.96c6.35,-10.59 12,-20.47 19.05,-33.87l1.06 0c-0.71,11.99 -1.06,23.99 -1.06,35.98l0 76.56 -75.14 0z"/>
  <path id="1" class="fil2" d="M23560.39 15489.33c-46.57,0 -79.73,42.34 -79.73,119.24 0.71,75.85 31.04,117.83 75.85,117.83 50.8,0 79.73,-43.04 79.73,-121 0,-73.03 -27.52,-116.07 -75.85,-116.07zm-1.77 23.99c32.11,0 46.57,37.04 46.57,93.49 0,58.56 -15.17,95.6 -46.92,95.6 -28.22,0 -46.57,-33.87 -46.57,-93.49 0,-62.44 19.76,-95.6 46.92,-95.6z"/>
  <path class="fil2" d="M23692.86 16450.66c11.29,7.41 33.86,15.52 59.62,15.52 55.03,0 83.61,-32.1 83.61,-68.79 0,-32.1 -22.94,-53.27 -51.16,-58.92l0 -0.7c28.22,-10.23 42.34,-30.34 42.34,-53.98 0,-27.87 -20.47,-54.68 -65.62,-54.68 -24.7,0 -47.98,8.82 -59.97,17.64l8.11 22.58c9.88,-7.06 27.52,-15.17 45.86,-15.17 28.58,0 40.22,16.23 40.22,34.57 0,27.17 -28.58,38.81 -51.15,38.81l-17.29 0 0 23.28 17.29 0c29.98,0 58.91,13.76 59.26,45.86 0.36,19.05 -11.99,44.45 -51.86,44.45 -21.52,0 -41.98,-8.82 -50.8,-14.46l-8.46 23.99z"/>
  <path id="1" class="fil2" d="M23951.45 16229.11c-46.57,0 -79.73,42.34 -79.73,119.24 0.71,75.85 31.04,117.83 75.85,117.83 50.8,0 79.73,-43.04 79.73,-121 0,-73.03 -27.52,-116.07 -75.85,-116.07zm-1.77 23.99c32.11,0 46.57,37.04 46.57,93.49 0,58.56 -15.17,95.6 -46.92,95.6 -28.22,0 -46.57,-33.87 -46.57,-93.49 0,-62.44 19.76,-95.6 46.92,-95.6z"/>
  <path class="fil2" d="M24279.53 17202.09l0 -25.75 -103.01 0 0 -0.71 18.34 -16.93c48.33,-46.57 79.02,-80.79 79.02,-123.12 0,-32.81 -20.81,-66.68 -70.2,-66.68 -26.46,0 -49.04,9.88 -64.91,23.29l9.88 21.87c10.58,-8.82 27.87,-19.4 48.68,-19.4 34.22,0 45.51,21.51 45.51,44.8 -0.35,34.57 -26.81,64.2 -85.37,119.94l-24.34 23.64 0 19.05 146.4 0z"/>
  <path id="1" class="fil2" d="M24390.66 16968.9c-46.57,0 -79.73,42.34 -79.73,119.24 0.71,75.85 31.04,117.83 75.85,117.83 50.8,0 79.73,-43.04 79.73,-121 0,-73.03 -27.52,-116.07 -75.85,-116.07zm-1.77 23.99c32.11,0 46.57,37.04 46.57,93.49 0,58.56 -15.17,95.6 -46.92,95.6 -28.22,0 -46.57,-33.87 -46.57,-93.49 0,-62.44 19.76,-95.6 46.92,-95.6z"/>
  <polygon class="fil2" points="24568.7,17941.87 24598.68,17941.87 24598.68,17712.56 24572.22,17712.56 24522.13,17739.37 24528.13,17763.01 24567.99,17741.49 24568.7,17741.49 "/>
  <path id="1" class="fil2" d="M24758.85 17708.68c-46.57,0 -79.73,42.34 -79.73,119.24 0.71,75.85 31.04,117.83 75.85,117.83 50.8,0 79.73,-43.04 79.73,-121 0,-73.03 -27.52,-116.07 -75.85,-116.07zm-1.77 23.99c32.11,0 46.57,37.04 46.57,93.49 0,58.56 -15.17,95.6 -46.92,95.6 -28.22,0 -46.57,-33.87 -46.57,-93.49 0,-62.44 19.76,-95.6 46.92,-95.6z"/>
  <path class="fil2" d="M7611.93 12035.33c7.41,0.35 17.28,0 28.57,-1.77 24.7,-2.82 49.04,-13.4 66.68,-30.69 22.58,-21.87 39.51,-57.15 39.51,-107.6 0,-58.56 -28.93,-96.66 -75.85,-96.66 -46.92,0 -78.32,38.1 -78.32,81.49 0,39.16 26.46,70.21 67.74,70.21 22.93,0 41.27,-9.17 53.97,-24.7l1.06 0c-4.23,27.17 -15.17,47.28 -30.34,61.03 -13.05,12.35 -29.98,19.76 -47.98,22.23 -10.58,1.06 -18.34,1.76 -25.04,1.06l0 25.4zm56.44 -213.08c32.46,0 46.92,29.98 46.92,69.14 0,4.94 -1.06,8.47 -2.82,11.29 -8.11,13.76 -24.34,23.99 -45.16,23.99 -26.81,0 -44.09,-20.11 -44.09,-48.68 0,-32.46 18.69,-55.74 45.15,-55.74z"/>
  <path id="1" class="fil2" d="M7851.47 11798.61c-46.57,0 -79.73,42.34 -79.73,119.24 0.71,75.85 31.04,117.83 75.85,117.83 50.8,0 79.73,-43.04 79.73,-121 0,-73.03 -27.52,-116.07 -75.85,-116.07zm-1.77 23.99c32.11,0 46.57,37.04 46.57,93.49 0,58.56 -15.17,95.6 -46.92,95.6 -28.22,0 -46.57,-33.87 -46.57,-93.49 0,-62.44 19.76,-95.6 46.92,-95.6z"/>
  <path class="fil2" d="M7271.33 12775.47c43.74,0 77.96,-26.81 77.96,-66.67 0,-27.87 -17.64,-47.98 -46.21,-59.27l0 -1.06c28.22,-13.41 37.75,-34.22 37.75,-53.62 0,-28.58 -22.23,-56.45 -66.68,-56.45 -40.22,0 -70.91,24.7 -70.91,61.03 0,19.76 10.94,39.51 36.34,51.51l0.35 1.06c-28.22,11.99 -45.51,32.45 -45.51,61.38 0,33.52 28.93,62.09 76.91,62.09zm0.7 -22.58c-29.28,0 -46.92,-20.46 -45.86,-43.74 0,-21.87 14.47,-39.51 41.28,-47.27 31.04,8.81 50.45,22.22 50.45,50.09 0,23.64 -18,40.92 -45.87,40.92zm0.36 -192.26c27.87,0 38.8,19.05 38.8,37.39 0,20.82 -15.17,34.93 -34.92,41.63 -26.46,-7.06 -43.75,-19.4 -43.75,-42.33 0,-19.76 14.11,-36.69 39.87,-36.69z"/>
  <path id="1" class="fil2" d="M7454.78 12538.4c-46.57,0 -79.73,42.34 -79.73,119.24 0.71,75.85 31.04,117.83 75.85,117.83 50.8,0 79.73,-43.04 79.73,-121 0,-73.03 -27.52,-116.07 -75.85,-116.07zm-1.77 23.99c32.11,0 46.57,37.04 46.57,93.49 0,58.56 -15.17,95.6 -46.92,95.6 -28.22,0 -46.57,-33.87 -46.57,-93.49 0,-62.44 19.76,-95.6 46.92,-95.6z"/>
  <polygon class="fil2" points="6760.53,13282.06 6760.53,13307.82 6872.71,13307.82 6872.71,13308.52 6773.23,13511.37 6805.33,13511.37 6905.17,13302.52 6905.17,13282.06 "/>
  <path id="1" class="fil2" d="M7013.83 13278.18c-46.57,0 -79.73,42.34 -79.73,119.24 0.71,75.85 31.04,117.83 75.85,117.83 50.8,0 79.73,-43.04 79.73,-121 0,-73.03 -27.52,-116.07 -75.85,-116.07zm-1.77 23.99c32.11,0 46.57,37.04 46.57,93.49 0,58.56 -15.17,95.6 -46.92,95.6 -28.22,0 -46.57,-33.87 -46.57,-93.49 0,-62.44 19.76,-95.6 46.92,-95.6z"/>
  <path class="fil2" d="M6482.05 14018.33c-5.65,0 -13.41,0.35 -22.58,1.76 -28.93,3.53 -54.33,15.17 -73.38,33.87 -22.58,22.57 -38.81,58.2 -38.81,103.36 0,59.62 32.11,97.72 81.14,97.72 47.63,0 76.2,-38.81 76.2,-80.79 0,-44.8 -28.57,-74.08 -69.14,-74.08 -25.4,0 -44.45,11.99 -55.39,26.46l-1.06 0c5.3,-37.75 31.05,-73.38 79.73,-81.49 8.82,-1.41 16.94,-1.77 23.29,-1.41l0 -25.4zm-53.63 212.72c-32.45,0 -49.74,-27.87 -50.44,-65.62 0,-5.64 1.41,-10.23 3.52,-13.75 8.47,-16.58 25.76,-28.23 44.45,-28.23 28.58,0 47.28,19.76 47.28,52.57 0,32.81 -17.99,55.03 -44.81,55.03z"/>
  <path id="1" class="fil2" d="M6608.7 14017.97c-46.57,0 -79.73,42.34 -79.73,119.24 0.71,75.85 31.04,117.83 75.85,117.83 50.8,0 79.73,-43.04 79.73,-121 0,-73.03 -27.52,-116.07 -75.85,-116.07zm-1.77 23.99c32.11,0 46.57,37.04 46.57,93.49 0,58.56 -15.17,95.6 -46.92,95.6 -28.22,0 -46.57,-33.87 -46.57,-93.49 0,-62.44 19.76,-95.6 46.92,-95.6z"/>
  <path class="fil2" d="M6090.39 14760.46l-109.71 0 -14.82 110.07c8.47,-1.06 18.7,-2.47 31.75,-2.47 45.86,0 65.62,21.17 65.97,50.8 0,30.69 -25.04,49.74 -54.33,49.74 -20.81,0 -39.51,-7.05 -49.03,-12.7l-7.76 23.64c10.93,7.05 32.1,14.11 57.15,14.11 49.74,0 85.37,-33.51 85.37,-78.32 0,-28.92 -14.82,-48.68 -32.81,-58.91 -14.11,-8.47 -31.75,-12.35 -49.39,-12.35 -8.46,0 -13.4,0.71 -18.7,1.41l8.82 -58.91 87.49 0 0 -26.11z"/>
  <path id="1" class="fil2" d="M6211.05 14756.58c-46.57,0 -79.73,42.34 -79.73,119.24 0.71,75.85 31.04,117.83 75.85,117.83 50.8,0 79.73,-43.04 79.73,-121 0,-73.03 -27.52,-116.07 -75.85,-116.07zm-1.77 23.99c32.11,0 46.57,37.04 46.57,93.49 0,58.56 -15.17,95.6 -46.92,95.6 -28.22,0 -46.57,-33.87 -46.57,-93.49 0,-62.44 19.76,-95.6 46.92,-95.6z"/>
  <path class="fil2" d="M5661.24 15722.52l0 -62.44 32.1 0 0 -24.34 -32.1 0 0 -142.53 -33.51 0 -102.31 146.41 0 20.46 106.54 0 0 62.44 29.28 0zm-104.42 -86.78l0 -0.71 56.09 -77.96c6.35,-10.59 12,-20.47 19.05,-33.87l1.06 0c-0.71,11.99 -1.06,23.99 -1.06,35.98l0 76.56 -75.14 0z"/>
  <path id="1" class="fil2" d="M5793.54 15489.33c-46.57,0 -79.73,42.34 -79.73,119.24 0.71,75.85 31.04,117.83 75.85,117.83 50.8,0 79.73,-43.04 79.73,-121 0,-73.03 -27.52,-116.07 -75.85,-116.07zm-1.77 23.99c32.11,0 46.57,37.04 46.57,93.49 0,58.56 -15.17,95.6 -46.92,95.6 -28.22,0 -46.57,-33.87 -46.57,-93.49 0,-62.44 19.76,-95.6 46.92,-95.6z"/>
  <path class="fil2" d="M5079.34 16450.66c11.29,7.41 33.86,15.52 59.62,15.52 55.03,0 83.61,-32.1 83.61,-68.79 0,-32.1 -22.94,-53.27 -51.16,-58.92l0 -0.7c28.22,-10.23 42.34,-30.34 42.34,-53.98 0,-27.87 -20.47,-54.68 -65.62,-54.68 -24.7,0 -47.98,8.82 -59.97,17.64l8.11 22.58c9.88,-7.06 27.52,-15.17 45.86,-15.17 28.58,0 40.22,16.23 40.22,34.57 0,27.17 -28.58,38.81 -51.15,38.81l-17.29 0 0 23.28 17.29 0c29.98,0 58.91,13.76 59.26,45.86 0.36,19.05 -11.99,44.45 -51.86,44.45 -21.52,0 -41.98,-8.82 -50.8,-14.46l-8.46 23.99z"/>
  <path id="1" class="fil2" d="M5337.93 16229.11c-46.57,0 -79.73,42.34 -79.73,119.24 0.71,75.85 31.04,117.83 75.85,117.83 50.8,0 79.73,-43.04 79.73,-121 0,-73.03 -27.52,-116.07 -75.85,-116.07zm-1.77 23.99c32.11,0 46.57,37.04 46.57,93.49 0,58.56 -15.17,95.6 -46.92,95.6 -28.22,0 -46.57,-33.87 -46.57,-93.49 0,-62.44 19.76,-95.6 46.92,-95.6z"/>
  <path class="fil2" d="M4786.45 17202.09l0 -25.75 -103.01 0 0 -0.71 18.34 -16.93c48.33,-46.57 79.02,-80.79 79.02,-123.12 0,-32.81 -20.81,-66.68 -70.2,-66.68 -26.46,0 -49.04,9.88 -64.91,23.29l9.88 21.87c10.58,-8.82 27.87,-19.4 48.68,-19.4 34.22,0 45.51,21.51 45.51,44.8 -0.35,34.57 -26.81,64.2 -85.37,119.94l-24.34 23.64 0 19.05 146.4 0z"/>
  <path id="1" class="fil2" d="M4897.58 16968.9c-46.57,0 -79.73,42.34 -79.73,119.24 0.71,75.85 31.04,117.83 75.85,117.83 50.8,0 79.73,-43.04 79.73,-121 0,-73.03 -27.52,-116.07 -75.85,-116.07zm-1.77 23.99c32.11,0 46.57,37.04 46.57,93.49 0,58.56 -15.17,95.6 -46.92,95.6 -28.22,0 -46.57,-33.87 -46.57,-93.49 0,-62.44 19.76,-95.6 46.92,-95.6z"/>
  <polygon class="fil2" points="4288.32,17941.87 4318.3,17941.87 4318.3,17712.56 4291.84,17712.56 4241.75,17739.37 4247.75,17763.01 4287.61,17741.49 4288.32,17741.49 "/>
  <path id="1" class="fil2" d="M4478.47 17708.68c-46.57,0 -79.73,42.34 -79.73,119.24 0.71,75.85 31.04,117.83 75.85,117.83 50.8,0 79.73,-43.04 79.73,-121 0,-73.03 -27.52,-116.07 -75.85,-116.07zm-1.77 23.99c32.11,0 46.57,37.04 46.57,93.49 0,58.56 -15.17,95.6 -46.92,95.6 -28.22,0 -46.57,-33.87 -46.57,-93.49 0,-62.44 19.76,-95.6 46.92,-95.6z"/>
  <polygon class="fil2" points="11868.12,18816.38 11883.11,18842.37 12081.61,18727.72 12068.39,18704.79 12020.17,18674.86 12002.71,18691.86 12041.21,18715.61 12041.58,18716.19 "/>
  <path id="1" class="fil2" d="M12165.11 18864.52c-23.29,-40.33 -76.56,-47.92 -143.12,-9.46 -65.32,38.51 -86.48,85.77 -64.09,124.59 25.41,43.98 77.09,47.5 144.58,8.52 63.28,-36.51 86.73,-81.84 62.63,-123.65zm-21.7 10.47c16.05,27.75 -8.76,58.79 -57.62,87.02 -50.74,29.27 -90.38,34.63 -106.24,7.17 -14.12,-24.46 6.05,-57.27 57.67,-87.08 54.03,-31.16 92.61,-30.63 106.19,-7.11z"/>
  <path class="fil2" d="M11055.47 18898.2l22.28 -12.87 -51.5 -89.2 0.58 -0.35 23.88 7.41c64.44,18.58 109.42,28.04 146.11,6.87 28.4,-16.39 47.27,-51.32 22.64,-94.13 -13.24,-22.86 -33.11,-37.51 -52.63,-44.57l-13.99 19.53c12.93,4.76 30.69,14.4 41.09,32.46 17.11,29.62 4.12,50.15 -15.99,61.79 -30.16,16.93 -69.02,8.87 -146.58,-13.99l-32.63 -9.23 -16.47 9.52 73.21 126.76z"/>
  <path id="1" class="fil2" d="M11312.94 18877.9c-23.28,-40.33 -76.55,-47.92 -143.11,-9.46 -65.33,38.51 -86.49,85.77 -64.09,124.59 25.4,43.98 77.08,47.5 144.58,8.52 63.27,-36.51 86.73,-81.84 62.62,-123.65zm-21.7 10.47c16.06,27.75 -8.76,58.79 -57.62,87.02 -50.74,29.27 -90.37,34.63 -106.24,7.17 -14.12,-24.46 6.05,-57.27 57.68,-87.08 54.03,-31.16 92.6,-30.63 106.18,-7.11z"/>
  <path class="fil2" d="M4980.83 18786.48c3.41,6.59 8.64,14.94 15.82,23.81 14.75,20.01 36.1,35.82 59.91,42.4 30.22,8.65 69.2,5.64 112.89,-19.58 50.69,-29.22 69.2,-73.31 45.8,-113.95 -23.46,-40.62 -72.14,-48.79 -109.71,-27.1 -33.93,19.58 -47.57,58.04 -26.93,93.78 11.47,19.82 28.57,31.11 48.33,34.34l0.53 0.94c-25.64,9.94 -48.51,10.53 -67.97,4.24 -17.23,-5.12 -32.1,-16.06 -43.21,-30.41 -6.24,-8.64 -10.71,-15.04 -13.47,-21.16l-21.99 12.69zm212.67 -57.67c16.22,28.1 -2.47,55.62 -36.4,75.2 -4.29,2.47 -7.82,3.3 -11.17,3.23 -15.99,-0.17 -32.93,-9.11 -43.34,-27.1 -13.4,-23.23 -4.64,-48.28 20.12,-62.56 28.1,-16.23 57.61,-11.65 70.79,11.23z"/>
  <path id="1" class="fil2" d="M5305.57 18875.6c-23.29,-40.33 -76.56,-47.92 -143.12,-9.46 -65.32,38.52 -86.48,85.78 -64.09,124.59 25.41,43.98 77.09,47.5 144.58,8.52 63.28,-36.51 86.73,-81.84 62.63,-123.65zm-21.7 10.48c16.05,27.75 -8.76,58.78 -57.62,87.02 -50.74,29.27 -90.38,34.62 -106.24,7.17 -14.12,-24.46 6.05,-57.27 57.67,-87.09 54.03,-31.16 92.61,-30.62 106.19,-7.1z"/>
  <path class="fil2" d="M5868.57 18835.4c21.88,37.87 62.15,54.1 96.67,34.17 24.15,-13.94 32.74,-39.28 28.22,-69.68l0.94 -0.53c25.69,17.76 48.5,15.59 65.27,5.88 24.75,-14.23 37.74,-47.44 15.57,-85.9 -20.11,-34.81 -56.85,-49.03 -88.32,-30.93 -17.1,9.88 -28.75,29.22 -26.45,57.21l-0.71 0.89c-24.52,-18.47 -50.85,-23.23 -75.9,-8.77 -28.98,16.76 -39.27,56.1 -15.29,97.66zm19.87 -10.7c-14.63,-25.33 -5.7,-50.86 14.94,-61.55 18.93,-10.95 41.45,-7.24 61.56,12.11 7.87,31.27 5.99,54.79 -18.11,68.73 -20.46,11.76 -44.45,4.82 -58.39,-19.29zm166.63 -95.77c13.94,24.1 2.94,43.09 -12.93,52.26 -18.05,10.41 -37.87,4.35 -53.51,-9.4 -7.11,-26.46 -5.11,-47.57 14.76,-59.03 17.12,-9.88 38.81,-6.13 51.68,16.17z"/>
  <path id="1" class="fil2" d="M6165.56 18875.78c-23.29,-40.33 -76.56,-47.92 -143.12,-9.46 -65.32,38.51 -86.48,85.77 -64.09,124.58 25.41,43.98 77.09,47.5 144.58,8.53 63.28,-36.51 86.73,-81.84 62.63,-123.65zm-21.7 10.47c16.05,27.75 -8.76,58.79 -57.62,87.02 -50.74,29.27 -90.38,34.63 -106.24,7.17 -14.12,-24.46 6.05,-57.27 57.67,-87.09 54.03,-31.15 92.61,-30.62 106.19,-7.1z"/>
  <polygon class="fil2" points="6881.63,18657.36 6859.29,18670.23 6915.38,18767.36 6914.79,18767.71 6689.43,18782.95 6705.47,18810.76 6936.19,18792.76 6953.89,18782.59 "/>
  <path id="1" class="fil2" d="M7011.63 18874.76c-23.28,-40.33 -76.55,-47.92 -143.11,-9.46 -65.33,38.52 -86.49,85.78 -64.09,124.59 25.4,43.98 77.08,47.5 144.58,8.52 63.27,-36.51 86.73,-81.84 62.62,-123.65zm-21.7 10.48c16.06,27.75 -8.76,58.78 -57.62,87.02 -50.74,29.27 -90.37,34.62 -106.24,7.17 -14.12,-24.46 6.05,-57.27 57.68,-87.09 54.03,-31.16 92.6,-30.62 106.18,-7.1z"/>
  <path class="fil2" d="M7808.73 18766.76c-2.83,-4.93 -7,-11.46 -12.82,-18.7 -17.53,-23.28 -40.28,-39.44 -65.97,-46.56 -30.87,-8.29 -69.79,-4.53 -108.89,18.05 -51.62,29.81 -68.56,76.61 -44.04,119.06 23.82,41.27 71.67,46.62 108.01,25.63 38.81,-22.39 49.86,-61.79 29.57,-96.89 -12.7,-21.99 -32.57,-32.52 -50.56,-34.75l-0.53 -0.94c35.28,-14.28 79.02,-9.76 110.35,28.34 5.65,6.94 10.01,13.76 12.88,19.47l22 -12.71zm-210.97 59.86c-16.22,-28.05 -0.76,-56.98 31.57,-76.44 4.89,-2.82 9.59,-3.88 13.71,-3.82 18.58,-1 37.28,8.17 46.62,24.34 14.29,24.75 6.53,50.8 -21.87,67.21 -28.39,16.4 -56.62,11.93 -70.03,-11.29z"/>
  <path id="1" class="fil2" d="M7872.41 18876.28c-23.29,-40.33 -76.56,-47.92 -143.12,-9.46 -65.32,38.51 -86.48,85.78 -64.09,124.59 25.41,43.98 77.09,47.5 144.58,8.52 63.28,-36.51 86.73,-81.84 62.63,-123.65zm-21.7 10.47c16.05,27.75 -8.76,58.79 -57.62,87.02 -50.74,29.27 -90.38,34.63 -106.24,7.17 -14.12,-24.46 6.05,-57.26 57.67,-87.08 54.03,-31.16 92.61,-30.63 106.19,-7.11z"/>
  <path class="fil2" d="M8654.96 18773.02l-54.8 -95.01 -102.71 42.21c5.11,6.82 11.46,14.94 17.99,26.23 22.92,39.74 14.46,67.44 -11,82.55 -26.58,15.34 -55.62,3.18 -70.21,-22.17 -10.4,-18.05 -13.64,-37.74 -13.52,-48.79l-24.34 5.05c-0.65,12.99 3.82,34.86 16.35,56.56 24.87,43.04 71.67,57.15 110.47,34.75 25.05,-14.46 34.75,-37.16 34.58,-57.85 0.29,-16.48 -5.18,-33.64 -14,-48.93 -4.23,-7.35 -7.29,-11.29 -10.52,-15.46l55.38 -21.81 43.75 75.73 22.58 -13.06z"/>
  <path id="1" class="fil2" d="M8718.7 18875.6c-23.29,-40.33 -76.56,-47.92 -143.12,-9.46 -65.32,38.52 -86.48,85.78 -64.09,124.59 25.41,43.98 77.09,47.5 144.58,8.52 63.28,-36.51 86.73,-81.84 62.63,-123.65zm-21.7 10.48c16.05,27.75 -8.76,58.78 -57.62,87.02 -50.74,29.27 -90.38,34.62 -106.24,7.17 -14.12,-24.46 6.05,-57.27 57.67,-87.09 54.03,-31.16 92.61,-30.62 106.19,-7.1z"/>
  <path class="fil2" d="M9326.68 18882.61l54.04 -31.22 16.04 27.81 21.11 -12.18 -16.05 -27.81 123.35 -71.26 -16.75 -28.99 -177.86 -15.4 -17.76 10.23 53.27 92.25 -54.03 31.22 14.64 25.35zm22.93 -133.83l0.59 -0.35 95.54 9.64c12.35,0.18 23.69,0.12 38.87,-0.46l0.53 0.94c-10.76,5.34 -21.29,11.05 -31.69,17.05l-66.27 38.27 -37.57 -65.09z"/>
  <path id="1" class="fil2" d="M9594.74 18880.64c-23.29,-40.33 -76.56,-47.92 -143.12,-9.46 -65.32,38.52 -86.48,85.78 -64.09,124.59 25.41,43.98 77.09,47.5 144.58,8.52 63.28,-36.51 86.73,-81.84 62.63,-123.65zm-21.7 10.48c16.05,27.75 -8.76,58.78 -57.62,87.02 -50.74,29.27 -90.38,34.62 -106.24,7.17 -14.12,-24.46 6.05,-57.27 57.67,-87.09 54.03,-31.16 92.61,-30.62 106.19,-7.1z"/>
  <path class="fil2" d="M10117.33 18762.38c-0.76,13.47 3.53,37.1 16.41,59.38 27.52,47.63 69.55,56.33 101.31,37.99 27.8,-16.05 34.69,-46.45 25.46,-73.73l0.64 -0.36c22.93,19.35 47.39,21.52 67.85,9.71 24.17,-13.94 37.11,-45.04 14.59,-84.14 -12.35,-21.4 -31.64,-37.16 -45.28,-43.1l-15.52 18.29c11.05,4.99 26.93,16.23 36.1,32.1 14.28,24.75 6.05,42.98 -9.81,52.09 -23.53,13.58 -47.93,-5.28 -59.22,-24.87l-8.64 -14.93 -20.17 11.64 8.64 14.93c15,26 17.59,57.92 -10.05,74.27 -16.34,9.81 -44.5,11.81 -64.38,-22.7 -10.76,-18.64 -13.4,-40.75 -12.88,-51.22l-25.05 4.65z"/>
  <path id="1" class="fil2" d="M10438.49 18875.6c-23.29,-40.33 -76.56,-47.92 -143.12,-9.46 -65.32,38.52 -86.48,85.78 -64.09,124.59 25.41,43.98 77.09,47.5 144.58,8.52 63.28,-36.51 86.73,-81.84 62.63,-123.65zm-21.7 10.48c16.05,27.75 -8.76,58.78 -57.62,87.02 -50.74,29.27 -90.38,34.62 -106.24,7.17 -14.12,-24.46 6.05,-57.27 57.67,-87.09 54.03,-31.16 92.61,-30.62 106.19,-7.1z"/>
  <polygon class="fil2" points="18503.02,9189.83 18518.01,9215.82 18716.51,9101.17 18703.29,9078.24 18655.07,9048.31 18637.61,9065.31 18676.11,9089.06 18676.48,9089.64 "/>
  <path id="1" class="fil2" d="M18800.01 9237.97c-23.29,-40.33 -76.56,-47.92 -143.12,-9.46 -65.32,38.51 -86.48,85.77 -64.09,124.59 25.41,43.98 77.09,47.5 144.58,8.52 63.28,-36.51 86.73,-81.84 62.63,-123.65zm-21.7 10.47c16.05,27.75 -8.76,58.79 -57.62,87.02 -50.74,29.27 -90.38,34.63 -106.24,7.17 -14.12,-24.46 6.05,-57.27 57.67,-87.08 54.03,-31.16 92.61,-30.63 106.19,-7.11z"/>
  <path class="fil2" d="M18134.26 10039.89l22.28 -12.87 -51.5 -89.2 0.58 -0.35 23.88 7.41c64.44,18.58 109.42,28.04 146.11,6.87 28.4,-16.39 47.27,-51.32 22.64,-94.13 -13.24,-22.86 -33.11,-37.51 -52.63,-44.57l-13.99 19.53c12.93,4.76 30.69,14.4 41.09,32.46 17.11,29.62 4.12,50.15 -15.99,61.79 -30.16,16.93 -69.02,8.87 -146.58,-13.99l-32.63 -9.23 -16.47 9.52 73.21 126.76z"/>
  <path id="1" class="fil2" d="M18391.73 10019.59c-23.28,-40.33 -76.55,-47.92 -143.11,-9.46 -65.33,38.51 -86.49,85.77 -64.09,124.59 25.4,43.98 77.08,47.5 144.58,8.52 63.27,-36.51 86.73,-81.84 62.62,-123.65zm-21.7 10.47c16.06,27.75 -8.76,58.79 -57.62,87.02 -50.74,29.27 -90.37,34.63 -106.24,7.17 -14.12,-24.46 6.05,-57.27 57.68,-87.08 54.03,-31.16 92.6,-30.63 106.18,-7.11z"/>
  <path class="fil2" d="M15143.82 15036.79c3.41,6.59 8.64,14.94 15.82,23.81 14.75,20.01 36.1,35.82 59.91,42.4 30.22,8.65 69.2,5.64 112.89,-19.58 50.69,-29.22 69.2,-73.31 45.8,-113.95 -23.46,-40.62 -72.14,-48.79 -109.71,-27.1 -33.93,19.58 -47.57,58.04 -26.93,93.78 11.47,19.82 28.57,31.11 48.33,34.34l0.53 0.94c-25.64,9.94 -48.51,10.53 -67.97,4.24 -17.23,-5.12 -32.1,-16.06 -43.21,-30.41 -6.24,-8.64 -10.71,-15.04 -13.47,-21.16l-21.99 12.69zm212.67 -57.67c16.22,28.1 -2.47,55.62 -36.4,75.2 -4.29,2.47 -7.82,3.3 -11.17,3.23 -15.99,-0.17 -32.93,-9.11 -43.34,-27.1 -13.4,-23.23 -4.64,-48.28 20.12,-62.56 28.1,-16.23 57.61,-11.65 70.79,11.23z"/>
  <path id="1" class="fil2" d="M15468.56 15125.91c-23.29,-40.33 -76.56,-47.92 -143.12,-9.46 -65.32,38.52 -86.48,85.78 -64.09,124.59 25.41,43.98 77.09,47.5 144.58,8.52 63.28,-36.51 86.73,-81.84 62.63,-123.65zm-21.7 10.48c16.05,27.75 -8.76,58.78 -57.62,87.02 -50.74,29.27 -90.38,34.62 -106.24,7.17 -14.12,-24.46 6.05,-57.27 57.67,-87.09 54.03,-31.16 92.61,-30.62 106.19,-7.1z"/>
  <path class="fil2" d="M15538.05 14421.95c21.88,37.87 62.15,54.1 96.67,34.17 24.15,-13.94 32.74,-39.28 28.22,-69.68l0.94 -0.53c25.69,17.76 48.5,15.59 65.27,5.88 24.75,-14.23 37.74,-47.44 15.57,-85.9 -20.11,-34.81 -56.85,-49.03 -88.32,-30.93 -17.1,9.88 -28.75,29.22 -26.45,57.21l-0.71 0.89c-24.52,-18.47 -50.85,-23.23 -75.9,-8.77 -28.98,16.76 -39.27,56.1 -15.29,97.66zm19.87 -10.7c-14.63,-25.33 -5.7,-50.86 14.94,-61.55 18.93,-10.95 41.45,-7.24 61.56,12.11 7.87,31.27 5.99,54.79 -18.11,68.73 -20.46,11.76 -44.45,4.82 -58.39,-19.29zm166.63 -95.77c13.94,24.1 2.94,43.09 -12.93,52.26 -18.05,10.41 -37.87,4.35 -53.51,-9.4 -7.11,-26.46 -5.11,-47.57 14.76,-59.03 17.12,-9.88 38.81,-6.13 51.68,16.17z"/>
  <path id="1" class="fil2" d="M15835.04 14462.33c-23.29,-40.33 -76.56,-47.92 -143.12,-9.46 -65.32,38.51 -86.48,85.77 -64.09,124.58 25.41,43.98 77.09,47.5 144.58,8.53 63.28,-36.51 86.73,-81.84 62.63,-123.65zm-21.7 10.47c16.05,27.75 -8.76,58.79 -57.62,87.02 -50.74,29.27 -90.38,34.63 -106.24,7.17 -14.12,-24.46 6.05,-57.27 57.67,-87.09 54.03,-31.15 92.61,-30.62 106.19,-7.1z"/>
  <polygon class="fil2" points="16087.15,13518.54 16064.81,13531.41 16120.9,13628.54 16120.31,13628.89 15894.95,13644.13 15910.99,13671.94 16141.71,13653.94 16159.41,13643.77 "/>
  <path id="1" class="fil2" d="M16217.15 13735.94c-23.28,-40.33 -76.55,-47.92 -143.11,-9.46 -65.33,38.52 -86.49,85.78 -64.09,124.59 25.4,43.98 77.08,47.5 144.58,8.52 63.27,-36.51 86.73,-81.84 62.62,-123.65zm-21.7 10.48c16.06,27.75 -8.76,58.78 -57.62,87.02 -50.74,29.27 -90.37,34.62 -106.24,7.17 -14.12,-24.46 6.05,-57.27 57.68,-87.09 54.03,-31.16 92.6,-30.62 106.18,-7.1z"/>
  <path class="fil2" d="M16606.56 12869.91c-2.83,-4.93 -7,-11.46 -12.82,-18.7 -17.53,-23.28 -40.28,-39.44 -65.97,-46.56 -30.87,-8.29 -69.79,-4.53 -108.89,18.05 -51.62,29.81 -68.56,76.61 -44.04,119.06 23.82,41.27 71.67,46.62 108.01,25.63 38.81,-22.39 49.86,-61.79 29.57,-96.89 -12.7,-21.99 -32.57,-32.52 -50.56,-34.75l-0.53 -0.94c35.28,-14.28 79.02,-9.76 110.35,28.34 5.65,6.94 10.01,13.76 12.88,19.47l22 -12.71zm-210.97 59.86c-16.22,-28.05 -0.76,-56.98 31.57,-76.44 4.89,-2.82 9.59,-3.88 13.71,-3.82 18.58,-1 37.28,8.17 46.62,24.34 14.29,24.75 6.53,50.8 -21.87,67.21 -28.39,16.4 -56.62,11.93 -70.03,-11.29z"/>
  <path id="1" class="fil2" d="M16670.24 12979.43c-23.29,-40.33 -76.56,-47.92 -143.12,-9.46 -65.32,38.51 -86.48,85.78 -64.09,124.59 25.41,43.98 77.09,47.5 144.58,8.52 63.28,-36.51 86.73,-81.84 62.63,-123.65zm-21.7 10.47c16.05,27.75 -8.76,58.79 -57.62,87.02 -50.74,29.27 -90.38,34.63 -106.24,7.17 -14.12,-24.46 6.05,-57.26 57.67,-87.08 54.03,-31.16 92.61,-30.63 106.19,-7.11z"/>
  <path class="fil2" d="M17014.83 12121.8l-54.8 -95.01 -102.71 42.21c5.11,6.82 11.46,14.94 17.99,26.23 22.92,39.74 14.46,67.44 -11,82.55 -26.58,15.34 -55.62,3.18 -70.21,-22.17 -10.4,-18.05 -13.64,-37.74 -13.52,-48.79l-24.34 5.05c-0.65,12.99 3.82,34.86 16.35,56.56 24.87,43.04 71.67,57.15 110.47,34.75 25.05,-14.46 34.75,-37.16 34.58,-57.85 0.29,-16.48 -5.18,-33.64 -14,-48.93 -4.23,-7.35 -7.29,-11.29 -10.52,-15.46l55.38 -21.81 43.75 75.73 22.58 -13.06z"/>
  <path id="1" class="fil2" d="M17078.57 12224.38c-23.29,-40.33 -76.56,-47.92 -143.12,-9.46 -65.32,38.52 -86.48,85.78 -64.09,124.59 25.41,43.98 77.09,47.5 144.58,8.52 63.28,-36.51 86.73,-81.84 62.63,-123.65zm-21.7 10.48c16.05,27.75 -8.76,58.78 -57.62,87.02 -50.74,29.27 -90.38,34.62 -106.24,7.17 -14.12,-24.46 6.05,-57.27 57.67,-87.09 54.03,-31.16 92.61,-30.62 106.19,-7.1z"/>
  <path class="fil2" d="M17223.46 11503.61l54.04 -31.22 16.04 27.81 21.11 -12.18 -16.05 -27.81 123.35 -71.26 -16.75 -28.99 -177.86 -15.4 -17.76 10.23 53.27 92.25 -54.03 31.22 14.64 25.35zm22.93 -133.83l0.59 -0.35 95.54 9.64c12.35,0.18 23.69,0.12 38.87,-0.46l0.53 0.94c-10.76,5.34 -21.29,11.05 -31.69,17.05l-66.27 38.27 -37.57 -65.09z"/>
  <path id="1" class="fil2" d="M17491.52 11501.64c-23.29,-40.33 -76.56,-47.92 -143.12,-9.46 -65.32,38.52 -86.48,85.78 -64.09,124.59 25.41,43.98 77.09,47.5 144.58,8.52 63.28,-36.51 86.73,-81.84 62.63,-123.65zm-21.7 10.48c16.05,27.75 -8.76,58.78 -57.62,87.02 -50.74,29.27 -90.38,34.62 -106.24,7.17 -14.12,-24.46 6.05,-57.27 57.67,-87.09 54.03,-31.16 92.61,-30.62 106.19,-7.1z"/>
  <path class="fil2" d="M17613.89 10646.1c-0.76,13.47 3.53,37.1 16.41,59.38 27.52,47.63 69.55,56.33 101.31,37.99 27.8,-16.05 34.69,-46.45 25.46,-73.73l0.64 -0.36c22.93,19.35 47.39,21.52 67.85,9.71 24.17,-13.94 37.11,-45.04 14.59,-84.14 -12.35,-21.4 -31.64,-37.16 -45.28,-43.1l-15.52 18.29c11.05,4.99 26.93,16.23 36.1,32.1 14.28,24.75 6.05,42.98 -9.81,52.09 -23.53,13.58 -47.93,-5.28 -59.22,-24.87l-8.64 -14.93 -20.17 11.64 8.64 14.93c15,26 17.59,57.92 -10.05,74.27 -16.34,9.81 -44.5,11.81 -64.38,-22.7 -10.76,-18.64 -13.4,-40.75 -12.88,-51.22l-25.05 4.65z"/>
  <path id="1" class="fil2" d="M17935.05 10759.32c-23.29,-40.33 -76.56,-47.92 -143.12,-9.46 -65.32,38.52 -86.48,85.78 -64.09,124.59 25.41,43.98 77.09,47.5 144.58,8.52 63.28,-36.51 86.73,-81.84 62.63,-123.65zm-21.7 10.48c16.05,27.75 -8.76,58.78 -57.62,87.02 -50.74,29.27 -90.38,34.62 -106.24,7.17 -14.12,-24.46 6.05,-57.27 57.67,-87.09 54.03,-31.16 92.61,-30.62 106.19,-7.1z"/>
  <polygon class="fil2" points="10304.48,7178.99 10319.47,7204.98 10517.97,7090.33 10504.75,7067.4 10456.53,7037.47 10439.07,7054.47 10477.57,7078.22 10477.94,7078.8 "/>
  <path id="1" class="fil2" d="M10601.47 7227.13c-23.29,-40.33 -76.56,-47.92 -143.12,-9.46 -65.32,38.51 -86.48,85.77 -64.09,124.59 25.41,43.98 77.09,47.5 144.58,8.52 63.28,-36.51 86.73,-81.84 62.63,-123.65zm-21.7 10.47c16.05,27.75 -8.76,58.79 -57.62,87.02 -50.74,29.27 -90.38,34.63 -106.24,7.17 -14.12,-24.46 6.05,-57.27 57.67,-87.08 54.03,-31.16 92.61,-30.63 106.19,-7.11z"/>
  <path class="fil2" d="M10778.84 6481.24l22.28 -12.87 -51.5 -89.2 0.58 -0.35 23.88 7.41c64.44,18.58 109.42,28.04 146.11,6.87 28.4,-16.39 47.27,-51.32 22.64,-94.13 -13.24,-22.86 -33.11,-37.51 -52.63,-44.57l-13.99 19.53c12.93,4.76 30.69,14.4 41.09,32.46 17.11,29.62 4.12,50.15 -15.99,61.79 -30.16,16.93 -69.02,8.87 -146.58,-13.99l-32.63 -9.23 -16.47 9.52 73.21 126.76z"/>
  <path id="1" class="fil2" d="M11036.31 6460.94c-23.28,-40.33 -76.55,-47.92 -143.11,-9.46 -65.33,38.51 -86.49,85.77 -64.09,124.59 25.4,43.98 77.08,47.5 144.58,8.52 63.27,-36.51 86.73,-81.84 62.62,-123.65zm-21.7 10.47c16.06,27.75 -8.76,58.79 -57.62,87.02 -50.74,29.27 -90.37,34.63 -106.24,7.17 -14.12,-24.46 6.05,-57.27 57.68,-87.08 54.03,-31.16 92.6,-30.63 106.18,-7.11z"/>
  <path class="fil2" d="M13705.39 1226.78c3.41,6.59 8.64,14.94 15.82,23.81 14.75,20.01 36.1,35.82 59.91,42.4 30.22,8.65 69.2,5.64 112.89,-19.58 50.69,-29.22 69.2,-73.31 45.8,-113.95 -23.46,-40.62 -72.14,-48.79 -109.71,-27.1 -33.93,19.58 -47.57,58.04 -26.93,93.78 11.47,19.82 28.57,31.11 48.33,34.34l0.53 0.94c-25.64,9.94 -48.51,10.53 -67.97,4.24 -17.23,-5.12 -32.1,-16.06 -43.21,-30.41 -6.24,-8.64 -10.71,-15.04 -13.47,-21.16l-21.99 12.69zm212.67 -57.67c16.22,28.1 -2.47,55.62 -36.4,75.2 -4.29,2.47 -7.82,3.3 -11.17,3.23 -15.99,-0.17 -32.93,-9.11 -43.34,-27.1 -13.4,-23.23 -4.64,-48.28 20.12,-62.56 28.1,-16.23 57.61,-11.65 70.79,11.23z"/>
  <path id="1" class="fil2" d="M14030.13 1315.9c-23.29,-40.33 -76.56,-47.92 -143.12,-9.46 -65.32,38.52 -86.48,85.78 -64.09,124.59 25.41,43.98 77.09,47.5 144.58,8.52 63.28,-36.51 86.73,-81.84 62.63,-123.65zm-21.7 10.48c16.05,27.75 -8.76,58.78 -57.62,87.02 -50.74,29.27 -90.38,34.62 -106.24,7.17 -14.12,-24.46 6.05,-57.27 57.67,-87.09 54.03,-31.16 92.61,-30.62 106.19,-7.1z"/>
  <path class="fil2" d="M13309.41 1990.06c21.88,37.87 62.15,54.1 96.67,34.17 24.15,-13.94 32.74,-39.28 28.22,-69.68l0.94 -0.53c25.69,17.76 48.5,15.59 65.27,5.88 24.75,-14.23 37.74,-47.44 15.57,-85.9 -20.11,-34.81 -56.85,-49.03 -88.32,-30.93 -17.1,9.88 -28.75,29.22 -26.45,57.21l-0.71 0.89c-24.52,-18.47 -50.85,-23.23 -75.9,-8.77 -28.98,16.76 -39.27,56.1 -15.29,97.66zm19.87 -10.7c-14.63,-25.33 -5.7,-50.86 14.94,-61.55 18.93,-10.95 41.45,-7.24 61.56,12.11 7.87,31.27 5.99,54.79 -18.11,68.73 -20.46,11.76 -44.45,4.82 -58.39,-19.29zm166.63 -95.77c13.94,24.1 2.94,43.09 -12.93,52.26 -18.05,10.41 -37.87,4.35 -53.51,-9.4 -7.11,-26.46 -5.11,-47.57 14.76,-59.03 17.12,-9.88 38.81,-6.13 51.68,16.17z"/>
  <path id="1" class="fil2" d="M13606.4 2030.44c-23.29,-40.33 -76.56,-47.92 -143.12,-9.46 -65.32,38.51 -86.48,85.77 -64.09,124.58 25.41,43.98 77.09,47.5 144.58,8.53 63.28,-36.51 86.73,-81.84 62.63,-123.65zm-21.7 10.47c16.05,27.75 -8.76,58.79 -57.62,87.02 -50.74,29.27 -90.38,34.63 -106.24,7.17 -14.12,-24.46 6.05,-57.27 57.67,-87.09 54.03,-31.15 92.61,-30.62 106.19,-7.1z"/>
  <polygon class="fil2" points="13031.21,2562.49 13008.87,2575.36 13064.96,2672.49 13064.37,2672.84 12839.01,2688.08 12855.05,2715.89 13085.77,2697.89 13103.47,2687.72 "/>
  <path id="1" class="fil2" d="M13161.21 2779.89c-23.28,-40.33 -76.55,-47.92 -143.11,-9.46 -65.33,38.52 -86.49,85.78 -64.09,124.59 25.4,43.98 77.08,47.5 144.58,8.52 63.27,-36.51 86.73,-81.84 62.62,-123.65zm-21.7 10.48c16.06,27.75 -8.76,58.78 -57.62,87.02 -50.74,29.27 -90.37,34.62 -106.24,7.17 -14.12,-24.46 6.05,-57.27 57.68,-87.09 54.03,-31.16 92.6,-30.62 106.18,-7.1z"/>
  <path class="fil2" d="M12706.37 3435.66c-2.83,-4.93 -7,-11.46 -12.82,-18.7 -17.53,-23.28 -40.28,-39.44 -65.97,-46.56 -30.87,-8.29 -69.79,-4.53 -108.89,18.05 -51.62,29.81 -68.56,76.61 -44.04,119.06 23.82,41.27 71.67,46.62 108.01,25.63 38.81,-22.39 49.86,-61.79 29.57,-96.89 -12.7,-21.99 -32.57,-32.52 -50.56,-34.75l-0.53 -0.94c35.28,-14.28 79.02,-9.76 110.35,28.34 5.65,6.94 10.01,13.76 12.88,19.47l22 -12.71zm-210.97 59.86c-16.22,-28.05 -0.76,-56.98 31.57,-76.44 4.89,-2.82 9.59,-3.88 13.71,-3.82 18.58,-1 37.28,8.17 46.62,24.34 14.29,24.75 6.53,50.8 -21.87,67.21 -28.39,16.4 -56.62,11.93 -70.03,-11.29z"/>
  <path id="1" class="fil2" d="M12770.05 3545.18c-23.29,-40.33 -76.56,-47.92 -143.12,-9.46 -65.32,38.51 -86.48,85.78 -64.09,124.59 25.41,43.98 77.09,47.5 144.58,8.52 63.28,-36.51 86.73,-81.84 62.63,-123.65zm-21.7 10.47c16.05,27.75 -8.76,58.79 -57.62,87.02 -50.74,29.27 -90.38,34.63 -106.24,7.17 -14.12,-24.46 6.05,-57.26 57.67,-87.08 54.03,-31.16 92.61,-30.63 106.19,-7.11z"/>
  <path class="fil2" d="M12282.33 4167.66l-54.8 -95.01 -102.71 42.21c5.11,6.82 11.46,14.94 17.99,26.23 22.92,39.74 14.46,67.44 -11,82.55 -26.58,15.34 -55.62,3.18 -70.21,-22.17 -10.4,-18.05 -13.64,-37.74 -13.52,-48.79l-24.34 5.05c-0.65,12.99 3.82,34.86 16.35,56.56 24.87,43.04 71.67,57.15 110.47,34.75 25.05,-14.46 34.75,-37.16 34.58,-57.85 0.29,-16.48 -5.18,-33.64 -14,-48.93 -4.23,-7.35 -7.29,-11.29 -10.52,-15.46l55.38 -21.81 43.75 75.73 22.58 -13.06z"/>
  <path id="1" class="fil2" d="M12346.07 4270.24c-23.29,-40.33 -76.56,-47.92 -143.12,-9.46 -65.32,38.52 -86.48,85.78 -64.09,124.59 25.41,43.98 77.09,47.5 144.58,8.52 63.28,-36.51 86.73,-81.84 62.63,-123.65zm-21.7 10.48c16.05,27.75 -8.76,58.78 -57.62,87.02 -50.74,29.27 -90.38,34.62 -106.24,7.17 -14.12,-24.46 6.05,-57.27 57.67,-87.09 54.03,-31.16 92.61,-30.62 106.19,-7.1z"/>
  <path class="fil2" d="M11614.29 5014.68l54.04 -31.22 16.04 27.81 21.11 -12.18 -16.05 -27.81 123.35 -71.26 -16.75 -28.99 -177.86 -15.4 -17.76 10.23 53.27 92.25 -54.03 31.22 14.64 25.35zm22.93 -133.83l0.59 -0.35 95.54 9.64c12.35,0.18 23.69,0.12 38.87,-0.46l0.53 0.94c-10.76,5.34 -21.29,11.05 -31.69,17.05l-66.27 38.27 -37.57 -65.09z"/>
  <path id="1" class="fil2" d="M11882.35 5012.71c-23.29,-40.33 -76.56,-47.92 -143.12,-9.46 -65.32,38.52 -86.48,85.78 -64.09,124.59 25.41,43.98 77.09,47.5 144.58,8.52 63.28,-36.51 86.73,-81.84 62.63,-123.65zm-21.7 10.48c16.05,27.75 -8.76,58.78 -57.62,87.02 -50.74,29.27 -90.38,34.62 -106.24,7.17 -14.12,-24.46 6.05,-57.27 57.67,-87.09 54.03,-31.16 92.61,-30.62 106.19,-7.1z"/>
  <path class="fil2" d="M11138.38 5645.46c-0.76,13.47 3.53,37.1 16.41,59.38 27.52,47.63 69.55,56.33 101.31,37.99 27.8,-16.05 34.69,-46.45 25.46,-73.73l0.64 -0.36c22.93,19.35 47.39,21.52 67.85,9.71 24.17,-13.94 37.11,-45.04 14.59,-84.14 -12.35,-21.4 -31.64,-37.16 -45.28,-43.1l-15.52 18.29c11.05,4.99 26.93,16.23 36.1,32.1 14.28,24.75 6.05,42.98 -9.81,52.09 -23.53,13.58 -47.93,-5.28 -59.22,-24.87l-8.64 -14.93 -20.17 11.64 8.64 14.93c15,26 17.59,57.92 -10.05,74.27 -16.34,9.81 -44.5,11.81 -64.38,-22.7 -10.76,-18.64 -13.4,-40.75 -12.88,-51.22l-25.05 4.65z"/>
  <path id="1" class="fil2" d="M11459.54 5758.68c-23.29,-40.33 -76.56,-47.92 -143.12,-9.46 -65.32,38.52 -86.48,85.78 -64.09,124.59 25.41,43.98 77.09,47.5 144.58,8.52 63.28,-36.51 86.73,-81.84 62.63,-123.65zm-21.7 10.48c16.05,27.75 -8.76,58.78 -57.62,87.02 -50.74,29.27 -90.38,34.62 -106.24,7.17 -14.12,-24.46 6.05,-57.27 57.67,-87.09 54.03,-31.16 92.61,-30.62 106.19,-7.1z"/>
  <polygon class="fil2" points="18636.38,7394.12 18651.37,7368.14 18452.82,7253.54 18439.59,7276.48 18437.77,7333.21 18461.23,7339.86 18462.52,7294.58 18462.87,7293.94 "/>
  <path id="1" class="fil2" d="M18529.55 7112.92c-23.28,40.27 -3.18,90.13 63.38,128.58 66.03,37.34 117.53,32.05 139.94,-6.76 25.4,-43.98 2.59,-90.54 -64.91,-129.52 -63.21,-36.46 -114.25,-34.16 -138.41,7.7zm19.87 13.46c16.05,-27.75 55.39,-21.76 104.25,6.4 50.68,29.29 75.2,60.99 59.33,88.44 -14.11,24.46 -52.63,23.4 -104.25,-6.41 -54.03,-31.21 -72.91,-64.9 -59.33,-88.43z"/>
  <path class="fil2" d="M18291.62 6555.32l-22.34 -12.88 -51.45 89.2 -0.64 -0.35 -5.47 -24.35c-16.18,-65.08 -30.46,-108.77 -67.09,-129.94 -28.4,-16.4 -68.15,-15.28 -92.84,27.46 -13.23,22.88 -15.94,47.39 -12.29,67.85l23.87 2.36c-2.35,-13.59 -2.88,-33.81 7.53,-51.86 17.11,-29.63 41.39,-28.64 61.55,-17 29.76,17.59 42.17,55.34 61.16,133.89l8.28 32.86 16.52 9.53 73.21 -126.77z"/>
  <path id="1" class="fil2" d="M18145.28 6342.55c-23.28,40.28 -3.18,90.14 63.38,128.59 66.03,37.34 117.53,32.05 139.94,-6.76 25.4,-43.98 2.59,-90.54 -64.92,-129.53 -63.2,-36.46 -114.24,-34.16 -138.4,7.7zm19.87 13.47c16.05,-27.75 55.39,-21.76 104.25,6.4 50.68,29.29 75.2,60.98 59.33,88.44 -14.11,24.46 -52.63,23.4 -104.26,-6.41 -54.03,-31.22 -72.9,-64.91 -59.32,-88.43z"/>
  <path class="fil2" d="M15220.8 1511.2c4,-6.22 8.64,-14.93 12.77,-25.57 9.87,-22.81 12.87,-49.21 6.75,-73.08 -7.64,-30.52 -29.74,-62.8 -73.43,-88.02 -50.69,-29.28 -98.13,-23.29 -121.6,17.34 -23.45,40.63 -6.16,86.84 31.4,108.54 33.93,19.58 74.03,12.24 94.66,-23.52 11.47,-19.86 12.71,-40.33 5.6,-59.09l0.52 -0.94c21.4,17.29 33.34,36.81 37.69,56.8 4.18,17.46 2.12,35.87 -4.76,52.68 -4.36,9.64 -7.65,16.76 -11.59,22.17l21.99 12.69zm-156.28 -155.33c16.23,-28.11 49.45,-25.64 83.32,-6.06 4.29,2.48 6.82,5.11 8.34,8.05 7.88,13.94 8.65,33.05 -1.76,51.1 -13.4,23.23 -39.45,28.1 -64.2,13.81 -28.11,-16.17 -38.93,-44.03 -25.7,-66.9z"/>
  <path id="1" class="fil2" d="M15135.61 1185.49c-23.28,40.27 -3.18,90.14 63.38,128.59 66.03,37.33 117.53,32.05 139.94,-6.76 25.4,-43.98 2.59,-90.55 -64.91,-129.53 -63.21,-36.46 -114.25,-34.16 -138.41,7.7zm19.87 13.47c16.05,-27.76 55.39,-21.76 104.25,6.4 50.68,29.29 75.2,60.98 59.33,88.43 -14.11,24.47 -52.63,23.4 -104.26,-6.4 -54.03,-31.22 -72.9,-64.91 -59.32,-88.43z"/>
  <path class="fil2" d="M15718.09 2222.58c21.87,-37.86 15.76,-80.9 -18.76,-100.83 -24.1,-13.94 -50.39,-8.7 -74.43,10.4l-0.88 -0.53c2.47,-31.1 -10.76,-49.8 -27.58,-59.5 -24.75,-14.29 -59.98,-8.93 -82.2,29.52 -20.11,34.86 -14.05,73.73 17.41,91.89 17.11,9.88 39.69,10.29 62.73,-5.7l1.12 0.24c-3.7,30.4 5.35,55.62 30.4,70.09 28.99,16.75 68.2,5.99 92.19,-35.58zm-19.23 -11.88c-14.57,25.35 -41.15,30.4 -60.79,17.82 -18.93,-10.93 -26.93,-32.22 -20.29,-59.32 23.17,-22.47 44.46,-32.58 68.61,-18.64 20.47,11.81 26.41,36.04 12.47,60.14zm-166.27 -96.43c13.94,-24.1 35.92,-24.04 51.8,-14.87 17.99,10.41 22.63,30.57 18.58,51.04 -19.35,19.41 -38.69,28.17 -58.5,16.7 -17.11,-9.88 -24.76,-30.58 -11.88,-52.87z"/>
  <path id="1" class="fil2" d="M15604.56 1945.26c-23.28,40.27 -3.18,90.13 63.38,128.58 66.03,37.34 117.53,32.05 139.94,-6.75 25.4,-43.99 2.59,-90.55 -64.92,-129.53 -63.2,-36.46 -114.24,-34.16 -138.4,7.7zm19.87 13.46c16.05,-27.75 55.39,-21.76 104.25,6.4 50.68,29.29 75.2,60.99 59.33,88.44 -14.11,24.46 -52.63,23.4 -104.26,-6.41 -54.03,-31.21 -72.9,-64.9 -59.32,-88.43z"/>
  <polygon class="fil2" points="15903.64,2872.83 15925.98,2885.71 15982.02,2788.58 15982.67,2788.93 16108.55,2976.49 16124.6,2948.68 15993.66,2757.89 15975.96,2747.66 "/>
  <path id="1" class="fil2" d="M16026.94 2651.6c-23.28,40.27 -3.18,90.13 63.38,128.59 66.03,37.33 117.53,32.04 139.94,-6.76 25.4,-43.98 2.59,-90.55 -64.91,-129.53 -63.21,-36.46 -114.25,-34.16 -138.41,7.7zm19.87 13.47c16.05,-27.76 55.39,-21.76 104.25,6.4 50.68,29.29 75.2,60.98 59.33,88.43 -14.11,24.46 -52.63,23.4 -104.26,-6.4 -54.03,-31.22 -72.9,-64.91 -59.32,-88.43z"/>
  <path class="fil2" d="M16347.3 3513.01c-2.83,4.88 -6.41,11.76 -9.77,20.4 -11.4,26.81 -13.98,54.62 -7.34,80.43 8.29,30.87 30.98,62.74 70.08,85.32 51.62,29.75 100.67,21.05 125.18,-21.4 23.81,-41.28 4.47,-85.38 -31.86,-106.37 -38.81,-22.4 -78.45,-12.28 -98.73,22.82 -12.7,21.98 -11.81,44.5 -4.76,61.21l-0.53 0.87c-30.04,-23.45 -47.98,-63.55 -30.69,-109.77 3.17,-8.34 6.94,-15.52 10.41,-20.87l-21.99 -12.64zm157.39 152.75c-16.22,28.1 -49.03,29.1 -82.02,10.88 -4.94,-2.82 -8.17,-6.35 -10.17,-9.94 -10.11,-15.64 -11.58,-36.4 -2.23,-52.61 14.28,-24.76 40.74,-31.05 69.15,-14.65 28.39,16.4 38.68,43.09 25.27,66.32z"/>
  <path id="1" class="fil2" d="M16410.33 3403.14c-23.28,40.27 -3.18,90.13 63.38,128.58 66.03,37.34 117.53,32.05 139.94,-6.76 25.4,-43.98 2.59,-90.54 -64.91,-129.53 -63.21,-36.45 -114.25,-34.15 -138.41,7.71zm19.87 13.46c16.05,-27.75 55.39,-21.76 104.25,6.4 50.68,29.29 75.2,60.99 59.33,88.44 -14.11,24.46 -52.63,23.4 -104.26,-6.41 -54.03,-31.22 -72.9,-64.91 -59.32,-88.43z"/>
  <path class="fil2" d="M16795.65 4261.12l-54.86 95.01 87.91 67.85c3.29,-7.88 7.23,-17.46 13.75,-28.74 22.93,-39.7 51.09,-46.22 76.96,-31.7 26.52,15.35 30.51,46.51 15.88,71.91 -10.41,17.99 -25.87,30.63 -35.52,36.1l16.59 18.51c11.58,-5.93 28.28,-20.74 40.8,-42.44 24.87,-43.04 13.64,-90.67 -25.1,-113.07 -25.06,-14.46 -49.57,-11.46 -67.45,-1 -14.4,7.94 -26.57,21.29 -35.39,36.58 -4.24,7.34 -6.05,11.93 -8.11,16.87l-46.57 -37.1 43.69 -75.73 -22.58 -13.05z"/>
  <path id="1" class="fil2" d="M16852.63 4154.71c-23.29,40.27 -3.19,90.13 63.37,128.59 66.03,37.33 117.54,32.05 139.94,-6.76 25.4,-43.98 2.59,-90.55 -64.91,-129.53 -63.21,-36.46 -114.25,-34.16 -138.4,7.7zm19.86 13.47c16.05,-27.76 55.4,-21.76 104.25,6.4 50.69,29.29 75.2,60.98 59.33,88.43 -14.11,24.46 -52.63,23.4 -104.25,-6.4 -54.03,-31.22 -72.91,-64.91 -59.33,-88.43z"/>
  <path class="fil2" d="M17387.92 5166.11l-54.09 -31.22 16.05 -27.75 -21.05 -12.18 -16.05 27.75 -123.42 -71.19 -16.76 28.98 75.62 161.75 17.76 10.23 53.21 -92.25 54.09 31.23 14.64 -25.35zm-127.35 47.03l-0.59 -0.34 -39.52 -87.55c-5.93,-10.76 -11.7,-20.58 -19.74,-33.4l0.51 -0.94c10,6.58 20.24,12.93 30.65,18.93l66.25 38.22 -37.56 65.08z"/>
  <path id="1" class="fil2" d="M17252.16 4935c-23.28,40.27 -3.18,90.13 63.38,128.58 66.03,37.34 117.53,32.05 139.94,-6.75 25.4,-43.98 2.59,-90.55 -64.91,-129.53 -63.21,-36.46 -114.25,-34.16 -138.41,7.7zm19.87 13.47c16.05,-27.76 55.39,-21.76 104.25,6.4 50.69,29.28 75.2,60.98 59.33,88.43 -14.11,24.46 -52.63,23.4 -104.25,-6.4 -54.03,-31.22 -72.91,-64.91 -59.33,-88.43z"/>
  <path class="fil2" d="M17777.55 5971.3c12.06,-6.06 30.34,-21.58 43.21,-43.86 27.53,-47.63 14,-88.43 -17.75,-106.77 -27.81,-16.06 -57.62,-6.77 -76.61,14.81l-0.59 -0.36c5.24,-29.51 -5.12,-51.79 -25.58,-63.61 -24.1,-13.94 -57.56,-9.64 -80.14,29.46 -12.34,21.4 -16.35,45.98 -14.7,60.74l23.58 4.28c-1.17,-12.11 0.65,-31.39 9.82,-47.26 14.29,-24.76 34.16,-26.76 50.04,-17.59 23.51,13.59 19.28,44.16 8,63.68l-8.65 15 20.17 11.63 8.64 -14.99c14.99,-25.93 41.39,-44.1 69.33,-28.34 16.69,9.17 32.5,32.58 12.58,67.09 -10.76,18.63 -28.64,31.93 -37.93,36.75l16.58 19.34z"/>
  <path id="1" class="fil2" d="M17715 5636.65c-23.29,40.27 -3.18,90.13 63.38,128.58 66.02,37.34 117.53,32.05 139.93,-6.75 25.41,-43.98 2.59,-90.55 -64.91,-129.53 -63.21,-36.46 -114.25,-34.16 -138.4,7.7zm19.87 13.47c16.04,-27.76 55.39,-21.76 104.24,6.4 50.69,29.28 75.21,60.98 59.33,88.43 -14.11,24.46 -52.63,23.4 -104.25,-6.41 -54.03,-31.21 -72.9,-64.9 -59.32,-88.42z"/>
  <polygon class="fil2" points="10566.71,9451.36 10581.7,9425.38 10383.15,9310.78 10369.92,9333.72 10368.1,9390.45 10391.56,9397.1 10392.85,9351.82 10393.2,9351.18 "/>
  <path id="1" class="fil2" d="M10459.88 9170.16c-23.28,40.27 -3.18,90.13 63.38,128.58 66.03,37.34 117.53,32.05 139.94,-6.76 25.4,-43.98 2.59,-90.54 -64.91,-129.52 -63.21,-36.46 -114.25,-34.16 -138.41,7.7zm19.87 13.46c16.05,-27.75 55.39,-21.76 104.25,6.4 50.68,29.29 75.2,60.99 59.33,88.44 -14.11,24.46 -52.63,23.4 -104.25,-6.41 -54.03,-31.21 -72.91,-64.9 -59.33,-88.43z"/>
  <path class="fil2" d="M11015.55 10080.89l-22.34 -12.88 -51.45 89.2 -0.64 -0.35 -5.47 -24.35c-16.18,-65.08 -30.46,-108.77 -67.09,-129.94 -28.4,-16.4 -68.15,-15.28 -92.84,27.46 -13.23,22.88 -15.94,47.39 -12.29,67.85l23.87 2.36c-2.35,-13.59 -2.88,-33.81 7.53,-51.86 17.11,-29.63 41.39,-28.64 61.55,-17 29.76,17.59 42.17,55.34 61.16,133.89l8.28 32.86 16.52 9.53 73.21 -126.77z"/>
  <path id="1" class="fil2" d="M10869.21 9868.12c-23.28,40.28 -3.18,90.14 63.38,128.59 66.03,37.34 117.53,32.05 139.94,-6.76 25.4,-43.98 2.59,-90.54 -64.92,-129.53 -63.2,-36.46 -114.24,-34.16 -138.4,7.7zm19.87 13.47c16.05,-27.75 55.39,-21.76 104.25,6.4 50.68,29.29 75.2,60.98 59.33,88.44 -14.11,24.46 -52.63,23.4 -104.26,-6.41 -54.03,-31.22 -72.9,-64.91 -59.32,-88.43z"/>
  <path class="fil2" d="M13944.16 15368.77c4,-6.22 8.64,-14.93 12.77,-25.57 9.87,-22.81 12.87,-49.21 6.75,-73.08 -7.64,-30.52 -29.74,-62.8 -73.43,-88.02 -50.69,-29.28 -98.13,-23.29 -121.6,17.34 -23.45,40.63 -6.16,86.84 31.4,108.54 33.93,19.58 74.03,12.24 94.66,-23.52 11.47,-19.86 12.71,-40.33 5.6,-59.09l0.52 -0.94c21.4,17.29 33.34,36.81 37.69,56.8 4.18,17.46 2.12,35.87 -4.76,52.68 -4.36,9.64 -7.65,16.76 -11.59,22.17l21.99 12.69zm-156.28 -155.33c16.23,-28.11 49.45,-25.64 83.32,-6.06 4.29,2.48 6.82,5.11 8.34,8.05 7.88,13.94 8.65,33.05 -1.76,51.1 -13.4,23.23 -39.45,28.1 -64.2,13.81 -28.11,-16.17 -38.93,-44.03 -25.7,-66.9z"/>
  <path id="1" class="fil2" d="M13858.97 15043.06c-23.28,40.27 -3.18,90.14 63.38,128.59 66.03,37.33 117.53,32.05 139.94,-6.76 25.4,-43.98 2.59,-90.55 -64.91,-129.53 -63.21,-36.46 -114.25,-34.16 -138.41,7.7zm19.87 13.47c16.05,-27.76 55.39,-21.76 104.25,6.4 50.68,29.29 75.2,60.98 59.33,88.43 -14.11,24.47 -52.63,23.4 -104.26,-6.4 -54.03,-31.22 -72.9,-64.91 -59.32,-88.43z"/>
  <path class="fil2" d="M13574.93 14631.55c21.87,-37.86 15.76,-80.9 -18.76,-100.83 -24.1,-13.94 -50.39,-8.7 -74.43,10.4l-0.88 -0.53c2.47,-31.1 -10.76,-49.8 -27.58,-59.5 -24.75,-14.29 -59.98,-8.93 -82.2,29.52 -20.11,34.86 -14.05,73.73 17.41,91.89 17.11,9.88 39.69,10.29 62.73,-5.7l1.12 0.24c-3.7,30.4 5.35,55.62 30.4,70.09 28.99,16.75 68.2,5.99 92.19,-35.58zm-19.23 -11.88c-14.57,25.35 -41.15,30.4 -60.79,17.82 -18.93,-10.93 -26.93,-32.22 -20.29,-59.32 23.17,-22.47 44.46,-32.58 68.61,-18.64 20.47,11.81 26.41,36.04 12.47,60.14zm-166.27 -96.43c13.94,-24.1 35.92,-24.04 51.8,-14.87 17.99,10.41 22.63,30.57 18.58,51.04 -19.35,19.41 -38.69,28.17 -58.5,16.7 -17.11,-9.88 -24.76,-30.58 -11.88,-52.87z"/>
  <path id="1" class="fil2" d="M13461.4 14354.23c-23.28,40.27 -3.18,90.13 63.38,128.58 66.03,37.34 117.53,32.05 139.94,-6.75 25.4,-43.99 2.59,-90.55 -64.92,-129.53 -63.2,-36.46 -114.24,-34.16 -138.4,7.7zm19.87 13.46c16.05,-27.75 55.39,-21.76 104.25,6.4 50.68,29.29 75.2,60.99 59.33,88.44 -14.11,24.46 -52.63,23.4 -104.26,-6.41 -54.03,-31.21 -72.9,-64.9 -59.32,-88.43z"/>
  <polygon class="fil2" points="12887.38,13800.14 12909.72,13813.02 12965.76,13715.89 12966.41,13716.24 13092.29,13903.8 13108.34,13875.99 12977.4,13685.2 12959.7,13674.97 "/>
  <path id="1" class="fil2" d="M13010.68 13578.91c-23.28,40.27 -3.18,90.13 63.38,128.59 66.03,37.33 117.53,32.04 139.94,-6.76 25.4,-43.98 2.59,-90.55 -64.91,-129.53 -63.21,-36.46 -114.25,-34.16 -138.41,7.7zm19.87 13.47c16.05,-27.76 55.39,-21.76 104.25,6.4 50.68,29.29 75.2,60.98 59.33,88.43 -14.11,24.46 -52.63,23.4 -104.26,-6.4 -54.03,-31.22 -72.9,-64.91 -59.32,-88.43z"/>
  <path class="fil2" d="M12550.51 12945.42c-2.83,4.88 -6.41,11.76 -9.77,20.4 -11.4,26.81 -13.98,54.62 -7.34,80.43 8.29,30.87 30.98,62.74 70.08,85.32 51.62,29.75 100.67,21.05 125.18,-21.4 23.81,-41.28 4.47,-85.38 -31.86,-106.37 -38.81,-22.4 -78.45,-12.28 -98.73,22.82 -12.7,21.98 -11.81,44.5 -4.76,61.21l-0.53 0.87c-30.04,-23.45 -47.98,-63.55 -30.69,-109.77 3.17,-8.34 6.94,-15.52 10.41,-20.87l-21.99 -12.64zm157.39 152.75c-16.22,28.1 -49.03,29.1 -82.02,10.88 -4.94,-2.82 -8.17,-6.35 -10.17,-9.94 -10.11,-15.64 -11.58,-36.4 -2.23,-52.61 14.28,-24.76 40.74,-31.05 69.15,-14.65 28.39,16.4 38.68,43.09 25.27,66.32z"/>
  <path id="1" class="fil2" d="M12613.54 12835.55c-23.28,40.27 -3.18,90.13 63.38,128.58 66.03,37.34 117.53,32.05 139.94,-6.76 25.4,-43.98 2.59,-90.54 -64.91,-129.53 -63.21,-36.45 -114.25,-34.15 -138.41,7.71zm19.87 13.46c16.05,-27.75 55.39,-21.76 104.25,6.4 50.68,29.29 75.2,60.99 59.33,88.44 -14.11,24.46 -52.63,23.4 -104.26,-6.41 -54.03,-31.22 -72.9,-64.91 -59.32,-88.43z"/>
  <path class="fil2" d="M12125.87 12178.89l-54.86 95.01 87.91 67.85c3.29,-7.88 7.23,-17.46 13.75,-28.74 22.93,-39.7 51.09,-46.22 76.96,-31.7 26.52,15.35 30.51,46.51 15.88,71.91 -10.41,17.99 -25.87,30.63 -35.52,36.1l16.59 18.51c11.58,-5.93 28.28,-20.74 40.8,-42.44 24.87,-43.04 13.64,-90.67 -25.1,-113.07 -25.06,-14.46 -49.57,-11.46 -67.45,-1 -14.4,7.94 -26.57,21.29 -35.39,36.58 -4.24,7.34 -6.05,11.93 -8.11,16.87l-46.57 -37.1 43.69 -75.73 -22.58 -13.05z"/>
  <path id="1" class="fil2" d="M12182.85 12072.48c-23.29,40.27 -3.19,90.13 63.37,128.59 66.03,37.33 117.54,32.05 139.94,-6.76 25.4,-43.98 2.59,-90.55 -64.91,-129.53 -63.21,-36.46 -114.25,-34.16 -138.4,7.7zm19.86 13.47c16.05,-27.76 55.4,-21.76 104.25,6.4 50.69,29.29 75.2,60.98 59.33,88.43 -14.11,24.46 -52.63,23.4 -104.25,-6.4 -54.03,-31.22 -72.91,-64.91 -59.33,-88.43z"/>
  <path class="fil2" d="M11902.52 11621.11l-54.09 -31.22 16.05 -27.75 -21.05 -12.18 -16.05 27.75 -123.42 -71.19 -16.76 28.98 75.62 161.75 17.76 10.23 53.21 -92.25 54.09 31.23 14.64 -25.35zm-127.35 47.03l-0.59 -0.34 -39.52 -87.55c-5.93,-10.76 -11.7,-20.58 -19.74,-33.4l0.51 -0.94c10,6.58 20.24,12.93 30.65,18.93l66.25 38.22 -37.56 65.08z"/>
  <path id="1" class="fil2" d="M11766.76 11390c-23.28,40.27 -3.18,90.13 63.38,128.58 66.03,37.34 117.53,32.05 139.94,-6.75 25.4,-43.98 2.59,-90.55 -64.91,-129.53 -63.21,-36.46 -114.25,-34.16 -138.41,7.7zm19.87 13.47c16.05,-27.76 55.39,-21.76 104.25,6.4 50.69,29.28 75.2,60.98 59.33,88.43 -14.11,24.46 -52.63,23.4 -104.25,-6.4 -54.03,-31.22 -72.91,-64.91 -59.33,-88.43z"/>
  <path class="fil2" d="M11394.46 10971.93c12.06,-6.06 30.34,-21.58 43.21,-43.86 27.53,-47.63 14,-88.43 -17.75,-106.77 -27.81,-16.06 -57.62,-6.77 -76.61,14.81l-0.59 -0.36c5.24,-29.51 -5.12,-51.79 -25.58,-63.61 -24.1,-13.94 -57.56,-9.64 -80.14,29.46 -12.34,21.4 -16.35,45.98 -14.7,60.74l23.58 4.28c-1.17,-12.11 0.65,-31.39 9.82,-47.26 14.29,-24.76 34.16,-26.76 50.04,-17.59 23.51,13.59 19.28,44.16 8,63.68l-8.65 15 20.17 11.63 8.64 -14.99c14.99,-25.93 41.39,-44.1 69.33,-28.34 16.69,9.17 32.5,32.58 12.58,67.09 -10.76,18.63 -28.64,31.93 -37.93,36.75l16.58 19.34z"/>
  <path id="1" class="fil2" d="M11331.91 10637.28c-23.29,40.27 -3.18,90.13 63.38,128.58 66.02,37.34 117.53,32.05 139.93,-6.75 25.41,-43.98 2.59,-90.55 -64.91,-129.53 -63.21,-36.46 -114.25,-34.16 -138.4,7.7zm19.87 13.47c16.04,-27.76 55.39,-21.76 104.24,6.4 50.69,29.28 75.21,60.98 59.33,88.43 -14.11,24.46 -52.63,23.4 -104.25,-6.41 -54.03,-31.21 -72.9,-64.9 -59.32,-88.42z"/>
  <polygon class="fil0 str3" points="4328.13,18544.48 8602.44,11154.83 12872.65,18544.48 "/>
  <polygon class="fil0 str3" points="16255.12,18544.48 20529.44,11154.83 24799.65,18544.48 "/>
  <polygon class="fil0 str3" points="14565.95,15626.44 18836.16,8228.57 14565.95,830.71 10291.62,8228.57 "/>
 </g>
</svg>
