<?xml version="1.0" encoding="UTF-8"?>
<!DOCTYPE svg PUBLIC "-//W3C//DTD SVG 1.1//EN" "http://www.w3.org/Graphics/SVG/1.1/DTD/svg11.dtd">
<!-- Creator: CorelDRAW 2018 (64 Bit) -->
<svg xmlns="http://www.w3.org/2000/svg" xml:space="preserve" width="297mm" height="210mm" version="1.1" style="shape-rendering:geometricPrecision; text-rendering:geometricPrecision; image-rendering:optimizeQuality; fill-rule:evenodd; clip-rule:evenodd"
viewBox="0 0 29700 21000"
 xmlns:xlink="http://www.w3.org/1999/xlink">
 <defs>
  <style type="text/css">
   <![CDATA[
    .fil1 {fill:black}
    .fil0 {fill:white}
   ]]>
  </style>
 </defs>
 <g id="Capa_x0020_1">
  <metadata id="CorelCorpID_0Corel-Layer"/>
  <path class="fil0" d="M19841.12 9637c-37.09,12.99 -601.14,190.66 -859.13,271.91 80.17,-496.4 111.64,-1366.69 -96.57,-1985.95 62.58,-11.92 120.65,-23.84 170.3,-36.07 39.36,-9.2 68.45,-42.84 71.86,-83.27 68.29,-780.34 -139.84,-1608.01 -588.73,-2432.57 -489.27,-899.56 -1124.6,-1613.18 -1918.89,-1938.96 -40.31,-16.4 -86.23,-3.22 -112.02,31.85 -44.65,61.55 -110.45,148.92 -184.18,246.23 -456.47,-305.97 -1228.87,-651.38 -2246.94,-651.38 -992.08,0 -1795.52,358.14 -2239.69,651.38 -62.31,-83.01 -118.07,-156.86 -157.31,-210.48 -25.36,-35.44 -71.66,-48.13 -111.83,-31.73 -794.29,325.64 -1427.5,1003.5 -1916.93,1903.07 -448.53,824.56 -658.67,1657.9 -590.49,2438.31 3.98,40.31 32.68,73.93 72.04,83.58 47.82,11.54 103.2,22.96 163.18,34.38 -213.81,614.4 -224.73,1457.58 -149.55,1944.13 -16.9,-4.22 -32.54,-8.39 -45.98,-11.8 -728.49,-186.56 -730.09,-186.56 -749.45,-186.56 -42.46,0 -79.72,28.63 -90.56,69.56 -183.42,675.64 -42.46,3060.58 1328.21,4853.27 706.56,923.85 1692.85,1568.77 2816.18,1878.6 -67.94,140.91 -173.38,340.16 -236.41,449.77 -13.75,24.53 -14.44,54.57 -2.26,79.22 12.61,24.84 40.5,23.76 66.99,27.32 353.45,51.77 927.62,155.54 977.58,157.43 38.1,8.58 83.13,-7.06 111.52,-38.1 58.67,-64.39 125.13,-241.06 188.52,-473.63 191,14.19 451.1,4.55 651.18,4.91l2.72 0.05c164.56,0 402.04,11.35 560.36,0.57 62.81,230.17 128.8,404.19 187.39,468.13 28.33,31.04 73.17,46.67 111.4,38.09 49.71,-1.88 581.86,-112.9 935.4,-164.68 26.48,-3.84 54.42,-2.07 67.22,-27.36 12.3,-24.99 11.3,-54.69 -2.41,-78.65 -62.07,-109.25 -163.75,-286.04 -231.28,-424.81 1086.12,-308.5 2080.99,-968.5 2787.29,-1899.72 1429.38,-1884.66 1542.28,-4344.53 1388.31,-4894.77l-127.04 -61.27z"/>
  <g>
   <path class="fil1" d="M16669.9 4409.2c28.78,16.28 58.1,25.6 87.73,27.86 3.79,0.27 7.58,0.31 11.35,0.31 26.29,0 53.16,-7.2 80.29,-21 29.51,-15.71 60.36,-42.69 91.59,-81.74 31.53,-39.62 50.84,-74.55 59.97,-107.11 9.35,-33.18 10.09,-64.27 1.65,-93.23 -8.01,-28.4 -23.53,-54.81 -45.99,-79.03 -20.88,-22.65 -44.96,-45.68 -72.97,-67.8l-73.35 -58.86 -293.36 366.91 71.47 57.02c27.51,22.1 54.83,41.1 81.62,56.67l0 0zm175.79 -366.46l18.43 14.83c19.93,16.09 34.06,32.73 41.81,48.82 7.7,16.21 10.28,32.16 9.2,48.45 -1.45,17.21 -7.63,35.06 -17.21,53.54 -10.42,19.43 -23.72,39.36 -39.98,59.67 -37.9,47.75 -74.49,74.73 -108.03,80.6 -5.56,0.76 -10.78,1.33 -16.33,1.33 -27.63,0 -56.84,-11.99 -86.99,-36.14l-10.85 -8.58 209.95 -262.52z"/>
  </g>
  <polygon class="fil1" points="16988.94,4723.82 17038.88,4674.55 16920.57,4554.28 17020.98,4456.06 17102.6,4539.33 17151.47,4491.39 17070.04,4407.31 17153.88,4325 17264.25,4437.47 17316.15,4386.74 17135.95,4203.2 16800.92,4532.4 "/>
  <polygon class="fil1" points="17351.05,5177.19 17408.81,5133.61 17308.9,5001.83 17625.6,4761.73 17563.79,4680.22 17189.52,4963.93 "/>
  <path class="fil1" d="M17400.3 5252.05l146.97 -34.88 74.5 113.47 -88.11 123.75 59.86 90.56 290.33 -412.89 -40.36 -61.43 -490.72 109.37 47.53 72.05zm335.56 -76.93l-70.97 98.95 -48.18 -72.73 119.15 -26.22z"/>
  <path class="fil1" d="M17804.85 5928.21l183.3 -93.4 3.64 7.51c9.35,18.28 19.55,36.78 30.02,55.69 12.11,20.5 26.05,38.4 42.26,52.66 17.48,15.64 37.41,25.67 59.93,29.96 5.75,1.08 11.23,1.77 17.41,1.77 18.47,0 39.04,-5.68 61.05,-16.98 28.82,-14.68 48.75,-32.73 58.98,-53.68 10.22,-20.05 14.18,-41.58 12.56,-64.15 -2.08,-20.81 -7.7,-42.2 -17.28,-63.32 -8.59,-19.69 -17.6,-38.47 -26.75,-56.19l-52.04 -102.05 -18.93 10.04c0,0 -50.85,26.36 -59.55,30.77l-339.7 173.14 45.1 88.23zm358.77 -183.03l15.52 30.58c11.23,21.89 15.21,41.01 11.99,57.14 -2.83,13.95 -15.06,26.8 -36.78,37.91 -13.18,6.82 -24.41,10.96 -36.4,9.96 -9.77,-0.26 -17.47,-3.1 -24.41,-8.39 -7.94,-5.93 -15.07,-14.06 -21.58,-24.22 -7.39,-12.3 -14.63,-24.6 -21,-37.52l-3.29 -6.37 115.95 -59.09z"/>
  <polygon class="fil1" points="18024.55,6411.67 18091.46,6383.3 18026.55,6230.7 18391.69,6075.23 18351.64,5981.13 17919.7,6165.36 "/>
  <path class="fil1" d="M18061.88 6513.53l150.61 3.41 43.92 128.42 -116.62 97.5 34.99 103.01 385.19 -326.79 -23.65 -69.25 -502.26 -18.09 27.82 81.79zm344 10.35l-93.67 77.83 -28.06 -82.63 121.73 4.8z"/>
  <polygon class="fil1" points="18576.87,6815.16 18190.37,6914.12 18214.59,7009.35 18601.86,6911.9 18635.61,7044.18 18703.29,7025.37 18611.44,6664.91 18543.76,6682.19 "/>
  <path class="fil1" d="M18251.23 7168.17l148.28 29.32 21 133.52 -131.71 76.69 17.29 107.35 434.89 -256.27 -11.23 -72.28 -491.8 -103.51 13.28 85.18zm337.32 69.06l-105.65 60.67 -13.45 -86.15 119.1 25.48z"/>
  <path class="fil1" d="M12531.56 3857.87l144.63 328.05 75.88 -33.37 -122.29 -277.46 286.61 204.8 80.98 -35.38 -181.77 -413.08 -75.61 33.56 112.28 254.51 -263.09 -188.02 -95.12 42 8.51 19.05c-0.02,-0.07 24.2,54.43 28.99,65.34z"/>
  <path class="fil1" d="M13154.11 3859.21l124.44 -31.85 84.66 117.95 102.55 -26.36 -284.71 -392.32 -69.25 17.98 -53.8 479.42 82 -20.93 14.11 -143.89zm20.43 -182.11l65.35 92.28 -78.34 19.93 12.99 -112.21z"/>
  <path class="fil1" d="M13469.55 3774.18c11.99,29.13 28.01,53.92 47.44,73.8 19.36,20.24 42.7,35.33 68.63,45.29 20.81,8.4 43.27,12.11 66.61,12.11 6.17,0 12.56,-0.31 19.86,-1.19 11.23,-1.26 22.45,-2.76 33.87,-5.36 11.23,-2.46 21.5,-4.91 30.66,-7.63 9.2,-2.45 17.16,-4.79 23.77,-6.56 7.89,-2.71 13.25,-4.67 16.14,-5.79l13.37 -6.43 -10.92 -95 -28.39 17.97c-8.96,6.06 -20.19,12.68 -33.42,19.86 -11.66,6.13 -27.63,10.92 -46.3,13.99 -2.95,0.12 -6.05,0.12 -9.08,0.12 -13.8,0 -26.25,-2.72 -36.78,-8.58 -13.57,-7.13 -25.61,-17.55 -35.14,-31.47 -10.54,-14.82 -19.17,-32.85 -25.56,-54.04 -6.67,-21.69 -11.49,-46.1 -13.63,-72.16 -1.96,-24.29 -3.1,-46.75 -2.84,-66.34 0.07,-17.29 2.45,-32.31 6.74,-44.53 4.3,-10.47 10.35,-18.98 19.55,-25.42 9.4,-6.51 23.6,-10.84 42.39,-13.3 9.39,-0.88 19.05,-1.38 28.89,-0.62 9.97,0.38 19.43,1.34 28.25,2.41 8.46,1.45 16.14,2.95 23.22,4.72 7.39,1.88 13.64,3.41 18.86,4.79l30.08 8.51 -10.66 -90.25 -16.78 -1.65c-9.89,-0.81 -22.88,-1.69 -39.98,-1.83l-6.19 -0.03c-15.59,0 -32.85,1 -50.71,3.1 -67.37,6.25 -115.62,29.97 -143.25,70.9 -26.43,39.81 -36.95,95.19 -30.46,164.82 3.07,35.16 10.2,67.54 21.76,95.79z"/>
  <rect class="fil1" transform="matrix(0.154238 2.37889 -2.37889 0.154238 13938.8 3425.96)" width="189.18" height="39.79"/>
  <g>
   <path class="fil1" d="M14097.95 3810.24c14.18,22.08 33.56,39.86 57.52,52.54 23.77,12.38 53.73,19.12 88.8,19.86l14.9 0.03c27.44,-1.01 51.73,-6.37 72.21,-15.14 24.14,-11.23 43.91,-27.56 58.97,-48.32 14.33,-20.19 25.3,-44.92 31.92,-73.12 6.06,-27.63 9.71,-58.14 10.16,-91.71 0.62,-31.46 -1.53,-61.43 -6.56,-88.56 -5.17,-28.51 -14.63,-53.68 -28.01,-74.87 -14.13,-22.2 -33.3,-39.74 -57.02,-52.62 -23.15,-12.56 -53.04,-19.35 -87.35,-20.19 -34.18,-0.5 -63.88,4.41 -87.87,15.14 -24.29,11.23 -43.65,26.98 -59.05,48.13 -14.94,20.05 -25.67,44.91 -32.11,73.54 -6.55,27.13 -9.7,58.29 -10.46,92.02 -0.57,31.42 1.45,61.17 6.17,88.3 4.51,28.44 14.16,53.73 27.78,74.97l0 0zm69.37 -161c0.38,-21.08 1.52,-42.01 3.79,-63.08 1.64,-20.12 5.93,-38.41 12.49,-54.76 5.86,-14.64 14.06,-26.44 25.6,-35.76 8.89,-7.32 21.12,-11.23 37.14,-11.61l5.94 0c18.86,0.12 32.54,4.91 42.07,13.8 10.54,10.28 18.62,22.96 23.77,38.6 5.75,16.97 9.2,35.57 10.09,55.31 1.14,21.95 1.14,42.19 1.07,60.43 -0.57,20 -1.69,40.93 -3.65,62.43 -2.22,20.38 -6.17,38.36 -12.92,54.62 -5.94,15.06 -14.37,26.86 -25.03,35.83 -8.63,7.63 -20.62,11.22 -36.02,11.61l-6.06 0.02c-19.23,-0.07 -34.06,-5.05 -43.19,-13.99 -11.35,-10.23 -18.93,-22.84 -24.41,-38.29 -5.37,-16.9 -8.9,-35.57 -9.71,-55.38 -1.33,-22.38 -1.86,-42 -0.97,-59.78z"/>
  </g>
  <path class="fil1" d="M14615.27 3601.72l131.33 327.43 87.73 13.3 68.82 -445.86 -82 -12.49 -42.51 274.7 -120.41 -299.61 -103.63 -16.21 -2.95 21.12c0,0 -7.94,58.79 -9.9,70.9l-54.61 354.03 81.62 12.68 46.51 -299.99z"/>
  <path class="fil1" d="M14967.11 3977.52l85.77 -116 123.37 36.14 12.11 144.87 101.98 30.08 -43.91 -483.07 -68.49 -20.24 -291.9 384.19 81.07 24.03zm196.65 -262.06l9.2 112.64 -77.57 -22.72 68.37 -89.92z"/>
  <polygon class="fil1" points="15597.72,4128.14 15452.64,4065.08 15604.85,3717.03 15513.64,3677.1 15333.3,4090.61 15569.59,4193.74 "/>
  <path class="fil1" d="M9736.52 7543.47l1.88 0c21.96,0 42.32,-4.68 60.67,-13.69 19.05,-9.27 35.33,-24.91 48.37,-46.29 12.57,-20.58 21,-48.56 26.44,-85.78 5.55,-38.21 4.29,-68.94 -3.15,-93.73 -7.51,-25.03 -19.85,-45.15 -36.52,-59.74 -16.02,-14.14 -34.75,-24.41 -56.02,-30.4 -18.98,-5.1 -38.9,-9.15 -58.21,-12.18l-278.08 -39.47 -12.62 88.18 284.28 40.5c14.33,2.07 28.4,4.79 42.89,7.44 12.11,2.57 22.34,7.12 31.66,13.8 8.13,5.86 14.25,14.64 18.85,25.6 2.65,7.75 5.37,22.96 1.96,50.85 -2.46,17.97 -7.89,30.59 -15.76,38.09 -8.63,8.4 -18.04,13.57 -29.27,16.29 -12.23,3.33 -24.8,4.29 -37.91,3.48 -14.87,-1 -27.63,-2.58 -38.02,-3.65l-280.8 -40.05 -13.56 98.46 277.84 36.9c22.81,3.36 44.51,5.08 65.08,5.39z"/>
  <path class="fil1" d="M9565.79 7028.97l348.16 84.39 19.36 -80.4 -294.67 -71.33 336.94 -103.63 21.07 -86.3 -438.8 -105.7 -19.24 80.41 270.21 65.22 -308.92 94.81 -23.84 101.48 20.43 4.72c-0.03,0.05 57.38,13.54 69.3,16.33z"/>
  <rect class="fil1" transform="matrix(2.27399 0.715406 -0.715406 2.27399 9628.72 6444.82)" width="189.23" height="39.9"/>
  <polygon class="fil1" points="10160.64,6313.02 9794.31,5988.07 9765.34,6064.5 10006.78,6279.03 9685.12,6276.88 9647.27,6376.22 10137.42,6374.14 "/>
  <polygon class="fil1" points="10344.67,5872.69 10282.1,5843.87 10214.75,5990.26 10094.34,5935.34 10141.21,5833.29 10080.02,5805.39 10032.53,5906.76 9932.24,5860.53 9995.32,5723.41 9930.78,5693.52 9826.66,5918.75 10236.37,6107.72 "/>
  <path class="fil1" d="M10425.08 5721.39l-174.02 -96 233.88 -11.61 53.74 -96.88 -247.64 11.99c1.14,-4.18 2.07,-8.51 2.64,-12.81 3.41,-15.59 4.1,-30.77 1.53,-45.72 -1.88,-15.9 -7.82,-30.65 -16.78,-44.27 -9.21,-13.68 -23.22,-25.98 -41.39,-35.64 -21.81,-12.61 -42.84,-18.85 -63.65,-19.11 -18.54,0 -36.02,4.67 -51.92,13.8 -14.56,8.63 -28.25,20.93 -40.69,36.4 -11.42,14.14 -22.01,30.73 -31.85,48.06l-65.72 117.76 395.03 218.75 46.84 -84.72zm-218.86 -157.94c-4.98,10.54 -10.16,20.24 -14.45,28.9l-104.46 -57.65 11.73 -20.5c4.72,-9.01 10.61,-17.66 17.35,-25.1 5.87,-6.75 12.04,-11.54 18.98,-15.02 6.44,-3.1 12.92,-4.48 20.24,-4.48l0.55 0c7.24,0 15.64,2.57 25.17,8.01 14.76,7.89 24.67,16.9 28.63,25.55 4.29,9.21 6.06,18.55 5.29,28.52 -1.14,10.77 -3.91,21.36 -9.03,31.77z"/>
  <path class="fil1" d="M10279.83 5302.89c20.24,13.38 41.32,20.12 61.36,20.12l3.56 0c19.35,-0.76 38.85,-4.72 57.9,-12.3 18.09,-7.2 35.64,-15.95 52.8,-26.79 15.21,-9.66 30.73,-17.79 45.68,-25.1 13.56,-6.51 26.99,-10.35 39.86,-12.11 9.7,-1.53 19.43,1.26 29.2,7.43 16.14,10.78 24.79,23.03 26.18,36.21 1.83,14.88 -3.98,31.66 -16.41,50.52 -4.91,7.89 -11.1,15.4 -17.54,22.19 -6.68,7.13 -13.68,13.76 -20.24,19.69 -7.13,5.94 -13.68,11.11 -20.57,16.1 -6.44,4.67 -12.42,8.51 -17.1,11.53l-28.82 17.17 75.38 50.13 12.04 -9.89c2.46,-1.65 6.75,-5.44 12.18,-11.35 4.98,-5.24 10.23,-11.04 17.1,-18.17 6.43,-7.12 13.11,-15.25 20.12,-23.76 7.39,-9.2 14.18,-18.55 20.69,-27.87 11.73,-18.05 21.38,-36.78 28.51,-55.88 7.63,-19.86 11.3,-40.31 11.11,-59.36 -0.38,-19.86 -5.06,-39.43 -14.19,-57.26 -9.27,-18.35 -24.41,-34.57 -45.15,-48.25 -21.07,-14.18 -43.27,-21.57 -66.72,-21.57 -20.69,0.31 -40.81,4.48 -60.17,11.92 -18.67,7.62 -37.02,16.71 -54.81,27.82 -16.4,10.34 -32.04,19.16 -46.56,26.79 -13.99,6.75 -27.31,11.23 -39.62,13.45 -9.27,1.64 -17.97,-0.27 -26.93,-6.25 -9.97,-6.82 -14.88,-15.21 -16.21,-26.29 -0.89,-13.11 3.41,-26.56 13.3,-41.32 5.48,-7.93 10.96,-15.59 17.71,-22.45 6.56,-6.68 13.68,-13.3 19.93,-18.55 6.56,-5.98 12.56,-10.73 18.48,-14.52l41.88 -28.77 -75.38 -49.97 -12.61 11.61c-7.06,6.87 -16.09,16.67 -27.06,29.28 -11.34,12.8 -23.26,28.44 -34.87,45.98 -25.42,38.6 -37.72,75.57 -36.64,109.8 1.24,37.19 18.9,67.47 52.63,90.04z"/>
  <rect class="fil1" transform="matrix(1.89519 1.44607 -1.44607 1.89519 10467.8 4831.29)" width="189.26" height="39.87"/>
  <path class="fil1" d="M10949.49 4954.3c22.84,-24.84 42.39,-50.02 58.29,-74.81 17.35,-26.75 28.39,-54.42 31.97,-82.05 4.22,-29.13 -0.81,-59.22 -14.64,-89.33 -13.11,-29.7 -37.52,-60.29 -72.85,-92.66 -36.14,-32.23 -68.44,-53.16 -98.96,-63.65 -31.61,-10.42 -62,-13.06 -89.94,-6.63 -27.44,6.44 -53.74,19.31 -78.34,39.62 -23.26,18.67 -46.1,40.89 -68.44,66.04l-60.86 67.37 334.87 301.75 58.9 -65.65zm-266.3 -279.75c16.59,-18.48 32.92,-30.73 48.89,-36.83 15.59,-6.25 30.97,-8.13 46.22,-5.99 16.22,2.46 32.85,8.82 49.64,19.24 18.09,10.73 36.64,24.91 54.99,41.62 42.7,38.67 66.54,74.62 70.21,106.78 3.91,31.8 -8.82,63.08 -38.74,96.31l-8.13 8.82 -237.53 -213.5 14.45 -16.45z"/>
  <path class="fil1" d="M11188.41 4702.94l-51.59 -134.98 97.57 -84.15 128.35 67.99 79.91 -69.44 -429.72 -224.49 -53.93 46.75 165.37 453.44 64.04 -55.12zm-114.17 -307.24l99.79 53.36 -61.17 53.04 -38.62 -106.4z"/>
  <path class="fil1" d="M11551.85 4413.42c28.52,-18.17 54.12,-37.34 76.19,-56.57 23.91,-21.13 41.39,-44.65 52.93,-70.9 11.15,-26.44 14.94,-56.52 9.53,-89.68 -4.79,-32.11 -19.74,-68.13 -46.18,-108.92 -25.74,-40.7 -51.15,-69.52 -77.76,-87.68 -27.7,-18.93 -55.95,-28.94 -84.58,-30.28 -28.01,-1.26 -57.21,4.56 -85.96,16.78 -27.13,11.81 -55.5,26.8 -84.08,44.96l-77.22 49.26 242.33 380.32 74.8 -47.29zm-181.84 -340.78c20.81,-13.45 39.93,-20.93 56.76,-22.84 16.78,-1.64 32.04,0.57 46.22,6.82 14.95,6.51 29.28,17.28 42.58,31.61 14.57,15.76 28.89,34.26 41.89,54.76 31.27,49.2 44.15,90.06 39.28,121.98 -4.91,31.35 -25.67,58.14 -63.12,82.2l-10.28 6.43 -171.69 -269.52 18.36 -11.44z"/>
  <path class="fil1" d="M14339.2 6663.07c24.79,3.34 39.85,43.77 136.69,44.65 73.47,0.88 83.89,-45.67 93.54,-47.99 4.91,-1.33 9.89,-1.95 13.49,-8.13 -4.1,-7.7 -47.55,-24.29 -107.72,-26.55 -79.6,-2.91 -147.9,22.64 -155.17,29.89 5.55,3.67 9.77,6.75 19.17,8.13z"/>
  <path class="fil1" d="M14150.3 6259.72c16.66,-3.53 33.56,-9.66 50.2,-10.85 22.84,-1.84 40.36,-0.69 58.86,12.8 4.6,5.17 18.43,30.09 52.42,28.77 16.78,0.81 36.78,-5.86 44.41,-26.62 10.28,-6.32 34.07,8.58 39.98,3.29 14.18,-2.96 22.65,-15.52 28.63,-25.11 6.06,-9.96 16.09,-26.1 5.79,-37.33 -166.96,-92.52 -298.58,48.63 -298.58,48.63 -6.36,12.61 1.65,10.28 18.29,6.42z"/>
  <path class="fil1" d="M15794.82 9773.76c-5.24,12.57 2.34,9.59 18.74,4.6 16.28,-5.17 65.03,-14.75 95,-7.93 14.37,3.33 27.06,33.92 69.89,28.7 15.07,-0.12 37.34,-22.58 44.27,-40.31 11.85,-11.04 52.93,-23.53 58.6,-24.73 13.3,-3.64 17.16,-24.53 -2.58,-35.63 -175.81,-70.21 -283.92,75.3 -283.92,75.3z"/>
  <path class="fil1" d="M11731.98 9859.34c-13.8,21.58 -20.74,45.92 -20.5,59.86 0.62,13.95 21.95,9.66 26.94,6.68 6.74,-3.98 11.42,-7.63 15.13,-9.54 6.32,-2.21 11.85,-1.52 11.85,-1.52 0,0 4.29,9.65 10.85,12.8 7.25,3.6 15.21,3.15 15.21,3.15 0,0 12.8,0.45 20.93,-4.91 5.36,-3.6 14.68,-14.19 16.78,-30.66 1.89,-17.21 18.05,-21.08 30.97,-38.67 15.21,-21 33.92,-60.36 27.13,-62.31 -70.9,-10.87 -117.58,9.56 -155.29,65.12z"/>
  <path class="fil1" d="M16044.35 10140.41c23.4,2.26 39.28,39.93 131.06,36.33 69.18,-2.41 77.38,-46.49 86.23,-49.14 4.91,-1.52 9.65,-2.21 12.61,-8.13 -3.98,-7.05 -46.04,-21.45 -102.94,-20.57 -75.88,0.62 -139,27.51 -145.58,34.76 4.98,3.07 9.77,5.86 18.62,6.75z"/>
  <g>
   <path class="fil1" d="M20081.94 9600.36c-14.18,-50.66 -66.22,-80.29 -116.62,-66.61 -4.72,0.77 -9.01,2.27 -13.06,3.84 -37.72,13.26 -611.83,193.95 -874.15,276.7 81.55,-504.98 106.46,-1211.71 -106.04,-1841.13 64.2,-12.11 123.51,-24.53 173.84,-36.64 40.05,-9.84 69.75,-43.77 73.16,-84.96 69.44,-794.22 -152.71,-1730.99 -609.16,-2570.07 -498.04,-915.32 -1217.14,-1602.03 -2025.49,-1933.6 -40.82,-16.67 -87.92,-3.41 -113.86,32.23 -45.98,62.58 -112.59,151.45 -187.52,250.59 -464.55,-311.02 -1206.15,-647.2 -2242.07,-647.2 -1009.51,0 -1723.82,312.72 -2175.85,610.87 -63.51,-84.39 -120.03,-159.5 -159.65,-214.26 -26.1,-35.64 -73.47,-48.9 -113.97,-32.23 -808.43,331.53 -1527.72,1018.25 -2025.74,1933.6 -456.54,839.08 -678.74,1775.83 -609.23,2570.07 3.8,41.19 32.85,75.07 73.17,84.96 48.94,11.73 105.01,23.46 166.06,35.07 -217.72,625.25 -199.51,1320.58 -122.8,1815.95 -16.97,-4.6 -33.04,-8.58 -46.6,-12.04 -741.25,-189.54 -742.82,-189.54 -762.44,-189.54 -43.34,0 -81.05,28.77 -92.66,70.32 -186.26,687.88 -64.15,3188.32 1330.78,5012.66 718.86,939.92 1656.69,1570.22 2799.67,1885.4 -69.33,143.24 -146.47,288.38 -210.24,400.44 -14.18,24.34 -14.83,54.69 -2.33,80.24 12.61,25.42 41.12,23.65 68.13,27.51 359.96,53.24 1045.88,224.11 1096.59,227.19 38.74,7.94 84.39,-7.7 113.28,-39.74 59.86,-65.46 127.28,-245.23 191.74,-481.57 194.64,14.45 393.39,22.19 596.61,22.19l3.51 0.05c167.27,0 331.19,-5.6 492.22,-16.28 64.34,233.88 131.26,410.67 190.55,475.71 28.89,32.04 74.54,47.74 113.47,39.74 50.85,-3.1 736.88,-173.96 1096.78,-227.19 26.8,-3.84 55.31,-2.07 67.8,-27.51 12.8,-25.6 11.85,-55.88 -1.88,-80.24 -63.51,-110.88 -139.39,-253.05 -207.9,-394.65 1104.86,-313.99 2023.4,-946.74 2741.76,-1894.25 1454.55,-1917.91 1586.95,-4505.84 1430.14,-5065.62l0 0zm-1037.94 416.87c17.59,0 29.7,5.74 39.47,18.55 21.39,28.39 -22.64,113.16 -61.5,188.32 -57.33,110.88 -116.5,225.23 -42.27,267.62 9.47,5.17 22.01,8.27 39.29,8.27 11.54,0 24.22,-1.07 37.52,-2.64 14.19,-1.34 28.7,-2.08 42.89,-2.08 48.75,0 72.16,15.52 81.17,53.42 15.06,64.85 -14.38,102.75 -64.03,157.44 -21,23.26 -54.38,49.82 -89.57,78.21 -88.25,70.71 -188.47,150.76 -163.6,231.74 10.77,34.64 34.56,51.66 55.76,66.61 21.38,15.59 38.74,27.43 42.38,56.52 3.1,26.29 -75.23,119.84 -162.15,214.76 -19.69,-32.3 -47.94,-58.09 -83.7,-75.61 -1.64,-1.08 -2.95,-1.53 -2.95,-1.53l-21.39 -9.15c-3.6,-1.27 -7.13,-2.27 -11.11,-3.6 56.07,-334.73 84.39,-688.33 54,-893.25 -1.53,-9.77 -2.58,-19.12 -4.48,-27.87 -6.75,-81.55 -69.76,-84.84 -76.84,-11.1 0,6.5 -1.07,13.75 -1.64,20.93 -14.33,192.07 -72.16,581.78 -139.65,933.55 -45.41,24.99 -85.72,64.53 -120.03,109.68 -140.27,-228.63 -165.37,-303.56 -159,-323.63 8.7,-27.44 27.74,-36.64 52.04,-47.49 22.88,-10.85 49.51,-23.22 66.53,-55.5 38.86,-75.3 -44.79,-172.45 -119.03,-257.79 -29.82,-34.07 -57.9,-66.11 -74.35,-92.97 -33.23,-54.19 -62.08,-101.17 -33.99,-166.21 12.23,-28.39 31.15,-41.19 61.5,-41.19 21.77,0 45.99,6.63 69.63,12.87 30.02,8.27 57.65,15.21 76.57,8.27 52.04,-18.04 55.19,-76.38 40.24,-147.34 -7.89,-38.6 -20.69,-81.18 -33.56,-123.32 -24.29,-80.48 -52.35,-172.12 -25.87,-196.67 27.51,-25.68 65.16,-4.56 106.73,20.93 31.23,19.5 63.2,39.09 96.62,39.09 12.3,0 24.29,-2.95 35.07,-8.32 43.15,-22.76 60.43,-110.63 74.49,-198.62 2.41,-14.26 4.1,-25.49 5.8,-33.43 17.21,-77.83 45.48,-117.45 85.27,-121.22l14.06 0.62 5.75 0.46c60.48,13.75 66.99,98.76 66.53,135.43 0,8.51 -1.19,22.07 -2.52,38.16 -7.82,86.73 -12,173.64 25.41,203.3 13.99,11.04 31.04,16.66 51.39,16.66 18.05,0 37.22,-4.6 57.08,-10.77 10.6,-3.1 21.57,-7.06 32.34,-10.54 27.18,-9.87 55.24,-19.57 77.7,-19.57l0 0zm-123.56 1528.57c38.21,0 69.44,31.47 69.44,70.14 0,38.21 -31.23,69.7 -69.44,69.7 -38.74,0 -69.94,-31.46 -69.94,-69.7 0,-38.64 31.22,-70.14 69.94,-70.14l0 0zm-342.04 752.6c13.56,16.47 39.74,24.03 69.89,32.54 63.89,18.28 105.28,34.26 97.89,91.9 -9.9,70.2 -58.41,95.74 -115.31,124.7 -28.25,14.68 -68.75,27.63 -111.52,41.57 -107.61,34.57 -229.98,73.81 -235.27,159.01 -2.41,36.14 14.19,60.17 28.39,81.82 15.07,21.95 26.44,39.28 19.93,67.6 -5.93,25.03 -104.2,83.7 -293.1,175.86 4.1,-17.09 7.06,-34.11 7.7,-50.89 1.77,-38.48 -6.24,-74.12 -23.64,-106.09 175.47,-306.35 321.49,-643.17 356.67,-843.42 22.01,-79.02 -18.35,-106.41 -50.7,-39.28 -60.17,174.52 -233.69,488.31 -414.32,785.65 -23.77,-9.77 -48.94,-14.94 -76.57,-14.94 -49.33,0 -99.79,15.95 -146.59,39.74 -32.68,-190.24 -29.39,-251.91 -17.9,-266.35 18.16,-23.03 39.36,-24.34 65.65,-26.37 25.75,-2.34 54.81,-4.36 82.2,-28.39 63.27,-56.76 18.78,-177.13 -20.81,-283.4 -15.4,-42.31 -30.47,-82.05 -36.52,-113.02 -12,-62.43 -22.34,-116.43 27.31,-167.78 14.38,-14.37 29.28,-22.19 45.73,-22.19 28.63,0 59.21,22.72 86.6,42.26 25.3,18.62 47.18,34.07 70.71,34.88 83.63,0 91.97,-127.47 100.1,-250.67 5.75,-84.7 12.23,-180.15 45.03,-193.07 35.88,-15.02 63.58,19.05 92.71,56.76 30.85,40.24 62.96,81.29 112.33,75.38 48.51,-5.67 95.5,-81.81 139.53,-159 7.39,-12.42 13.45,-22.77 17.4,-29.47 44.03,-67.11 83.51,-95 123.32,-83.08l11.23 4.68 12.87 7.74c43.34,36.6 20.58,113.02 7.89,145.52 -3.1,7.93 -8.89,20.19 -15.95,34.87 -38.02,78.15 -72.58,158.13 -47.86,199.25 25.86,42.57 80.67,43.84 133.47,45.15 61.62,1.07 99.91,4.36 110.33,40.31 9.7,34.26 -61.75,98.57 -124.2,155.02 -93,83.39 -189.19,169.36 -134.62,235.2l0 0zm-465.81 981.64c0,38.4 -31.23,69.94 -69.76,69.94 -38.28,0 -69.63,-31.54 -69.63,-69.94 0,-38.22 31.35,-69.52 69.63,-69.52 38.6,0 69.76,31.28 69.76,69.52l0 0zm-602.03 501.5c7.24,20.12 29.08,36.07 54.37,54.68 53.93,38.74 87.18,68.14 59.98,119.27 -32.92,62.96 -87.68,69.63 -150.75,77.91 -27.06,3.09 -71.86,2.07 -119.03,0 -26.94,-1.08 -54.69,-1.65 -81.87,-1.65 -75.68,0 -166.13,7.58 -193.31,70.09 -15.13,33.56 -8.12,61.93 -1.95,86.91 6.37,25.87 11.42,45.99 -4.91,70.26 -15.76,24.22 -157.5,45.34 -297.89,60.43 5.05,-37.21 -0.45,-73.85 -16.02,-108.92l-7.94 -18.36c279.54,-232.05 545.41,-509.51 650.66,-691.04 48.18,-66.22 19.24,-105.84 -34.19,-54.04 -126.84,155.67 -434.89,419.06 -729.18,649.77 -28.82,-10.53 -62.01,-15.94 -98.57,-15.94 -21.2,0 -43.77,1.76 -66.54,5.43 43.77,-268.69 73.66,-343.06 92.02,-353.84 21.96,-13.95 44.91,-9.77 70.25,-2.65 26.44,7.25 57.41,13.45 87.11,1.65 78.84,-31.04 78.53,-159.51 78.03,-272.55 0,-45.34 -0.27,-88.25 4.79,-119.03 10.22,-62.77 18.73,-117.45 83,-148.16 11.61,-5.43 22.34,-8.58 32.04,-8.58 36.52,0 62.7,38.74 85.35,72.78 17.59,26.3 32.8,48.89 52.92,56.26 8.27,3.65 16.4,5.17 24.84,5.17 66.34,0 112.52,-104.32 157.12,-205.49 34.31,-76.88 73.04,-164.68 110.57,-165.7 35.56,0 48.32,32.3 65.46,85.72 14.52,45.92 31.23,98.08 79.98,108.99 45.67,11.3 117.95,-44.22 185.94,-101.17 10.61,-9.34 19.69,-17.09 25.87,-21.19 67.75,-50.02 116.5,-59.86 148.16,-33.23l4.72 4.67 10.03 -8.58 -8.39 10.84 2.22 2.08c39.62,50.01 -11.99,119.72 -36.64,147.73 -5.49,6.12 -15.4,15.95 -26.87,27.06 -62.39,60.67 -122.67,123.62 -113.54,170.54 9.34,49.06 60.47,69.18 109.56,88.25 57.33,22.77 92.21,38.74 89.68,76.26 -2.64,35.76 -91.64,71.21 -170.11,102.44 -115.65,46.36 -235.36,94.07 -206.97,174.93l0 0zm-737.03 774.6c0,38.09 -31.47,69.32 -69.82,69.32 -38.55,0 -69.71,-31.16 -69.71,-69.32 0,-38.41 31.16,-69.95 69.71,-69.95 38.35,0 69.82,31.47 69.82,69.95l0 0zm-381.71 114.78c46.49,40.17 73.66,67.11 58.6,101.43 -14.14,32.81 -109.61,36.33 -194.08,40.05 -124.58,5.18 -253.24,10.23 -253.55,95.93 0,21.12 15.76,43.91 33.57,69.75 37.59,54.95 59.05,93.67 16.97,132.6 -26.29,23.76 -53.42,34.87 -88.06,34.87 -24.22,0 -49.82,-5.43 -80.55,-12.11 -30.66,-6.51 -70.13,-22.72 -111.83,-39.28 -67.75,-26.3 -144.18,-56.76 -203.54,-56.76 -34.18,0 -60.86,9.89 -79.21,29.39 -24.91,26.86 -27.94,55.88 -30.4,81.29 -2.57,26.63 -4.48,47.63 -28.2,64.91 -0.62,1.08 -7.05,4.6 -30.39,4.6 -102.56,0 -371.2,-70.7 -506.94,-106.27 34.57,-10.92 69.56,-22.34 104.97,-34.88 382.92,-126.65 800.91,-328.85 982.37,-483.52 67.61,-46.87 53.43,-93.4 -13.94,-62.39 -186.14,113.55 -615.59,275.7 -993.49,399.57 -32.35,11.34 -69.32,23.45 -103.63,33.99 -0.31,-4.55 -0.31,-8.7 -0.62,-13.87 170.74,-322.38 235.08,-398.5 258.42,-403.12 27.13,-5.94 46.03,6.17 67.29,21.12 20.39,14.45 43.08,30.78 77.27,30.78l3.95 0.02c84.77,-3.41 127.35,-124.75 164.83,-231.67 14.87,-42.26 28.89,-82.5 43.64,-110.13 30.73,-55.57 57.03,-104.08 127.92,-112.02 57.27,-6.56 73.05,36.95 89.14,99.91 7.75,30.16 14.44,56.76 30.89,70.71 12.8,10.77 27.18,16.52 43.27,16.52 58.48,0 127.85,-73.74 195.29,-144.56 60.43,-64.04 124.25,-131.14 157.69,-120.8 35.45,11.42 36.64,46.75 35.07,103.75 -1.53,47.75 -3.41,102.17 38.91,129.04 10.72,6.63 24.79,10.35 42.76,10.35 49.97,0 120.03,-26.37 166.45,-43.96 13.3,-4.86 24.53,-9.27 31.46,-11.35 77.34,-23.77 125.52,-18.62 147.66,13.11l5.44 10.09c0.45,1 0.62,2.07 1.19,3.1l1.88 4.1c19.74,59.86 -51.73,107.91 -84.01,125.96 -7.51,4.1 -19.54,9.89 -34.18,16.59 -79.22,36.33 -157.36,75.81 -164.3,123.44 -7.53,48.97 34.02,85.18 74.02,119.72l0 0zm-2295.45 -303.64c-281.75,0 -547.98,-259.55 -685.8,-615.78 99.34,-42.27 408.03,-168.85 445.43,-159.08 41.77,22.34 137.7,62.58 137.7,65.23l0 443.28c0,66.11 203.41,77.02 247.87,15.14 1.7,-2.08 0,-108.54 0,-108.54 -29.96,30.01 -111.7,36.71 -124.24,1.65 -0.81,-2.08 -1.46,-309.27 -1.46,-314.42 0,0 23.15,6.63 46.11,-7.24 15.4,-9.78 19.74,-21.46 32.23,-26.3 17.09,-5.93 28.89,5.6 50.7,-5.17 9.97,-5.25 22.96,-20.74 32.61,-24.6 13.5,-5.29 36.52,2.41 48.52,-3.41 11.61,-5.6 23.21,-18.48 33.87,-22.2 16.28,-5.6 37.21,9.9 71.66,-23.21 76.19,29.46 131.57,6.55 152.83,6.55 2.15,0 155.1,67.87 216.03,105.85 -133.24,399.73 -398.4,672.25 -704.06,672.25l0 0zm146.9 1119.31c-99.1,2.96 -155.29,1 -254.77,0 -59.36,-117.81 -84.15,-637.55 -25.55,-831.62 133.71,0 170.35,-3.98 280.29,0 53.26,197.17 67.44,711.78 0.03,831.62l0 0zm-398.3 3.86c-136.82,-4.72 -241.32,-14.75 -259.87,-30.72 -69.71,-61.7 -155.1,-563.2 3.48,-764.78 14.45,-18.62 106.85,-31.8 231.62,-39.48 -70.73,200.84 -91.92,614.71 24.77,834.98l0 0zm69.3 -3399.23c86.15,-54.43 249.26,-141.23 352.72,9.08 64.84,94.42 154.66,309.76 178,455.58 -237.34,-53.42 -477.01,-24.53 -619.69,0 -16.28,-52.16 177.74,-355.41 287.12,-469.58 -104.4,0 -187.64,108.42 -250.1,186.64 -33.64,5.29 -107.56,-62.2 51.95,-181.72l0 0zm-24.15 -357.52c0,-108.92 96.69,-196.48 216.84,-196.48 119.14,0 216.41,87.54 216.41,196.48 0,11.35 -1.58,22.72 -3.65,33.57 -67.68,-22.2 -138.39,-34.07 -210.98,-34.07 -73.85,0 -145.7,12.3 -214.95,34.83 -2.34,-11.11 -3.67,-22.53 -3.67,-34.33l0 0zm694.19 1465.02c-86.3,-71.78 -209.48,-124.39 -285.55,-121.79 -72.97,1.76 -196.52,59.93 -196.52,59.93l-0.31 -490.96c0,0 51.08,-37.67 97.69,0 -2.08,-1.07 -1.96,239.79 -0.62,239.48 157.93,7.25 533.47,24.84 691.97,81.13 5.94,79.48 -0.5,231.28 -3.03,275.12 -73.04,-9.34 -193.19,-26.62 -303.63,-42.91l0 0zm293.93 143.94c-9.7,79.53 -23.96,156.98 -42.46,230.79 -88.06,-33.62 -232.55,-84.39 -240.32,-82.51 -45.67,8.46 -71.32,8.46 -110.32,-10.92 -83.01,-49.2 -108.92,-140.46 -187.14,-205.37 -82.89,0 -188.16,53.11 -235.19,45.49 -47.3,-7.25 -39.74,-49.59 -39.74,-49.59 7.94,-4.67 58.59,-24.03 60.24,-25.6 43.53,-45.15 150.37,-82.82 212.74,-88.25 0,0 107.34,8.51 238.72,130.06 86.94,15.21 282.85,47.63 343.47,55.9l0 0zm-865.88 -449.53l-1.26 143.49c0,0 -155.1,30.97 -267.19,166.2 -36.14,27.87 -305.47,112.02 -427.76,150.76 -9.97,-79.53 -15.52,-161.65 -15.52,-245.73 0,-13.25 0.5,-104.08 1.19,-117.19 111.09,-45.99 500.05,-100.63 710.54,-97.53l0 0zm-204.56 378.87c69.33,-115.66 203.54,-145.06 203.3,-145.06 -1.45,-0.19 0,69.45 0,67.11 0,1 -41.43,24.72 -59.6,53.11 0,45.99 20.43,108.69 67.23,126.97 63.2,24.84 158.81,1.65 225.3,-9.46 20.93,25.55 72.54,119.02 111.76,153.33 -31.85,23.46 -50.97,9.46 -63.51,12.87 -14.18,4.1 -15.21,15.21 -27.37,20.69 -11.99,5.61 -28.51,2.77 -40.74,7.25 -13.56,4.29 -14.68,17.4 -28.39,24.53 -21.31,10.78 -31.85,-2.96 -53.11,5.6 -16.4,6.63 -13.45,26.87 -49.97,15.52 -28.89,-8.89 -62.08,-24.1 -83.89,-35.64 -74.92,-39.28 -104.13,-74.04 -146.46,-76.38 -63.01,-3.1 -391.63,101.1 -490.2,142.49 -19.86,-65.03 -29.59,-116.19 -42.2,-186.76 96.38,-37.33 469.08,-161.96 477.85,-176.17l0 0zm594.04 1385.5c118.34,8.27 216.41,21.76 236.46,41.81 133.4,131.14 95.31,653.5 -12.8,752.1 -15.64,13.87 -108.61,25.22 -232.93,32.04 86.58,-215.34 100.98,-521.89 9.27,-825.95l0 0zm5.22 -227.64c369.63,-189.47 635.6,-713.93 635.6,-1331.81 0,-611.75 -257.03,-1106 -619.89,-1288.4l159.32 2.58c0,0 74.69,-4.1 79.86,-36.9 4.86,-33.05 -66.73,-52.43 -66.73,-52.43l-175.02 -49.01c-1.45,-6.75 -3.48,-13.99 -5.17,-20.93l150.04 -95c0,0 60.43,-44.72 46.75,-74.61 -14.38,-30.16 -84.89,-7.2 -84.89,-7.2l-178.37 56.76c-5.98,-6.44 -12.23,-12.92 -18.35,-18.62l84.96 -161.03c0,0 24.22,-58.34 -3.22,-77.22 -26.87,-18.85 -70.78,25.61 -70.78,25.61l-129.92 141.91c-9.96,-3.41 -20.38,-6.17 -30.97,-8.77l-24.14 -188.47c0,0 -12.31,-63.7 -45.42,-63.7 -33.37,0 -44.65,63.7 -44.65,63.7l-23.91 186.37c-11.11,2.07 -21.64,4.67 -32.23,8.27l-127.61 -139.39c0,0 -48.13,-44.91 -75.38,-26.1 -27.13,19.36 1.34,77.64 1.34,77.64l81.86 154.41c-7.82,7.2 -15.21,14.68 -22.38,22.38l-179.2 -56.95c0,0 -63.84,-16.02 -77.76,14.19 -13.5,29.96 39.97,67.6 39.97,67.6l148.54 93.67c-2.21,8.27 -4.48,16.02 -6.05,24.34l-178.89 50.01c0,0 -71.39,19.36 -66.72,52.42 4.98,32.81 80.17,36.91 80.17,36.91l165.44 -2.58c-365.64,182.15 -629.92,676.72 -629.92,1288.4 0,615.78 263.9,1139.12 632.14,1330.04 -141.73,22.89 -256.08,62.25 -322.69,110.14 -310,-274.63 -550.39,-765.52 -602.98,-1356.08 0,0 163.99,-50.01 172.95,-300.42 7.51,-209.02 -172.95,-295.74 -172.95,-295.74 122.63,-787.47 618.76,-1464.52 1237.19,-1464.52 623.3,0 1083.48,640.34 1213.05,1458.27 4.91,-5.1 -154.53,69.71 -144.82,304.09 11.22,258.87 154.66,304.09 154.66,298.92 -49.13,610.23 -292.02,1102.14 -596.61,1366.95 -61.75,-51.57 -178.44,-94.41 -326.22,-119.7l0 0zm-2211.36 163.06c181.58,154.59 599.26,356.8 981.92,483.52 28.51,10.04 56.71,19.36 84.89,28.71 -142.22,37.09 -379.32,97.57 -474.44,97.57 -23.22,0 -29.28,-3.72 -30.4,-4.72 -23.41,-17.4 -25.6,-38.1 -28.01,-64.72 -2.64,-25.56 -5.24,-54.38 -30.39,-80.99 -18.48,-20 -44.84,-30.01 -79.1,-30.01 -59.48,0 -136.12,30.28 -203.66,57.33 -41.76,16.71 -80.98,32.23 -111.82,39.05 -30.73,7.06 -56.19,11.8 -80.41,11.8 -34.76,0 -61.89,-10.61 -87.92,-34.56 -42.65,-39.29 -20.93,-77.84 16.83,-132.72 17.71,-25.67 33.18,-48.44 33.18,-69.89 -0.12,-85.39 -128.99,-90.57 -253.36,-95.74 -84.46,-3.1 -180.15,-7.25 -194.14,-40.24 -15.02,-34.11 12.11,-60.86 58.86,-101.1 39.98,-34.64 81.29,-70.82 74.18,-119.91 -7.39,-47.44 -84.77,-86.65 -164.17,-123.32 -15.14,-6.82 -26.8,-12.42 -34.45,-16.59 -31.8,-18.05 -102.25,-65.03 -84.58,-123.87l8.39 -18.04c23.15,-33.57 71.02,-38.29 148.42,-14.52 7.13,2.07 18.29,6.25 31.54,11.42 46.49,17.4 116.69,43.72 166.78,43.72 17.71,0 31.92,-3.1 42.45,-9.7 41.89,-27.37 40.51,-81.56 38.86,-129.5 -1.76,-57.4 -0.26,-92.52 35.07,-103.31 33.37,-10.66 97.19,55.68 157.88,120.29 67.3,71.2 136.82,144.56 194.58,144.56 16.47,0 31.15,-5.75 43.65,-16.52 16.52,-14.19 22.95,-40.05 30.89,-70.83 16.28,-62.96 32.54,-106.27 89.33,-99.65 66.03,7.25 92.2,46.99 127.77,112.02 14.88,27.18 28.89,67.75 44.08,110 37.02,106.84 79.48,228.21 164.63,231.78l3.79 -0.05c34.45,0 57.22,-16.59 77.22,-30.77 21.19,-14.64 40.05,-27.06 67.06,-21.46 24.48,5.18 92.78,86.35 279.53,442.41 -45.48,-13.45 -91.4,-27.75 -137.31,-44.35 -378.13,-123.86 -807.59,-286.04 -993.66,-399.56 -67.39,-30.97 -81.76,15.59 -13.96,62.46l0 0zm-665.54 -502.34c-291.53,-229.09 -595.16,-489.26 -721.13,-643.53 -53.23,-51.73 -82.12,-12.11 -33.87,54.05 105.84,182.6 373.91,461.45 655.14,694.57 -18.17,41.57 -22.46,83.39 -13.11,125.51 -145.32,-15.21 -297.01,-36.95 -313.72,-61.93 -15.95,-24.53 -10.97,-44.66 -4.72,-70.52 6.17,-24.98 12.87,-53.35 -1.53,-86.92 -27.25,-62.5 -117.76,-70.08 -193.19,-70.08 -27.51,0 -55.38,0.62 -82.2,1.64 -47.17,2.08 -91.97,3.1 -118.95,0 -63.13,-8.27 -117.77,-14.95 -150.81,-77.9 -27.51,-51.16 5.99,-80.56 59.86,-119.27 25.37,-18.62 47.37,-34.57 54.5,-55 28.39,-80.55 -91.4,-128.3 -207.07,-174.71 -78.4,-31.23 -167.2,-66.68 -169.54,-102.44 -2.76,-37.52 31.61,-53.49 89.06,-76.26 49.45,-19.05 100.17,-39.17 109.57,-88.25 9.46,-46.68 -50.71,-109.87 -112.98,-170.31 -11.84,-11.34 -21.5,-21.19 -27.55,-27.31 -24.22,-28.21 -76.65,-98.15 -36.45,-147.73l8.58 -8.78c33.23,-27.86 80.48,-16.78 147.97,33.04 6.36,4.18 15.33,11.85 26.24,21.2 61.7,52.08 126.21,102.62 173.15,102.62 4.67,0 8.51,-0.45 12.68,-1.45 48.7,-10.85 65.34,-63.08 79.72,-108.99 17.09,-53.43 30.08,-85.73 67.6,-85.73l0.1 0.07c35.52,1.08 74.04,88.88 108.54,165.71 44.46,101.17 90.82,205.49 157.05,205.49l0.19 0c8.13,0 16.59,-1.53 24.72,-5.17 19.86,-7.39 35.07,-29.97 52.61,-56.26 22.72,-34.07 48.94,-72.78 85.34,-72.78 9.85,0 20.58,3.1 32.16,8.58 64.27,30.73 72.78,85.39 83.2,148.16 4.48,30.73 4.48,73.61 4.48,119.03 -0.19,113.02 -0.69,241.51 78.53,272.55 29.58,11.84 60.48,5.6 86.84,-1.65 25.42,-7.13 48.18,-11.23 70.33,2.65 17.78,10.34 46.87,82 88.94,336.55 -17.47,-2.33 -34.45,-3.4 -50.85,-3.4 -45.72,0.04 -85.51,8.74 -119.43,24.95l0 0zm41.67 464.74c0,38.6 -31.28,69.64 -69.7,69.64 -38.29,0 -69.38,-31.04 -69.38,-69.64 0,-38.54 31.09,-69.44 69.38,-69.44 38.42,0 69.7,30.9 69.7,69.44l0 0zm-1775.14 -2482.46c35.57,200.27 181.46,537.07 356.68,843.42 -17.29,31.97 -25.3,67.61 -23.6,106.08 0.88,16.79 3.64,33.81 7.63,50.9 -188.52,-92.16 -287.12,-150.76 -292.87,-175.86 -6.55,-28.39 5.06,-45.68 19.62,-67.61 14.69,-21.64 30.73,-45.67 28.52,-81.81 -5.25,-85.16 -127.23,-124.39 -235.2,-159.01 -42.89,-13.94 -83.39,-26.79 -111.07,-41.57 -56.9,-28.9 -105.65,-54.43 -115.54,-124.7 -7.63,-57.6 33.42,-73.62 97.57,-91.9 30.28,-8.51 56.26,-16.1 69.94,-32.54 54.31,-65.85 -41.24,-151.83 -134.09,-235.2 -62.82,-56.45 -133.9,-120.79 -123.87,-155.02 10.23,-35.88 48.44,-39.24 109.8,-40.31 53.17,-1.34 107.61,-2.58 133.41,-45.16 24.84,-41.05 -10.28,-121.03 -47.68,-199.24 -6.94,-14.69 -13.06,-26.94 -16.14,-34.88 -12.61,-32.54 -35.33,-108.42 8.32,-145.32l0 0.26 14.33 -9.27 8.13 -3.65c40.12,-11.85 79.59,14.88 124.75,83.08 3.98,6.68 9.84,17.09 17.28,29.47 44.15,77.14 91.28,153.26 139.39,159 49.44,5.94 81.81,-35.14 112.51,-75.38 29.47,-37.71 56.65,-71.78 93.05,-56.76 32.68,12.87 39.36,108.37 44.72,193.07 7.94,123.13 16.59,250.67 101.94,250.67l0.11 -0.05c21.32,-0.81 43.46,-16.28 68.49,-34.87 27.25,-19.62 58.1,-42.27 86.99,-42.27 16.4,0 31.09,7.82 45.34,22.19 49.64,51.35 39.17,105.35 27.25,167.78 -5.86,30.97 -20.74,70.78 -36.64,113.02 -39.1,106.28 -83.63,226.61 -20.38,283.4 27.37,24.03 56.52,26.1 82.12,28.39 26.56,2.07 47.44,3.41 65.61,26.37 11.23,14.44 14.68,76.14 -17.98,266.35 -46.6,-23.77 -97.19,-39.74 -146.65,-39.74 -27.37,0 -52.93,5.17 -76.65,14.95 -180.65,-297.32 -353.72,-611.11 -413.96,-785.66 -32.32,-66.97 -72.8,-39.6 -51.18,39.38l0 0zm366.64 1207.18c0,38.4 -30.96,69.94 -69.32,69.94 -38.74,0 -69.75,-31.54 -69.75,-69.94 0,-38.22 31.03,-69.52 69.75,-69.52 38.43,0 69.32,31.28 69.32,69.52l0 0zm-879.99 -1594.4c-38.74,0 -70.08,-31.46 -70.08,-69.7 0,-38.67 31.34,-70.14 70.08,-70.14 38.36,0 69.56,31.47 69.56,70.14 0,38.24 -31.15,69.7 -69.56,69.7l0 0zm837.99 -659.69c-11.04,-44.15 -74.74,-89.33 -109.61,-107.61 9.84,-12.11 20.19,-24.79 31.34,-37.47 93.55,-110.45 221.21,-261.71 208.6,-435.9 -2.58,-33.75 -10.09,-137 -104.9,-182.84 -7,-3.29 -14.13,-5.87 -20.93,-8.28 66.23,-16.47 138.2,-34.44 216.1,-54.42 71.78,-18.24 134.55,-68.75 172.57,-138.96 44.65,-81.93 51.35,-183.68 18.67,-279.15 -47.56,-139.72 -134.79,-448.27 -122.44,-813.79 349.55,-68.94 856.34,-104.46 1252.71,-103.63 83.51,0.07 104.51,-97.57 19.86,-97.57 -76.83,0 -917.08,-1 -1255.55,-1.45 7.2,-51.97 16.79,-104.63 29.09,-157.75 40.93,0.12 159,-0.45 159,-0.45l-0.26 -92.35 341.99 0.02 -0.5 80.79 155.29 1.19c0,0 41.81,-98.07 42.58,-178.74 0.57,-43.84 -20.01,-91.71 -20.01,-91.71l266.55 0.03c0,0 -19.86,39.09 -20.43,89.18 -0.38,82.43 43.15,181.65 43.15,181.65l149.73 -0.38 0 -54 160.01 -0.26 0.5 58.41 85.77 -0.46 0.81 -85.03 187.73 0.02 0 87.23 422.52 0.26 2.41 426.51c0,0 -359.4,-243.85 -768.11,9.01 -123.82,76.26 -242.66,199.12 -290.77,348.93 -64.84,201.2 -15.14,365.57 6.56,413.32 59.05,130.11 193.57,234.19 264.78,258.53 59.36,55.95 105.7,140.53 151.11,163.99 29.78,15.4 65.27,-16.79 97.14,-16.91 17.41,0 28.21,27.82 57.03,44.61 35.14,20.24 49.51,25.67 61.43,35.71 22.46,19.31 55,43.38 90.76,48.75 68.68,10.08 112.28,-39.1 148.03,-82.37 14.95,-18.35 54.81,57.53 50.85,59.05 -127.08,42.51 -203.15,173.34 -253.69,262.21 -50.97,88.75 -175.29,372.2 -175.29,372.2 0,0 -290.07,-138.13 -349.93,-131.71 -331.15,20.69 -490.84,200.31 -490.84,200.31 0,0 -175.6,-148.08 -420.33,-58.33 -202.35,74.62 -187.33,245.73 -187.33,245.73l-129.42 145.01 29.13 392.89 -68.49 32.54c-4.91,-100.67 -14.68,-227.18 -67.1,-320.11 -44.46,-77.9 -108.92,-99.09 -200.13,-65.6 -23.22,9.34 -46.87,25.29 -67.99,42.89 107.42,-156.41 216.58,-337.37 200.25,-403.74l0 0zm-72.97 -1116.97c-13.11,-88.25 -66.8,-131.38 -163.94,-131.71 -51.21,0 -112.09,28.44 -152.07,47.44 -6.94,2.95 -14,6.36 -20,9.01 -9.39,-126.97 -68.18,-296.82 -198.25,-337.2l-53.87 -8.51c-8.39,-0.46 -16.9,0 -25.61,0.76l0 0 -5.43 0.5c-57.98,5.86 -105.51,31.8 -141.6,77.57 -16.79,20.69 -29.4,44.91 -39.62,70.83 -57.6,-463.34 -58.48,-1081.91 139.83,-1632.47 327.17,53.88 699.25,98.46 794.98,105.89 2.46,0.62 4.72,0.62 7.32,0.62 24.22,0 47.37,-9.15 65.35,-25.55 19.35,-18.05 24.79,-39.98 39.09,-73.85 14.88,-36.14 91.71,-214.51 146.01,-272.22 47.75,-51.09 154.22,-36.4 178.75,49.06 4.36,15.21 3.65,29.77 -10.16,47.99 -603.86,785.27 -355.36,1720.79 -257.72,2006.38 15.71,44.53 13.64,90.44 -5.6,125.7 -12.42,23.03 -30.97,39.09 -51.02,44.27 -92.28,23.34 -176.67,44.65 -254.43,64.03 11.44,-56.45 16.5,-114.62 7.99,-168.54l0 0zm1979.25 -4306.43c15.25,40.81 68.68,99.65 104.08,135.79 18.85,19.69 10.42,28.89 -20.81,24.33 -51.47,-7.31 -127.04,-15.32 -156.55,-6.74 -30.54,8.7 -86.61,63.2 -122.94,101.67 -20.93,21.65 -31.47,15.07 -27.18,-15.71 6.75,-49.39 13.5,-118.84 2.96,-147.97 -10.85,-31.46 -67.23,-94.85 -103.75,-133.71 -18.55,-19.69 -10.85,-28.7 19.24,-23.65 49.25,7.44 121.41,16.09 159.51,5.68 34.87,-9.97 82.24,-55 116,-91.78 24.53,-26.06 34.37,-21.46 28.89,13.44 -7.77,44.68 -13.33,103.72 0.55,138.65l0 0zm325.14 979.42c15.94,40.69 69.01,99.65 104.27,136.17 18.66,18.93 9.89,28.25 -20.58,24.22 -51.85,-7.44 -127.08,-15.59 -156.93,-6.94 -30.34,8.82 -86.22,63.2 -122.93,101.17 -20.43,21.65 -30.97,15.21 -26.87,-15.75 6.44,-49.06 13.11,-118.27 2.84,-147.4 -11.11,-31.61 -66.99,-94.85 -104.01,-133.66 -18.48,-20.05 -10.35,-28.59 19.16,-24.11 49.33,8.13 121.49,16.41 159.13,6.25 35.52,-10.23 82.81,-55.5 116.62,-91.64 24.41,-26.24 34.75,-21.95 28.39,13.07 -7.22,44.89 -12.9,103.55 0.91,138.62l0 0zm851.19 -1704.89c15.83,41.01 68.94,100.03 104.58,135.86 18.86,19.74 10.46,28.51 -20.88,24.15 -51.59,-7.25 -126.97,-15.26 -156.74,-6.51 -30.59,8.63 -86.47,62.89 -122.87,101.48 -20.81,21.46 -31.09,15.07 -26.75,-15.75 6.37,-49.06 12.73,-118.27 2.58,-147.78 -10.73,-31.61 -67.3,-95 -103.89,-133.59 -18.29,-19.62 -10.54,-28.59 19.35,-23.72 49.21,7.74 121.37,16.28 159.39,5.67 34.76,-9.7 82.36,-55.19 116.24,-91.64 24.22,-26.17 33.92,-21.45 28.51,13.26 -7.34,44.65 -12.9,103.7 0.48,138.57l0 0zm128.66 1376.46c16.09,40.36 68.94,99.6 104.27,135.98 19.16,19.55 10.42,28.39 -20.43,24.41 -51.92,-7.32 -127.16,-15.9 -157.05,-7.13 -30.16,8.63 -85.97,63.32 -122.99,101.68 -20.38,21.64 -30.58,15.01 -26.29,-15.91 6.24,-48.94 12.87,-118.45 2.45,-147.53 -11.03,-31.73 -67.29,-94.93 -103.89,-133.67 -18.04,-19.69 -10.53,-28.51 19.36,-24.29 48.94,8.08 121.41,16.52 159.13,6.05 35.44,-9.65 82.81,-55.06 116.31,-91.9 24.34,-26.1 34.3,-21.38 28.44,13.45 -7.13,44.75 -12.81,103.91 0.69,138.86l0 0zm651.56 70.09c-6.74,0.5 -95.5,-11.8 -202.84,128.54 -43.58,57.45 -24.72,157.69 2.07,150.99 26.94,-6.24 119.6,-83.58 118,-72.78 -2.14,20.39 -15.06,51.16 -30.58,74.5 -11.85,17.78 -88.37,61.24 -110.07,97.38 -26.62,45.03 -0.5,104.01 -5.86,112.09 -9.2,13.88 -32.54,21.89 -38.36,15.95 -31.08,-30.85 -40.69,-145.32 5.06,-202.46 18.09,-22.53 -66.04,-81.82 -50.02,-170.43 12.11,-67.1 43.2,-93.04 82.06,-119.91 64.65,-44.41 110.68,-51.16 178.24,-104.96 126.58,-100.67 171.38,-142.87 272.93,-153.45 31.73,-3.29 116.5,29.01 142.03,36.26 127.92,36.9 205.61,15.06 247.5,-2.53 23.96,-9.89 54.61,-29.66 86.72,-23.91 26.3,4.86 41.77,39.29 38.91,117.62 -44.08,-41.5 -206.68,-39.43 -218.29,15.26 -10.35,49.82 24.79,252.17 11.73,268.95 -23.46,30.39 -43.58,22.84 -86.8,7.63 -24.79,-7.75 -54.5,14.18 -53.88,20.74 1.39,12.56 39.29,17.09 53.43,23.76 23.21,11.66 49.82,23.34 67.6,22.53 19.24,-0.88 40.12,-19.24 58.6,-28.13 13.8,-7.13 23.72,-7.32 27.56,-14.06 7.01,-14.33 -12.5,-25.61 -13.19,-59.36 -2.21,-80.05 -6.62,-174.34 -4.17,-180.7 3.34,-3.72 8.63,-9.77 15.95,-5.17 10.54,7.05 17.09,21.57 42.77,22.45 15.59,0.96 27.13,-11.11 34.37,-20.5 4.72,-6.05 42.58,-27.75 52.85,-20.05 8.51,5.94 -0.12,20.05 -1.19,44.65 0,13.45 11.42,92.16 10.42,107.61 -7.32,109.76 -57.07,223.42 -130.8,338.47 -19.12,29.89 -30.47,62.24 -55.19,86.03 -30.4,30.01 -124.7,80.41 -320.16,-74.54 -49.32,-38.79 -77.33,-91.52 -93.78,-91.71 -12.18,0 -16.52,34.83 -16.52,60.48 0,32.23 36.26,83.43 83.63,126.85 31.03,29.2 94.16,65.84 125.27,76.37 52.61,17.91 117.69,37.15 168.78,56.77 119.41,45.48 316.44,131.06 407.14,221.58 102.75,102.74 191.88,280.87 260.3,513.68 37.14,125.82 113.55,462.4 193.19,773.02 74.74,290.53 154.22,559.72 153.95,557.26 -259.29,206.26 -192.88,560.86 -200.7,624.63 -19.74,1 -224.49,-1321.46 -373.91,-1961.73 -3.1,-13.37 -9.77,-28.89 -33.57,-27.87 -23.52,0.77 -26.55,21.82 -27.17,33.57 -0.26,11.49 192.31,1935.48 208.83,2219.81 -276.2,-28.51 -354.68,172.26 -442.91,150.23 0,0 -56.38,3.48 -58.02,-99.29 -0.26,-14.83 -36.02,-1192.35 -69.82,-1892.02 -13.69,-285.09 -15.4,-591.06 -29.21,-877.99 -0.57,-26.79 -11.42,-57.9 -33.42,-27.63 -57.83,124.44 -194.45,144.32 -317.2,118.77 -37.67,-12.92 -139.08,-29.33 -284.14,-190.62 -24.53,-21.81 -53.3,-3.98 -46.86,19.74 45.86,165.18 197.86,263.97 303.01,310.26 83.51,32.73 127.42,37.02 193.46,40.12 9.2,136.43 14.44,267.24 14.56,437.3 -130.44,-128.68 -312.03,-137.76 -436.58,-211.3 -118.46,-70.4 -202.73,-188.9 -295.56,-346.84 0,0 -20.93,-39.28 -46.56,-24.41 -26.1,14.07 -9.65,55.76 -9.65,55.76 43.96,160.34 124.89,353.65 290.91,476.71 74.73,55.19 247.06,127.35 325.01,169.04 138.58,74.62 175.53,250.91 175.53,250.91 -97.83,217.29 -272.22,400.89 -455.78,603.29 -183.41,202.58 -777.31,670.16 -762.17,562.62 19.35,-137.31 21.38,-464.03 21.38,-554.66 0.12,-467.7 -26.1,-648.85 -18.28,-983.64 -90.26,162.6 -220.82,191.04 -261.14,217.72 0,9.34 12.73,1455.63 12.31,1496.87 -60.94,-16.67 -167.66,-189.78 -215.53,-326.79 -7.82,-9.39 3.79,-2049.57 16.59,-2055.01l166.78 -85.08c6.43,124.82 4.22,320.8 5.43,392.96 175.22,-217.6 287.62,-376.87 485.1,-480.68 145.01,-76.26 411.29,-121.99 519.04,-177.25 75.31,-65.6 166.97,-401.47 182.99,-506.48 5.87,-39.9 10.23,-85.25 -12.11,-83.79l0 0zm-216.1 -438.69c45.68,-190.23 205.95,-259.55 355.3,-336.93 38.09,-19.55 74.42,-57.22 99.33,-99.6 32.12,-53.93 17.1,-136.17 -30.08,-91.02 -28.58,26.48 -97.07,82.01 -178.82,114.35 -99.83,39.82 -124.75,57.27 -209.47,141.92 -9.27,-46.42 -12.3,-226.11 67.99,-359.4 24.41,-40.74 59.86,-73.42 98.57,-96.38 -25.41,-124.01 1.7,-192.69 16.52,-195.98 26.3,-4.98 90.52,81.29 128.04,114.48 37.91,32.99 79.53,-7.63 52.93,-35.64 -8.52,-8.82 -23.22,-28.51 -37.91,-44.46 7.94,-28.7 10.28,-55.88 24.29,-49.25 11.35,5.67 75.57,64.91 95.31,154.97 10.97,5.49 59.93,11.11 114.28,57.22 164.76,140.15 283.14,416.84 349.94,814.86 -9.21,-4.98 -26.99,-42.32 -63.32,-42.7 -27.75,-0.12 -77.33,21.82 -88.87,26.8 -55.69,26.17 -144.63,21.31 -214.19,-5.18 -20,-7.43 -106.59,-32.8 -166.21,-26.43 -105.46,11.11 -184.3,47.48 -288.57,146.7 -73.61,69.83 -170.88,103.7 -170.88,103.7 -5.05,-28.32 -16.71,-45.98 -5.05,-76.19 9.89,-26.79 40.5,-62.31 40.88,-84.01 1.24,-50.39 -3.93,-73.23 9.99,-131.83l0 0zm2119.16 368.6c16.28,40.36 69.33,99.6 104.32,135.98 19.24,19.55 10.16,28.39 -20.31,24.41 -51.97,-7.32 -127.16,-15.9 -157.05,-7.13 -30.01,8.63 -86.03,63.32 -122.79,101.68 -20.58,21.64 -30.85,15.01 -26.63,-15.91 6.17,-48.94 13.11,-118.45 2.83,-147.53 -11.34,-31.73 -67.75,-94.93 -104.08,-133.67 -18.28,-19.69 -10.91,-28.51 19.05,-24.29 49.13,8.08 121.56,16.52 159.46,6.05 34.88,-9.65 82.32,-55.06 116.38,-91.9 24.1,-26.1 34.26,-21.38 28.2,13.45 -7.39,44.75 -12.94,103.91 0.62,138.86l0 0zm396.18 2152.01l121.99 0.31 0.69 198.63 118.12 0 1.52 -386.96 51.47 -142.86 47.18 142.86 0.57 193.46 66.61 -42.08 62 40.17 0 -189.28 47.25 -146.66 44.53 147.02 0.57 383.73 86.73 -0.26c0,-1.96 -0.19,-13.8 -0.19,-78.91 0,-88.94 92.71,-126.77 92.71,-126.77 0,0 92.85,45.53 92.85,126.77l0 78.91 112.31 0.05 0 -62.32 90.63 0.31 0.26 -81.74 117.39 -56.9 116.62 56.37 0.12 150.12c0,0 146.2,0 197.67,0.12 13.3,52.42 24.1,103.93 32.35,155.16 -323.14,0.27 -1198.29,1.46 -1276.81,1.46 -84.78,0 -63.46,97.64 20.38,97.57 404.88,-0.81 926.12,36.52 1276.43,108.8 10.92,304.14 -55.76,585.58 -128.49,816.75 -41.82,134.02 -40.93,238.98 3.84,320.3 52.92,96.76 151.83,133.4 222.08,152.45 15.52,4.36 47.75,13.18 90.63,24.53 -59.74,51.2 -65.72,129.11 -67.55,158.31 -12.88,174.22 115.11,325.47 208.08,435.9 10.78,12.68 21.77,25.36 31.62,37.47 -35,18.28 -98.58,63.46 -109.38,107.61 -17.16,66.34 92.52,247.3 199.56,403.66 -21.19,-17.78 -44.08,-34.06 -67.87,-42.88 -90.9,-33.57 -155.6,-12.37 -200.13,65.6 -54.04,96 -62.7,228.95 -67.37,331.39 -30.01,-18.05 -81.74,-36.71 -130.99,-36.71 -5.6,0 -11.8,0.5 -18.05,1.07 -104.63,9.27 -147.97,102.67 -162.41,133.71 -0.46,1.07 -0.89,2.07 -1.53,3.1 -21,-14.45 -52.16,-29.66 -97.14,-39.29 -44.46,-9.53 -79.41,-12.37 -105.2,-13.11 346.9,-265.35 446.24,-754.93 215.52,-1138.47 -231.23,-384.69 -713.69,-525.79 -1111.99,-339.9 -75.37,8.46 -147.34,-30.89 -147.34,-30.89 0,0 42.26,-84.97 83.38,-178.94 28.78,-66.03 53.24,-143.63 61.89,-259.03 4.67,-60.17 -4.41,-127.35 -10.23,-200.27 -8.63,-99.79 1.53,-280.95 -54.8,-409.72 -143.18,-329.5 -415.59,-343.26 -415.59,-343.26 0,0 -30.96,-242.51 -50.39,-322.49 0,0 84.32,-0.88 216.98,-0.81l0 -93.67 91.14 0.58 0.02 -110.07 -0.24 0zm699.72 -2152.01c16.09,40.36 69.32,99.6 104.08,135.98 19.36,19.55 10.16,28.39 -20.57,24.41 -51.73,-7.32 -126.54,-15.9 -156.62,-7.13 -30.28,8.63 -86.3,63.32 -122.68,101.68 -20.93,21.64 -31.16,15.01 -26.86,-15.91 6.31,-48.94 12.99,-118.45 2.64,-147.53 -11.3,-31.73 -67.61,-94.93 -103.82,-133.67 -18.61,-19.69 -10.96,-28.51 19.05,-24.29 48.94,8.08 121.29,16.52 159.01,6.05 35.52,-9.65 82.81,-55.06 116.62,-91.9 24.41,-26.1 34.56,-21.38 28.39,13.45 -7.37,44.75 -12.97,103.91 0.76,138.86l0 0zm1164.99 3875.83c-68.88,-17.98 -135.67,-35.64 -195.41,-52.28 -75.24,-20.24 -95.69,-43.58 -104.08,-59.48 -17.6,-32.35 -13.88,-91.14 11.11,-170.73 96.5,-306.67 376.6,-1198.98 -312.46,-2035.97 27.06,-99.45 134.78,-126.46 186.51,-70.7 54.88,57.9 113.72,234.5 171.95,321.99 14.19,21.69 80.25,48.75 104.63,48.75 2.22,0 445.05,-51.01 770.14,-104.13 185.3,530.78 186.52,1129.16 131.38,1594.25 -6.82,-12.11 -14.06,-23.72 -22.77,-34.25 -35.87,-45.99 -83.81,-72.09 -142.36,-77.53l-4.41 -0.5c-186.83,-16.66 -266.55,194.38 -278.04,344.95 -5.6,-2.64 -12.73,-6.05 -19.35,-9.01 -40.24,-18.98 -101.17,-47.44 -152.83,-47.44 -96.69,0.38 -150.19,43.46 -163.8,131.64 -10.8,70.25 1.31,147.97 19.79,220.44l0 0zm-577.38 2798.33c-6.82,6.17 -13.64,12.42 -19.81,18.47 -2.34,-5.6 -5.75,-12.87 -8.39,-19.54 -18.43,-40.82 -45.68,-102.25 -85.16,-135.48 -73.8,-63.27 -140.84,-66.42 -209.78,-7.58 -84.39,71.52 -138.07,193.31 -177.81,288.07 -14.64,-18.86 -38.6,-40.81 -67.42,-58.34 -100.29,-110.94 -83.63,-254.93 -80.79,-306.35 1.69,-55.5 -42.84,-53.92 -84.51,24.03 -133.71,250.14 -192,346.83 -339.39,493.99 -104.97,105.15 -358.21,238.72 -408.98,216.29 -10.28,-4.1 254.57,-330.38 284.58,-607.03 -4.41,-63.46 -47.17,-57.84 -84.15,0 -284.01,444.93 -607.65,621.1 -777.12,686.49 23.22,-122.8 39.62,-248.76 47.75,-376.87 1.88,5.17 -204.8,-35.52 -204.8,-269.91 0,-214.76 171.95,-243.66 173.95,-238.98 -85.08,-641.65 -372.08,-1178.6 -756.7,-1470.7 12.04,-178.12 -13.49,-454.75 226.38,-721.63 57.64,-64.53 267.23,-191.92 377.56,-234.5 35.76,77.34 83.89,133.33 128.04,205.11 35.38,70.64 16.09,160.53 -24.53,285.93 -84.89,232.81 -114.36,331.95 -116.43,425.38 -0.76,49.63 37.86,136.31 74.35,117.76 94.43,-318.27 219.63,-705.15 202.04,-834.72 -24.79,-140.79 -153.33,-196.17 -164.06,-342.68 -5.68,-27.13 -6.13,-58.41 -2.84,-87.49 0.31,-1.88 1,-3.91 1.19,-5.87 10.92,-103.31 95.19,-220.39 112.64,-243.2 83.2,-39.43 203.04,-111.02 268.26,-168.4 65.61,-57.26 153.91,-134.9 181.96,-181.84 1.34,-2.58 3.29,-4.41 4.8,-6.44 4.29,-7.82 7.81,-15.33 10.34,-23.53 20.24,-67.6 -49.06,-162.1 -43.19,-168.59 7.74,-7.43 87.48,29.97 106.22,123.44 8.13,42.2 6.56,60.86 -3.48,77.72 42.27,24.22 115.86,46.67 202.08,127.34 37.22,34.57 53.69,101.87 46.87,148.85 -84.7,-16.21 -172.83,27.44 -179.7,56.96 -10.72,62.24 11.61,134.59 14,192.18 0.5,16.67 5.55,48.18 -0.89,55 -38.59,33.69 -112.47,-21.64 -116.57,23.53 -0.5,14.18 30.21,8.27 44.27,15.95 17.98,9.65 32.99,31.28 55.07,30.97 14.37,-0.08 24.72,-17.55 47.68,-36.53 13.11,-11.61 21.69,-9.89 31.54,-19.16 8.32,-6.44 1.69,-31.61 -0.7,-47.44 -5.74,-45.72 -11.84,-118.65 -9.84,-152.45 0.81,-7.32 10.54,-7.89 17.21,-2.84 15.95,12.3 30.97,9.54 39.43,8.01 11.92,-2.07 23.41,-11.8 30.59,-21.69 5.05,-5.37 29.77,-48.75 28.89,-33.31 -1.34,21.39 2.64,36.07 5.05,51.85 3.22,19.17 15.07,67.18 11.61,104.71 -9.2,101.29 -24.34,173.45 -106.72,323.94 -17.79,29.9 -32.16,87.49 -80.79,99.79 -153.27,38.86 -325.6,-91.78 -417.04,-189.04 0,0 -58.67,-50.71 -71.59,-89.83 -6.75,-21.07 27.87,-106.72 41.31,-140.79 11.23,-28.13 -22.14,-30.01 -50.66,-6.74 -24.6,19.85 -42.57,73.85 -42.57,73.85 -26.68,64.58 -20.38,106.46 -9.16,135.86 58.22,135.23 196.17,245.73 157.36,410.93 -63,329.31 -85.58,1103.41 -220.01,1103.41 -156.43,0 -417.18,-564.46 -464.59,-638.74 -56.71,-88.25 -158.63,-46.49 -86.85,89.75 41.01,77.96 296.7,705.68 556.07,727.88 88.94,7.74 124.89,-53.69 161.27,-174.46 51.66,-174.26 102.75,-636.97 181.77,-1140.81 7.75,-48.56 -13.75,-100.67 -20.74,-131.64 83.32,75.43 212.88,104.82 350.58,125.78 24.91,2.26 51.73,2.26 79.71,0 -281.37,222.46 -395.03,593.66 -293.98,930.98l-1.38 -2.08c0,0 138.5,468.2 105.46,692.5 -26.29,138 -104.63,153.6 -122.93,165.71 -55.57,37.14 -37.91,84.65 -32.54,90.63 17.97,20.93 37.71,9.2 114.97,-20.69 164.3,-64.53 738.03,-329.88 1268.35,-296.82 15.33,1.53 31.04,5.17 47.3,9.35 19.5,6.67 39.28,14.87 58.52,24.53 36.07,18.85 65.65,51.34 90.02,93.4 18.16,32.23 30.84,65.03 38.4,87.49 9.16,32.04 19.69,62.69 29.82,92.4 6.56,26.79 12.42,54.68 18.24,82.55 -38.4,6.25 -104.96,23.27 -130.49,59.93 -40.15,58.05 -0.41,270.72 45.58,456.04l0 0zm-1209.69 -1839.79c-95.42,9.27 -172.06,-1.77 -228.13,-17.55 16.28,-165.18 87.53,-323.64 206.87,-446.24 -19.43,71.97 -45.17,237.72 21.26,463.79l0 0zm853.58 -207.02c-12.56,-20.88 -18.35,-34.11 -32.68,-53.88 -188.59,-265.61 -392.89,-366.26 -505.6,-402.92 274.36,-75.95 572.82,11.85 762.06,230.21 -20.74,149.23 -103.06,392.39 -461.76,611.18 -105.7,64.73 -203.8,108.42 -293.05,137.01 -15.4,-21.39 -29.71,-42.77 -43.92,-64.73 -18.85,-29.39 -36.83,-60.43 -53.61,-91.63 -7.13,-12.69 -13.3,-25.04 -19.24,-37.98 89.06,-22.77 190.74,-63.58 305.16,-132.14 30.4,-18.16 30.4,-18.62 58.53,-34.88 51.4,-30.15 -31.23,-166.96 -85.03,-138.57 -28.4,14.87 -28.25,15.76 -58.86,33.76 -101.68,60.16 -194.27,98.9 -276.96,122.62 -74.36,-254.43 -29.71,-478.97 -13.5,-543.57 112.64,33.04 394.39,139.88 568.37,404.73 16.4,25.87 30.47,50.09 47.75,74.88 36.55,51.66 139.6,-52.59 102.34,-114.09l0 0zm206.06 636.78c127.09,-131.37 179.01,-265.61 199.82,-364.44 -2.64,180.96 -70.97,358.01 -196.29,493.99 1.31,-34.36 0.74,-78.51 -3.53,-129.55l0 0zm-21.71 -157.17c-1.77,-10.84 -3.98,-21.64 -6.82,-33.04 -3.98,-20.62 -3.98,-12.11 -8.13,-34.06 -7.06,-38.74 -28.58,-29.97 -68.56,12.92 -23.96,24.79 -46.41,60.86 -41.05,85.39 4.72,21.31 -0.45,3.84 5.17,23.96 4.1,15.52 7.94,30.96 11.66,45.79 -43.15,34.83 -92.71,69.56 -149.61,103.94 -77.03,46.94 -149.43,81.82 -216.72,107.85 -46.94,-43.65 -96.38,-92.97 -144.63,-148.66 83.5,-27.87 174.64,-69.71 272.78,-130.64 357.25,-221.39 438.55,-498.66 454.95,-645.25 1.95,3.1 4.29,6.51 6.05,9.85 29.28,48.56 51.92,98.91 69.18,150.23 -4.96,56.81 6.41,244.14 -184.27,451.72l0 0zm-61.36 366.96c-24.53,19.35 -50.4,37.71 -78.03,54.18 -40.74,24.34 -82.51,44.46 -125.08,60.48 -25.41,-17.85 -57.52,-41.31 -93.86,-69.7 53.93,-23.27 111.33,-52.42 171,-89.37 40.17,-24.3 76.83,-50.02 109.37,-75.81 9.35,52.61 14.07,94.19 16.6,120.22l0 0zm-422.41 88.3c33.81,22.71 64.97,42.12 92.79,58.4 -44.8,4.56 -87.8,8.7 -129.43,13.88 -96.38,0.5 -191.88,-17.55 -281.44,-53.43 85.27,14.14 191.93,15.71 318.08,-18.85l0 0zm-534.8 -114.6c-55.19,-49.06 -103.94,-107.42 -144.51,-174.02 -2.22,-4.1 -4.41,-8.2 -7.13,-12.61 83.58,35.88 217.6,73.85 395.99,47.25 51.66,58.09 106.47,109.99 160.34,155.35 -190.81,44.66 -328.07,14 -404.69,-15.97l0 0zm94.93 -343.8c16.33,28.2 33.75,55.26 52.23,81.55 -151,22.53 -268.45,1.07 -346.98,-25.29 -30.72,-77.91 -47.24,-159.51 -50.32,-240.51 40.36,20.05 135.36,65.03 283.02,58.86 10.34,24.22 21.81,49.01 34.75,74.35 8.44,17.54 17.95,34.06 27.3,51.04l0 0zm-751.67 -3333.52c123.13,619.2 160.65,906.5 160.65,906.5 0,0 -77.38,0 -134.21,12.11 -8.13,8.13 -72.28,-497.9 -164.37,-869.67 -193.45,-777.07 -313.36,-938.72 -500.23,-971.34 -79.22,-13.8 -110.14,27.7 -124.32,33.04 -11.85,-13.18 -40.32,-29.2 -49.97,-38.85 0,0 36.26,-270.53 220.63,-265.85 220.58,5.62 448.6,475.08 591.82,1194.06l0 0zm-2845.43 4850.44c5.36,186.56 -227,269.64 -227,269.64 -5.05,126.01 7.2,258.15 33.62,391.36 -153.96,-52.16 -509.08,-218.17 -817.13,-701.01 -37.02,-57.83 -79.72,-63.46 -84.2,0 30.16,276.65 294.86,602.87 284.4,607.04 -50.71,22.45 -304.09,-111.14 -408.98,-216.29 -147.28,-147.16 -205.8,-243.85 -339.54,-493.99 -41.57,-77.96 -85.72,-79.53 -84.15,-24.03 3.41,59.17 24.15,239.79 -133.21,352.84 -38.98,-92.9 -91.52,-207.57 -172.45,-276.2 -69.18,-58.86 -136.36,-55.76 -210.36,7.58 -38.78,33.23 -66.29,94.67 -84.2,135.48 -3.33,6.67 -6.55,13.94 -9.27,19.55 -6.06,-6.13 -12.61,-12.31 -19.74,-18.48 46.3,-185.3 86.15,-397.99 45.68,-456.35 -27.7,-40.31 -105.66,-56.83 -140.27,-61.74 5.05,-14.69 10.22,-30.2 16.14,-46.18 10.15,-29.2 21.19,-60.93 31.61,-93.4 68.94,-153.83 164.44,-263.58 326.16,-253.5 241.13,15.52 488.13,98.07 534.88,105.58l0.11 0c496.71,138.58 704.35,237.15 746.31,241.82 59.04,6.75 54.3,-35.06 36.52,-96.5 -23.53,-79.52 -53.31,-159.26 13.44,-331.95 27.18,-71.71 79.1,-181.2 123.68,-272.55 104.63,-181.73 215.41,-420.64 283.7,-547.18 51.47,-106.77 59.48,-177.36 12.12,-199.74 -58.53,-19.12 -131.71,115.61 -175.48,203.41 -82.63,146.33 -187.59,387.22 -330.89,547.23 -57.33,57.78 -76.83,50.51 -151.64,33.04 -305.78,-85.23 -955.01,-429.8 -1058.18,-423.6 -110.26,5.37 -222.09,-27.63 -307.81,-99.33 -13.68,27.36 -56.9,32.04 -64.53,13.87 8.27,-24.72 8.27,-60.86 27.51,-74.54 23.22,-28.71 85.96,-59.67 144.94,-78.22 121.41,-8.27 182.84,54.42 326.59,129.56 157.51,22.15 584.06,95.5 878.11,185.83 83.08,16.52 100.36,-42.08 35.95,-80.79l-54.81 -34.83c90.95,-261.7 181.39,-457.28 333.22,-691.16 101.25,-156.67 211.24,-112.02 380.28,-197.24 147.85,-60.56 224.49,-157.82 334.98,-245.81 346.84,308.88 448.08,798.7 513.35,1054.21 -443.85,317.2 -789.42,912.17 -798.08,1465.02 -0.35,6.55 202.44,32.87 208.62,251.55l0 0zm-1761.6 -1251.07c-95.69,-41 -179.08,-77.14 -274.56,-117.45 -117.26,-49.33 -249.52,-100.37 -364.45,-153.27 26.99,-28.7 32.85,-49.58 115.36,-58.09 19.74,21.65 156.36,108.92 264.28,101.67 141.15,-10.34 420.33,152.26 508.82,192 138.95,62.44 290.57,131.64 427.07,217.86 -81.12,72.28 -134.74,202.59 -134.74,202.59 0,0 -417.3,-124.2 -656.21,-185.83 -201.96,-51.85 -369.24,-98.4 -532.16,-132.95 -8.32,-26.29 -35.13,-211.61 -16.83,-207.2 58.29,13.11 416.42,134.97 416.42,134.97 0,0 171.76,60.86 226.76,81.05 92.02,33.07 134.16,-26.79 20.24,-75.35l0 0zm57.02 -550.77c46.75,-49.59 99.84,-82.13 149.49,-102.75 57.98,-19.69 90.57,-30.2 151.57,-38.74 126.97,46.99 214.96,76.95 341.61,126.71 -24.79,52.42 -39.36,95.99 -53.68,124.89 -199.13,-44.51 -368.22,-70.88 -588.99,-110.11l0 0zm1089.29 -1256.55c-29.01,11.3 -6.12,43.26 -16.9,156.93 -11.85,119.34 -44.6,213.76 -122.98,240.25 -41.58,12.11 -57.02,-29.28 -82.25,-48.25 -10.77,-8.13 -24.67,3.1 -36.52,-0.77 -9.15,-6.05 -6.43,-25.86 -14.32,-29.82 -10.09,-5.55 -30.66,5.05 -36.07,3.29 -6.06,-2.22 -12.23,-8.32 -13.81,-15.9 -2.71,-13.8 -10.84,-39.29 -17.9,-37.14 -10.61,9.08 -22.19,18.47 -28.51,23.77 -15.4,11.8 -22.08,15.59 -35.38,14.75 -14.68,-2.95 -18.85,-12.49 -33.04,-29.27 -20.93,-25.1 -50.85,-67.99 -67.94,-92.52 -14.06,-21.38 -34.06,-55.5 -63.2,-60.67 -45.86,-8.2 -140.6,-72.92 -164.1,-197.17 -3.29,-11.73 -5.87,-26.49 -8.13,-48.94 -8.89,-94.62 10.15,-184.87 46.17,-173.34 3.1,0.62 5.18,2.72 6.44,5.25 0.76,-1.15 0.76,-1.26 0.76,-0.07l0 1.38c3.6,7.25 2.34,19.62 0.81,35.14 0.77,47.25 2.96,77.02 17.98,93.54 18.35,21 56.26,21.96 74.23,18.86 76.84,-11.85 159.01,1.64 245.11,11.8 51.74,10.04 88.57,-8.13 110.19,-41.7 19.36,-35.94 57.21,-71.39 98.41,-79.52 124.2,-7.94 207.39,88.94 298.72,158.43 122.37,93.74 392.39,299.16 392.39,299.16 -80.86,104.89 -237.22,204.18 -366.95,251.21 -51.35,-105.77 -90.71,-132.52 -116.74,-153.52 6.77,-57.67 22.45,-307 -66.47,-305.16l0 0zm1070.99 371.38c0,0 239.11,-45.86 399.64,-156.17 103.74,-71.2 297.27,-239.24 395.53,-532.22 32.35,-96 -15.06,-168.85 -80.79,-59.74 -162.48,270.4 -491.53,602.93 -815.74,577.06 -89.56,-7.31 -154.86,-79.28 -189.93,-129.04 490.59,-235.45 921.26,-690.85 1302.61,-1211.47l-33.68 1169.52c-49.83,94.11 -111.07,199.74 -168.35,275.77 -175.72,231.78 -417.31,395.41 -590.45,270.97 -111.73,-80.31 -218.84,-204.68 -218.84,-204.68l0 0zm-456.7 -4314.89c0.81,31.28 -112.98,134.74 -112.98,134.74 0,0 18.1,618.69 12.3,616.35 -36.52,8.32 -104.89,30.16 -134.9,49.97 0,2.57 15.76,-662.08 15.76,-662.08 0,0 -96,-96.88 -96.38,-129.04 -0.89,-31.85 128.92,-513.68 158.12,-513.68 29.2,0 157.19,472.01 158.08,503.74l0 0zm-31.16 853.84c27.63,-8.39 55.26,13.95 60.43,38.4 0,16.29 -12.99,36.79 -14.18,54.12 -1.39,18.86 9.27,34.68 6.74,53.68 -2.48,18.67 -20.02,43.89 -23.93,61.06 -10.09,42.31 -10.35,70.58 -29.09,85.22 -29.08,24.41 -209.78,138.27 -331.19,165.56 -22.34,5.25 -43.77,234.58 -45.48,256.34 -7.44,105.96 -1.77,212.74 -8.9,318.39 -9.84,137.51 -3.48,291.91 -28.39,426.39 -19.69,106.53 -181.2,182.6 -286.85,182.6 -63.27,0 43.58,-531.15 52.04,-572.08 51.59,-248.33 98.83,-491.28 211.74,-721.82 85.29,-173.84 246.13,-301.83 437.06,-347.86l0 0zm3734.27 -3171.6c1580.11,694.64 2546.28,2739.54 2453,4210.74 -39.93,8.32 -83.82,16.83 -130.11,25.1l-97.7 16.78 -97.5 16.67c-230.9,37.02 -480.11,69.56 -628.84,86.22 -5.18,-147.47 -20.05,-296.08 -43.15,-444.98l-17.28 -96.38 -17.6 -97.07c-272.74,-1333.76 -1190.32,-2632.08 -1978.06,-2981.13 71.66,-94.8 157.51,-207.9 241.4,-318.08 115.07,-151.33 233.14,-306.81 315.84,-417.87l0 0zm-2539.3 -379.52c973.92,0 1680.03,319.66 2123,612.64 -17.4,22.65 -34.83,45.91 -52.54,68.87 -116.5,153.07 -237.15,311.72 -318.08,421.21 -18.36,24.84 -23.72,57.21 -14.33,86.42 7.75,23.76 64.46,116.31 88.3,146.89 82.2,104.13 235.65,221.08 173.45,317.2 -17.21,27.06 -41.12,39.98 -68.13,43.58 -227.19,-215.77 -916.35,-712.74 -1869.14,-712.74 -845.49,0 -1465.9,392.44 -1760.26,621.53 -47.75,32.3 -80.37,62.44 -81.49,62.44 -10.96,0 -61.55,-37.91 -55.18,-88.42 6.36,-47.37 53.11,-79.72 83.77,-113.02 23.84,-25.99 48.75,-52.81 70.01,-79.79 60.74,-77.57 78.6,-209.47 21.77,-283.97 -82.51,-108.8 -201.28,-268.07 -318.09,-421.21 -26.74,-35.45 -53.73,-71.09 -80.17,-106.23 428.68,-279.77 1107.23,-575.4 2057.11,-575.4l0 0zm-4898.73 4590.33c-93.16,-1471.27 872.82,-3516.19 2453.05,-4210.81 83.01,111.06 201.15,266.54 316.2,417.87 83.63,110.26 169.47,223.28 240.94,318.08 -787.73,349.05 -1705.46,1647.99 -1977.61,2981.56l-35.18 193.84c-23.15,148.46 -37.86,296.88 -43.15,444.16 -149.49,-16.9 -401.71,-49.77 -633.9,-86.99l-195.65 -33.42c-44.55,-8.22 -86.6,-16.23 -124.7,-24.29l0 0zm-64.79 2729.89c13.94,0 28.51,0.76 42.57,2.07 33.93,3.1 61.36,3.1 76.96,-5.67 71.97,-40.81 18.47,-149.69 -36.79,-257.46 -1.88,-3.41 -3.6,-6.68 -5.55,-10.16 -38.74,-75.18 -82.82,-160 -61.24,-188.32 9.89,-12.81 21.95,-18.55 39.62,-18.55 22.45,0 50.58,9.77 77.83,19.36 29.97,10.53 61.05,21.38 89.56,21.38 19.62,0 37.02,-5.55 50.97,-16.66 37.86,-29.28 33.57,-116.58 25.79,-203.04 -1.52,-16.33 -2.45,-29.89 -2.45,-38.4 -0.38,-36.02 5.55,-119.6 63.96,-134.79l23.03 -1.64c39.62,4.29 67.22,44.22 84.39,121.22 1.95,7.89 3.64,19.16 5.93,33.42 14,88.06 31.28,175.91 74.36,198.36 10.91,5.68 22.76,8.63 35.25,8.63 32.73,0 65.27,-19.62 96.5,-39.09 41.58,-25.42 79.03,-46.56 107.04,-20.93 25.98,24.53 -1.53,116.19 -26.25,196.67 -36.4,119.14 -73.66,242.77 6.68,270.64 18.47,6.94 46.56,0 76.83,-8.27 23.34,-6.25 47.37,-12.87 69.52,-12.87 29.96,0 49.06,12.87 61.24,41.19 28.2,65.03 -0.57,112.02 -34.26,166.2 -16.09,26.87 -44.27,58.98 -73.54,92.98 -74.55,85.39 -158.77,182.53 -119.46,257.79 16.78,32.3 43.39,44.65 66.73,55.5 23.91,10.84 43.07,20.12 51.92,47.48 5.29,17.02 -11.49,82.06 -159.27,323.64 -39.1,-51.59 -86.73,-95.81 -139.72,-120.29 -69.63,-360.09 -127.23,-747.49 -121.98,-943.9 -6.56,-73.66 -53.93,-62.82 -60.86,18.85 -37.79,200.01 -20.24,565.2 34.87,913.37 -10.53,3.41 -21.07,7.25 -31.47,12.42l-4.02 1.83c-36.53,17.55 -64.54,43.34 -84.39,75.62 -87.18,-94.93 -165.37,-188.47 -162.16,-214.76 3.84,-29.09 20.82,-41.01 42.58,-56.53 20.74,-14.87 44.65,-31.96 55.5,-66.6 25.1,-80.98 -75.69,-161.03 -163.68,-231.74 -35.38,-28.39 -68.94,-54.95 -89.49,-78.22 -49.78,-54.68 -78.79,-92.59 -63.77,-157.43 8.44,-37.78 32.09,-53.3 80.72,-53.3l0 0zm3169.71 6448.47c56.91,-57.83 130.12,-198.62 201.52,-351.07 67.79,17.09 136.31,32.54 205.3,47.56 -52.09,120.14 -106.73,237.98 -157.94,332.45 -93.71,-12.99 -180,-23.19 -248.88,-28.94l0 0zm619.39 92.36c-73.04,-14.45 -147.54,-28.06 -220.39,-40.17 40.36,-72.93 87.22,-195.79 134.66,-329.93 77.34,14.44 154.91,27.94 233.81,40.05 -40.47,117.35 -88.84,233.09 -148.08,330.05l0 0zm373.84 91.94c-63.32,-20.38 -137.69,-39.74 -216.79,-58.4 50.2,-70.21 99.33,-198.25 138.76,-342.5 77.34,10.09 155.29,19.36 234.01,27.06 -41.24,145.47 -99.15,290.98 -155.98,373.84l0 0zm1728.15 0c-56.26,-82 -112.9,-218.93 -154.9,-367.33 79.53,-7.25 158,-15.64 235.84,-25.56 39.62,140.41 87.03,265.35 136.12,334.49 -79.29,18.66 -153.55,38.04 -217.06,58.4l0 0zm373.65 -91.94c-57.97,-94.74 -106.22,-206.95 -145.58,-321.5 78.45,-11.92 156.17,-25.86 232.74,-40.81 44.27,132.64 91.9,251.29 132.95,322.11 -72.9,12.11 -147.25,25.68 -220.11,40.2l0 0zm619.77 -92.36c-69.25,5.75 -155.22,15.95 -249.14,28.94 -50.66,-92.35 -104.96,-206.44 -155.17,-324.71 68.87,-14.94 136.55,-30.89 204.11,-48.06 67.99,150.76 143.94,286.31 200.2,343.83l0 0zm3819.3 -5345.87c-163.36,790.3 -518.28,1944.63 -1282.17,2951.66 -1031.44,1359.75 -2491.29,2049.34 -4340.12,2049.34l-3.07 0c-1949.36,-1.08 -3463.63,-689.59 -4501.46,-2046.69 -750.83,-981.93 -1082.09,-2102.64 -1227.91,-2869.42 -141.23,-742.51 -158.01,-1427.74 -101.99,-1813.81 3.22,-23.72 22.96,-67.99 86.8,-52.8 130.18,31.65 318.66,81.29 501.95,128.3 -7.39,19.81 -11.42,42.84 -11.03,69.01 3.64,110.88 64.84,228.83 113.59,318.85 -22.15,0.26 -88.95,4.98 -146.14,46.22 -84.46,61.93 -73.42,164.68 -69.37,198.74 18.86,173.91 171.95,299.42 283.52,391.25 13.3,10.85 25.98,21.12 37.71,30.97 -32.23,25.03 -85.27,81.48 -88.06,125.39 -3.79,56.76 96.26,173.14 211.12,287.54 -95.69,18.05 -168.04,102.18 -168.04,203.35 0,75.95 41.38,142.48 102.94,178.36 -43.39,43.91 -52.04,97.34 -25.61,160.84 42.13,102.25 141.11,191.5 218.8,258.11 -33.76,12.92 -86.99,43.91 -120.41,95.04 -57.72,88.25 -10.35,180.08 5.36,210.55 79.03,155.98 266.61,219.44 403.54,265.66 16.1,5.36 31.66,10.54 45.92,15.76 -10.97,18.54 -21.12,42.88 -21.81,44.34 -12.62,30.53 -25.68,72.85 -16.14,104.32 15.9,51.35 139.26,120.84 278.98,184.87 -37.85,37.4 -61,89.25 -61,146.32 0,112.33 89.68,203.11 200.82,206.49 -8.51,43.01 6.05,84.85 42.89,125.66 74.73,81.55 198.43,131.14 294.24,167.32 -28.58,24.68 -67.3,73.74 -80.29,130.07 -23.53,102.74 52.28,172.95 77.21,196.17 106.47,98.91 261.95,111.52 385.65,111.52 29.39,0 57.78,-0.46 85.15,-1.53 16.97,0 32.73,-0.57 48.13,-1.07 -0.38,3.29 -1.07,7.75 -1.76,11.85 -4.11,29.7 -10.73,103.82 17.47,140.84 35.33,46.6 199.24,69.75 369.29,80.55 -19.24,31.47 -30.28,68.18 -30.28,107.49 0,113.97 92.71,206.94 206.57,206.94 14.44,0 28.32,-1.57 41.81,-4.17 -10.73,68.18 15.76,119.03 81.17,154.03 97.57,51.85 230.55,57.02 332.96,59.74 -19.36,32.92 -38.79,92.85 -32.16,149.11 11.85,104.82 106.85,145.63 137.81,159.19 44.8,19.36 94.74,29.28 148.66,29.28 117.7,0 236.53,-44.91 332.08,-81.86 15.59,-5.94 30.97,-11.61 45.34,-16.79 0.5,2.53 0.69,5.61 1.57,9.35 6.06,30.15 24.22,103.2 63.77,129.18 15.07,9.58 39.24,14.45 74.05,14.45 151.3,0 470.79,-92.4 622.17,-140.15 24.79,170.88 92.02,324.76 211.24,400.33 71.89,45.48 1003.11,41.81 1072.32,4.41 35.76,-20.05 66.98,-48.52 94.8,-84.08 0.7,-0.62 1.2,-1.08 1.7,-2.08 58.28,-76 99.1,-182.6 121.41,-298.91 156.93,48.75 462.95,135.66 607.2,135.66 34.64,0 59.05,-4.55 73.66,-14.87 39.48,-25.56 57.64,-97.58 63.65,-126.97 0.62,-4.1 1.58,-8.27 1.96,-11.99 14.56,5.79 29.82,11.42 45.67,17.28 95.38,36.95 214.19,81.87 331.77,81.87 54.23,0 103.94,-9.78 148.92,-28.94 30.73,-13.31 125.89,-54.69 137.69,-158.96 6.37,-56.76 -12.8,-116.62 -32.85,-150.19 102.37,-1.64 236.15,-7.24 333.49,-59.17 71.97,-38.28 96.88,-95.8 77.45,-174.26 19.43,6.25 40.36,9.78 62.12,9.78 113.86,0 206.64,-92.86 206.64,-206.64 0,-40.55 -11.85,-78.1 -31.97,-109.99 160.08,-11.73 308.5,-34.31 341.85,-78.84 28.51,-37.71 21.58,-111.71 17.28,-142.48 -0.57,-3.53 -1.19,-7.13 -1.88,-10.23 15.52,0.45 31.73,1.07 48.32,1.07 27.18,1.08 55.88,1.53 85.39,1.53 123.56,0 278.92,-12.56 385.84,-111.52 24.84,-23.22 100.48,-93.35 77.14,-196.17 -13.11,-56.33 -51.59,-105.39 -80.55,-130.07 95.92,-36.21 219.32,-85.72 294.29,-167.32 38.4,-41.81 52.04,-85.15 41.69,-130.49 92.21,-20.7 161.73,-102.75 161.73,-201.66 0,-50.85 -18.48,-97.33 -49.06,-133.71 151.37,-67.42 290.45,-142.49 307.3,-197.48 9.59,-31.47 -3.53,-73.81 -15.95,-104.32 -0.88,-1.46 -11.34,-25.79 -21.88,-44.34 14.45,-5.17 29.82,-10.35 45.87,-15.76 137,-46.22 324.44,-109.68 403.8,-265.66 15.4,-30.39 62.51,-122.29 4.87,-210.55 -33.23,-51.15 -86.35,-82.12 -120.03,-95.04 77.45,-66.61 176.79,-155.86 218.48,-257.8 24.34,-59.66 18.74,-109.75 -17.28,-151.83 71.52,-32.73 121.55,-104.5 121.55,-187.63 0,-108.87 -84.89,-198.25 -191.88,-206.18 113.79,-113.86 212.12,-228.45 208.28,-284.71 -2.76,-43.91 -56.02,-100.36 -88.25,-125.39 11.85,-9.85 24.41,-20.12 37.53,-30.97 112.21,-91.9 264.85,-217.36 283.96,-391.25 3.72,-34.11 15.07,-136.81 -70.08,-198.74 -56.57,-41.31 -123.44,-45.99 -145.59,-46.22 48.75,-90.02 110.14,-207.95 113.21,-318.85 0.58,-21 -1.76,-40.05 -6.55,-56.9 29.39,-9.71 57.52,-19.17 78.21,-25.42 168.55,-52.92 336.56,-105.46 462.84,-145.94 68.13,-21.64 116.19,21.08 119.72,53.31 33.01,332.62 17.06,961.04 -147.26,1759.55z"/>
  </g>
  <g>
   <path class="fil1" d="M10316.93 14432.96c35.18,-27.94 48.51,-61.5 40.16,-98.14 -8.27,-34.76 -31.46,-75.81 -70.39,-124.32l-74.43 -93.98 -312.45 249.4 67.22 84.7 128.92 -103.31 7.39 9.58c32.11,40.5 66.3,71.21 100.17,90.64 36.88,20.5 75.74,15.9 113.41,-14.57l0 0zm-115.5 -70.85c-15.76,-6.05 -32.85,-20.5 -50.71,-43.34l-7.63 -9.01 88.95 -70.97 7.31 9.35c19.7,24.72 30.59,44.79 32.69,60.29 1.83,13.44 -5.56,26.93 -21.65,40.04 -19.19,15.05 -35.26,19.77 -48.96,13.64z"/>
  </g>
  <g>
   <path class="fil1" d="M10547.14 14798.65c44.79,-44.34 68.82,-91.64 71.28,-141.49 2.76,-49.82 -20.19,-98.9 -67.94,-146.84 -48.33,-48.63 -97.77,-72.28 -147.09,-69.76 -48.56,2.65 -96.31,26.3 -141.48,71.28 -44.8,44.46 -68.45,92.21 -71.4,141.49 -2.58,49.82 20.57,99.14 68.06,147.08 40.69,40.74 82.43,63.58 124.25,68.13 7.63,0.58 15.21,1.08 22.33,0.58 49.71,-2.34 97.08,-25.82 141.99,-70.47l0 0zm-15.52 -174.72c-8.13,28.63 -29.58,60.86 -63.65,95.05 -34.95,34.3 -67.06,55.69 -95.62,64.03 -9.46,2.07 -18.16,3.1 -26.86,2.07 -16.52,-1.64 -31.97,-9.89 -46.61,-24.34 -21.81,-22.33 -28.58,-46.41 -21.12,-73.8 8.27,-29.39 29.39,-61.5 63.65,-95.19 34.83,-34.26 66.99,-56.02 95.74,-63.27 9.08,-3.1 17.97,-3.53 26.62,-2.76 16.6,1.76 31.61,10.03 46.56,24.98 21.86,21.65 28.61,45.29 21.29,73.23z"/>
  </g>
  <g>
   <path class="fil1" d="M10795.21 14740.55l-85.78 -76.83 -266.87 297.58 80.29 71.97 110.82 -123.56 12.88 11.66c21.76,19.81 33.37,37.09 33.37,51.59 0,15.52 -8.63,39.74 -25.91,71.33l-39.1 71.27 80.6 72.59 54.5 -103.82c13.68,-26.74 21.12,-49.2 22.84,-68.44 1.45,-11.54 -1.65,-24.53 -8.09,-37.85 19.24,6.93 35.83,9.7 50.85,8.7 23.65,-2.08 42.84,-11.8 57.98,-29.09 29.39,-32.8 34.83,-67.1 16.66,-104 -17.52,-34 -49.75,-71.95 -95.04,-113.1l0 0zm-5.56 149.19c-15.02,16.83 -30.73,22.45 -46.36,18.93 -18.1,-4.41 -39.86,-17.72 -64.35,-39.43l-4.67 -4.72 75.07 -83.39 5.29 5.05c23.96,21.58 40.36,40.93 47.82,57.79 6.96,13.85 2.29,29.06 -12.8,45.77z"/>
  </g>
  <polygon class="fil1" points="10969.04,15317.81 11170.05,15051.46 11084.04,14986.81 10843.15,15304.75 11066.04,15474.36 11105.97,15421.56 "/>
  <path class="fil1" d="M11081.51 15483.52l85.39 51.58 91.59 -70.82 121.37 73.92 -21.7 113.1 98.53 59.54 63.08 -429.29 -88.11 -53.68 -350.15 255.65zm310.81 -8.89l-83.07 -50.09 108.3 -83.51 -25.23 133.6z"/>
  <polygon class="fil1" points="12031.78,15549.98 11899.95,15927.35 12002,15962.99 12133.45,15585.62 "/>
  <polygon class="fil1" points="12445.67,15751.01 12464.72,15690.01 12188.19,15604.67 12070.83,15987.28 12353.27,16074.01 12372.51,16010.17 12193.31,15955.17 12225.66,15850.66 12389.91,15901.06 12408.89,15840.19 12244.66,15789.61 12272.46,15697.64 "/>
  <polygon class="fil1" points="12702.51,16014.91 12606.56,15726.53 12498.59,15700.17 12402.71,16087.95 12491.97,16110.08 12557.69,15848.44 12658.48,16150.89 12758.58,16175.37 12854.32,15787.96 12765.06,15765.82 "/>
  <polygon class="fil1" points="13208.35,16256.42 13315.15,16271.94 13371.6,15876.84 13264.75,15861.32 "/>
  <path class="fil1" d="M13541.57 15896.88l-206.06 380.9 99.33 9.9 52.16 -102.68 141.29 14.19 28.9 111.2 114.92 11.35 -128.03 -414.46 -102.51 -10.4zm-25.99 230.17l61.94 -122.25 34.18 132.14 -96.12 -9.89z"/>
  <polygon class="fil1" points="14257.64,15932.52 14163.05,16063.97 14071.46,15932.52 13945.61,15932.52 14098.57,16148.05 14098.57,16332.42 14206.32,16332.42 14206.56,16148.36 14367.09,15932.52 "/>
  <polygon class="fil1" points="16061.44,15919.1 15947.46,15605.74 15845.79,15642.71 15982.72,16018.32 16245.62,15922.18 16223.02,15860.24 "/>
  <path class="fil1" d="M16240.18 15487.36l9.28 432.81 91.63 -40.16 -5.86 -115.17 130.11 -57.79 80.05 82.63 105.01 -47.06 -315.82 -296.82 -94.4 41.56zm91.21 212.38l-6.06 -136.86 94.62 97.57 -88.56 39.29z"/>
  <g>
   <path class="fil1" d="M16826.64 15180.5c-34.63,5.6 -77.38,25.29 -127.73,58.53l-99.9 65.79 220.55 333.34 90.26 -59.74 -91.28 -137.62 10.08 -6.37c43.27,-28.94 76.45,-59.4 98.91,-92.21 23.96,-34.75 22.65,-73.04 -3.98,-113.85 -25.13,-37.71 -56.6,-54.12 -96.91,-47.87l0 0zm16.21 156.81c-7.82,15.26 -24.03,30.78 -47.87,46.99l-9.84 6.25 -62.43 -94.48 9.46 -6.63c26.37,-17.59 47.11,-26.48 63.12,-26.93 13.57,-0.62 26.11,7.24 37.6,24.84 13.44,20.81 16.78,36.64 9.96,49.96z"/>
  </g>
  <path class="fil1" d="M16962 15064.76l96.81 421.83 81.29 -57.9 -28.63 -111.9 114.98 -82.63 95.49 64.34 93.55 -67.1 -369.82 -226.45 -83.67 59.81zm210.97 133.14l-78.71 56.33 -34.11 -132.59 112.82 76.26z"/>
  <polygon class="fil1" points="17430.13,14786.23 17389.5,14737.34 17136.72,14947.83 17177.53,14997.2 17262.92,14926.26 17477.56,15184.6 17560.31,15114.85 17345.5,14857.2 "/>
  <g>
   <path class="fil1" d="M17753 14684.87c-11.85,-1.77 -24.84,0 -38.86,5.43 8.7,-18.28 13.11,-35.33 12.68,-49.82 -0.57,-23.77 -8.39,-43.91 -24.53,-59.86 -29.51,-31.8 -64.91,-39.74 -102.31,-24.22 -35.19,14.18 -75.38,42.69 -119.84,85.58l-82.94 80.17 276.89 287.93 77.46 -74.36 -114.67 -120.03 12.37 -11.53c21.31,-20.7 38.74,-31.04 53.93,-29.71 15.4,1.34 38.73,11.66 69.18,31.23l68.3 43.91 78.78 -74.35 -99.91 -62.39c-25.72,-15.61 -47.65,-24.89 -66.53,-27.98l0 0zm-109.23 21.14c-5.94,18.62 -20.74,38.74 -44.03,61.51l-5.05 4.6 -77.58 -80.98 5.06 -4.92c23.34,-22.45 44.03,-37.4 61.17,-43.57 14.52,-5.8 29.46,-0.62 45.29,15.95 15.14,15.92 20.12,31.7 15.14,47.41z"/>
  </g>
  <polygon class="fil1" points="17654.23,14469.67 17946.33,14741.63 18020.19,14662.67 17727.71,14390.12 "/>
  <path class="fil1" d="M17838.41 14264.16l200.97 383.68 64.03 -77.14 -56.57 -100.67 90.9 -109.11 108.03 37.85 73.81 -88.6 -415.08 -124.9 -66.09 78.89zm237.99 75.07l-61.74 74.8 -66.68 -120.03 128.42 45.23z"/>
  <path class="fil1" d="M13135.07 15832.3c-14.83,-4.29 -32.35,-9.34 -50.52,-12.3 -62.96,-12.99 -111.71,-5.17 -148.04,23.27 -34.44,27.32 -58.52,73.28 -71.47,135.24 -6.43,31.47 -8.51,60.29 -5.67,87.92 2.84,28.39 10.66,54.56 22.58,77.21 12.49,23.46 29.39,43.15 50.01,59.41 20.93,15.52 45.41,26.74 75,32.8 7.63,1.19 15.25,2.57 23.41,3.29l7.7 1.07c10.34,0.76 20,1.65 28.2,1.77 8.96,0.62 16.52,0.88 22.84,0.31 7.62,0.31 13.44,0.57 16.09,-0.31l20 -2.22 18.16 -102.32 -41.12 10.97c-9.15,2.07 -20.24,4.86 -33.42,7.2 -9.27,1.76 -21.27,1.76 -35.07,0l-5.36 -0.26c-14.19,-3.41 -25.18,-8.59 -33.38,-16.83 -8.63,-8.71 -15.44,-19.05 -19.73,-32.24 -4.92,-14.18 -7.82,-30.72 -7.9,-48.75 -0.11,-19.35 2.08,-40.24 6.82,-61.93 3.98,-19.69 8.97,-38.21 13.95,-54.69 4.36,-13.44 9.77,-24.22 15.95,-32.54 4.79,-6.24 10.84,-10.34 18.16,-13.06 8.77,-2.53 22.15,-2.53 36.33,0 9.01,2.07 16.52,4.17 23.65,6.82 7.94,2.84 15.9,6.36 22.77,9.34 6.55,3.1 12.37,6.25 18.04,9.47l5.06 2.83c3.52,2.65 6.74,4.72 9.84,6.18l34.19 22.07 17.4 -98.26 -19.93 -8.89c-8.25,-3.22 -19.98,-7.77 -34.54,-12.57z"/>
  <path class="fil1" d="M11770.34 15565.57c6.74,-12.42 13.75,-22 21.81,-28.94 6.06,-4.55 12.8,-7.7 20.93,-8.7 9.01,-1 20.31,1.33 35,7.25 7.82,3.1 14.63,6.24 21.88,10.53 7.63,5.06 14.45,9.35 20.62,13.76 5.67,4.41 11.23,8.58 15.26,12.73 3.6,2.95 6.67,5.93 9.27,8.13l33.38 31.35 36.52 -92.4 -18.36 -12.38c-7.44,-5.48 -18.24,-11.42 -31.35,-18.93 -13.99,-7.39 -29.58,-15.2 -47.25,-21.88 -58.59,-25.1 -108.8,-26.87 -149.73,-6.17 -39.28,20.38 -71.85,60.62 -96.26,118.64 -12.56,29.4 -20.38,57.84 -22.58,85.73 -2.71,28.39 0,55.26 7.25,80.55 7.63,24.98 20.38,47.44 37.33,66.8 17.48,19.69 39.93,35.94 67.06,46.98 9.2,3.84 19.62,7.39 29.82,10.54 10.23,2.65 19.62,5.79 27.63,7.25 6.13,1.64 12.11,2.64 17.17,4.17l11.92 2.33c4.29,0.77 7.24,0.77 9.2,1.34l19.86 0.45 37.14 -95.5 -42.2 2.08c-9.53,0.45 -20.5,0.76 -34.06,1.07 -4.1,-0.62 -8.63,-0.62 -13.3,-1.64 -8.32,-1.46 -17.55,-3.99 -26.18,-6.63 -13.11,-5.94 -23.27,-13.64 -29.39,-23.22 -7.2,-9.77 -11.8,-21.77 -13.76,-35.19 -1.95,-14.63 -1.33,-31.46 2.22,-48.94 3.91,-19.93 9.84,-39.74 18.47,-59.86 8.28,-19.14 16.67,-36.42 24.68,-51.3z"/>
  <g>
   <path class="fil1" d="M14934.55 15995.98c-5.87,-44.79 -26.99,-73.47 -62.77,-85.58 -33.8,-11.35 -80.6,-13.11 -142.87,-5.74l-118.69 14.18 48.32 396.73 107.23 -12.88 -20.19 -163.6 11.8 -1.65c51.35,-5.93 95.23,-19.04 129.68,-37.71 37.14,-20.36 53.42,-55.74 47.49,-103.75l0 0zm-120.84 61.2c-13.76,10.34 -35.14,16.83 -63.7,20.05l-11.85 1.95 -13.37 -112.64 11.49 -1.45c31.61,-4.17 54.3,-2.84 68.3,3.6 12.8,5.74 20.19,18.61 22.76,39.74 3.08,23.76 -1.4,40.28 -13.63,48.75z"/>
  </g>
  <g>
   <path class="fil1" d="M15358.86 15987.71c-14.52,-61.7 -42.2,-107.04 -83.01,-135.1 -41,-28.24 -94.81,-34.63 -160.72,-19.23 -66.54,15.59 -112.59,45.53 -136.62,88.42 -23.08,43 -27.87,95.92 -13.57,157.88 14.69,61.93 42.58,106.85 83.01,135.24 41.24,28.39 95.12,34.57 160.77,19.05 56.02,-13.12 97.45,-36.64 123.51,-69.9 4.86,-5.94 8.82,-12.56 12.11,-18.78 24.03,-43.46 29.08,-96.39 14.52,-157.58l0 0zm-157.01 -78.64c20.51,22.19 36.33,57.02 47.49,104.08 10.92,47.44 12.37,86.46 4.03,114.97 -2.77,9.27 -6.63,17.17 -11.99,23.77 -9.89,13.44 -25.1,22.15 -45.41,26.87 -30.28,6.93 -54.43,0 -73.55,-20.24 -20.74,-22.58 -36.9,-57.79 -47.87,-104.63 -11.1,-46.99 -12.3,-86.04 -3.71,-114.67 2.26,-9.34 6.62,-16.71 11.99,-23.65 10.03,-13.44 24.91,-21.69 45.41,-26.86 29.96,-7.32 54.02,-0.65 73.61,20.36z"/>
  </g>
  <g>
   <path class="fil1" d="M15457.81 15762.1l-110.32 32.54 114.85 383.16 103.39 -31.04 -47.99 -158.76 16.52 -5.3c28.52,-7.89 49.45,-8.82 61.75,-1 13.18,7.7 29.32,27.75 47.25,59.22l40.43 70.82 104.27 -31.53 -60.36 -100.22c-15.76,-25.99 -30.9,-44.03 -46.49,-55.26 -9.39,-7.06 -21.95,-11.85 -37.02,-13.11 16.21,-12.57 27.51,-24.99 34.18,-38.91 10.61,-21 12.31,-42.58 5.68,-64.58 -12.8,-41.81 -39.55,-64.72 -80.29,-68.13 -37.93,-3.12 -86.94,4.7 -145.85,22.1l0 0zm124.58 82.2c6.51,21.57 2.72,38.09 -8.12,49.51 -13.38,12.87 -35.83,24.84 -67.11,33.99l-6.44 1.96 -32.3 -107.66 6.82 -2.07c30.77,-9.28 56.26,-13 74.35,-10.92 15.64,2.12 26.11,13.49 32.8,35.19z"/>
  </g>
 </g>
</svg>
